  0
SECTION
  2
HEADER
  9
$ACADVER
  1
AC1015
  9
$ACADMAINTVER
 70
     6
  9
$DWGCODEPAGE
  3
ANSI_1252
  9
$INSBASE
 10
0.0
 20
0.0
 30
0.0
  9
$EXTMIN
 10
0.0
 20
0.0
 30
0.0
  9
$EXTMAX
 10
1189.0
 20
841.0
 30
0.0
  9
$LIMMIN
 10
0.0
 20
0.0
  9
$LIMMAX
 10
1189.0
 20
841.0
  9
$ORTHOMODE
 70
     0
  9
$REGENMODE
 70
     1
  9
$FILLMODE
 70
     1
  9
$QTEXTMODE
 70
     0
  9
$MIRRTEXT
 70
     1
  9
$LTSCALE
 40
1.0
  9
$ATTMODE
 70
     1
  9
$TEXTSIZE
 40
3.5
  9
$TRACEWID
 40
1.0
  9
$TEXTSTYLE
  7
Standard
  9
$CLAYER
  8
0
  9
$CELTYPE
  6
ByLayer
  9
$CECOLOR
 62
   256
  9
$CELTSCALE
 40
1.0
  9
$DISPSILH
 70
     0
  9
$DIMSCALE
 40
1.0
  9
$DIMASZ
 40
3.302
  9
$DIMEXO
 40
1.0
  9
$DIMDLI
 40
3.75
  9
$DIMRND
 40
0.0
  9
$DIMDLE
 40
0.0
  9
$DIMEXE
 40
1.0
  9
$DIMTP
 40
0.0
  9
$DIMTM
 40
0.0
  9
$DIMTXT
 40
3.5
  9
$DIMCEN
 40
2.5
  9
$DIMTSZ
 40
0.0
  9
$DIMTOL
 70
     0
  9
$DIMLIM
 70
     0
  9
$DIMTIH
 70
     1
  9
$DIMTOH
 70
     1
  9
$DIMSE1
 70
     0
  9
$DIMSE2
 70
     0
  9
$DIMTAD
 70
     1
  9
$DIMZIN
 70
     0
  9
$DIMBLK
  1

  9
$DIMASO
 70
     1
  9
$DIMSHO
 70
     1
  9
$DIMPOST
  1

  9
$DIMAPOST
  1

  9
$DIMALT
 70
     0
  9
$DIMALTD
 70
     3
  9
$DIMALTF
 40
0.0393700787
  9
$DIMLFAC
 40
1.0
  9
$DIMTOFL
 70
     1
  9
$DIMTVP
 40
0.0
  9
$DIMTIX
 70
     0
  9
$DIMSOXD
 70
     0
  9
$DIMSAH
 70
     0
  9
$DIMBLK1
  1

  9
$DIMBLK2
  1

  9
$DIMSTYLE
  2
ISO-25
  9
$DIMCLRD
 70
     0
  9
$DIMCLRE
 70
     0
  9
$DIMCLRT
 70
     0
  9
$DIMTFAC
 40
1.0
  9
$DIMGAP
 40
1.524
  9
$DIMJUST
 70
     0
  9
$DIMSD1
 70
     0
  9
$DIMSD2
 70
     0
  9
$DIMTOLJ
 70
     0
  9
$DIMTZIN
 70
     0
  9
$DIMALTZ
 70
     0
  9
$DIMALTTZ
 70
     0
  9
$DIMUPT
 70
     0
  9
$DIMDEC
 70
     2
  9
$DIMTDEC
 70
     2
  9
$DIMALTU
 70
     2
  9
$DIMALTTD
 70
     3
  9
$DIMTXSTY
  7
Standard
  9
$DIMAUNIT
 70
     0
  9
$DIMADEC
 70
     2
  9
$DIMALTRND
 40
0.0
  9
$DIMAZIN
 70
     0
  9
$DIMDSEP
 70
    44
  9
$DIMATFIT
 70
     3
  9
$DIMFRAC
 70
     0
  9
$DIMLDRBLK
  1

  9
$DIMLUNIT
 70
     2
  9
$DIMLWD
 70
    -2
  9
$DIMLWE
 70
    -2
  9
$DIMTMOVE
 70
     0
  9
$LUNITS
 70
     2
  9
$LUPREC
 70
     2
  9
$SKETCHINC
 40
1.0
  9
$FILLETRAD
 40
10.0
  9
$AUNITS
 70
     0
  9
$AUPREC
 70
     2
  9
$MENU
  1
.
  9
$ELEVATION
 40
0.0
  9
$PELEVATION
 40
0.0
  9
$THICKNESS
 40
0.0
  9
$LIMCHECK
 70
     0
  9
$CHAMFERA
 40
10.0
  9
$CHAMFERB
 40
10.0
  9
$CHAMFERC
 40
20.0
  9
$CHAMFERD
 40
0.0
  9
$SKPOLY
 70
     0
  9
$TDCREATE
 40
2458564.550030718
  9
$TDUCREATE
 40
2458564.508364051
  9
$TDUPDATE
 40
2458564.550031551
  9
$TDUUPDATE
 40
2458564.508364884
  9
$TDINDWG
 40
0.0000000116
  9
$TDUSRTIMER
 40
0.0000000116
  9
$USRTIMER
 70
     1
  9
$ANGBASE
 50
0.0
  9
$ANGDIR
 70
     0
  9
$PDMODE
 70
     0
  9
$PDSIZE
 40
-1.0
  9
$PLINEWID
 40
0.0
  9
$SPLFRAME
 70
     0
  9
$SPLINETYPE
 70
     6
  9
$SPLINESEGS
 70
     8
  9
$HANDSEED
  5
3B8
  9
$SURFTAB1
 70
     6
  9
$SURFTAB2
 70
     6
  9
$SURFTYPE
 70
     6
  9
$SURFU
 70
     6
  9
$SURFV
 70
     6
  9
$UCSBASE
  2

  9
$UCSNAME
  2

  9
$UCSORG
 10
0.0
 20
0.0
 30
0.0
  9
$UCSXDIR
 10
1.0
 20
0.0
 30
0.0
  9
$UCSYDIR
 10
0.0
 20
1.0
 30
0.0
  9
$UCSORTHOREF
  2

  9
$UCSORTHOVIEW
 70
     0
  9
$UCSORGTOP
 10
0.0
 20
0.0
 30
0.0
  9
$UCSORGBOTTOM
 10
0.0
 20
0.0
 30
0.0
  9
$UCSORGLEFT
 10
0.0
 20
0.0
 30
0.0
  9
$UCSORGRIGHT
 10
0.0
 20
0.0
 30
0.0
  9
$UCSORGFRONT
 10
0.0
 20
0.0
 30
0.0
  9
$UCSORGBACK
 10
0.0
 20
0.0
 30
0.0
  9
$PUCSBASE
  2

  9
$PUCSNAME
  2

  9
$PUCSORG
 10
0.0
 20
0.0
 30
0.0
  9
$PUCSXDIR
 10
1.0
 20
0.0
 30
0.0
  9
$PUCSYDIR
 10
0.0
 20
1.0
 30
0.0
  9
$PUCSORTHOREF
  2

  9
$PUCSORTHOVIEW
 70
     0
  9
$PUCSORGTOP
 10
0.0
 20
0.0
 30
0.0
  9
$PUCSORGBOTTOM
 10
0.0
 20
0.0
 30
0.0
  9
$PUCSORGLEFT
 10
0.0
 20
0.0
 30
0.0
  9
$PUCSORGRIGHT
 10
0.0
 20
0.0
 30
0.0
  9
$PUCSORGFRONT
 10
0.0
 20
0.0
 30
0.0
  9
$PUCSORGBACK
 10
0.0
 20
0.0
 30
0.0
  9
$USERI1
 70
     0
  9
$USERI2
 70
     0
  9
$USERI3
 70
     0
  9
$USERI4
 70
     0
  9
$USERI5
 70
     0
  9
$USERR1
 40
0.0
  9
$USERR2
 40
0.0
  9
$USERR3
 40
0.0
  9
$USERR4
 40
0.0
  9
$USERR5
 40
0.0
  9
$WORLDVIEW
 70
     1
  9
$SHADEDGE
 70
     3
  9
$SHADEDIF
 70
    70
  9
$TILEMODE
 70
     1
  9
$MAXACTVP
 70
    64
  9
$PINSBASE
 10
0.0
 20
0.0
 30
0.0
  9
$PLIMCHECK
 70
     0
  9
$PEXTMIN
 10
1.0000000000E+20
 20
1.0000000000E+20
 30
1.0000000000E+20
  9
$PEXTMAX
 10
-1.0000000000E+20
 20
-1.0000000000E+20
 30
-1.0000000000E+20
  9
$PLIMMIN
 10
0.0
 20
0.0
  9
$PLIMMAX
 10
420.0
 20
297.0
  9
$UNITMODE
 70
     0
  9
$VISRETAIN
 70
     1
  9
$PLINEGEN
 70
     0
  9
$PSLTSCALE
 70
     1
  9
$TREEDEPTH
 70
  3020
  9
$CMLSTYLE
  2
Standard
  9
$CMLJUST
 70
     0
  9
$CMLSCALE
 40
20.0
  9
$PROXYGRAPHICS
 70
     1
  9
$MEASUREMENT
 70
     1
  9
$CELWEIGHT
370
    -1
  9
$ENDCAPS
280
     0
  9
$JOINSTYLE
280
     0
  9
$LWDISPLAY
290
     1
  9
$INSUNITS
 70
     4
  9
$HYPERLINKBASE
  1

  9
$STYLESHEET
  1

  9
$XEDIT
290
     1
  9
$CEPSNTYPE
380
     0
  9
$PSTYLEMODE
290
     1
  9
$FINGERPRINTGUID
  2
{719E91FF-3844-40B4-A45E-C68DF3017166}
  9
$VERSIONGUID
  2
{FAEB1C32-E019-11D5-929B-00C0DF256EC4}
  9
$EXTNAMES
290
     1
  9
$PSVPSCALE
 40
0.0
  9
$OLESTARTUP
290
     0
  0
ENDSEC
  0
SECTION
  2
CLASSES
  0
CLASS
  1
ACDBDICTIONARYWDFLT
  2
AcDbDictionaryWithDefault
  3
ObjectDBX Classes
 90
        0
280
     0
281
     0
  0
CLASS
  1
VISUALSTYLE
  2
AcDbVisualStyle
  3
ObjectDBX Classes
 90
     4095
280
     0
281
     0
  0
CLASS
  1
MATERIAL
  2
AcDbMaterial
  3
ObjectDBX Classes
 90
     1153
280
     0
281
     0
  0
CLASS
  1
ACDBPLACEHOLDER
  2
AcDbPlaceHolder
  3
ObjectDBX Classes
 90
        0
280
     0
281
     0
  0
CLASS
  1
LAYOUT
  2
AcDbLayout
  3
ObjectDBX Classes
 90
        0
280
     0
281
     0
  0
ENDSEC
  0
SECTION
  2
TABLES
  0
TABLE
  2
VPORT
  5
8
330
0
100
AcDbSymbolTable
 70
     1
  0
VPORT
  5
29
330
8
100
AcDbSymbolTableRecord
100
AcDbViewportTableRecord
  2
*Active
 70
     0
 10
0.0
 20
0.0
 11
1.0
 21
1.0
 12
594.5
 22
420.5
 13
0.0
 23
0.0
 14
10.0
 24
10.0
 15
10.0
 25
10.0
 16
0.0
 26
0.0
 36
1.0
 17
0.0
 27
0.0
 37
0.0
 40
841.0
 41
1.4137931034
 42
50.0
 43
0.0
 44
0.0
 50
0.0
 51
0.0
 71
     0
 72
  2000
 73
     1
 74
     3
 75
     0
 76
     0
 77
     0
 78
     0
281
     0
 65
     1
110
0.0
120
0.0
130
0.0
111
1.0
121
0.0
131
0.0
112
0.0
122
1.0
132
0.0
 79
     0
146
0.0
  0
ENDTAB
  0
TABLE
  2
LTYPE
  5
5
330
0
100
AcDbSymbolTable
 70
     6
  0
LTYPE
  5
14
330
5
100
AcDbSymbolTableRecord
100
AcDbLinetypeTableRecord
  2
ByBlock
 70
     0
  3

 72
    65
 73
     0
 40
0.0
  0
LTYPE
  5
15
330
5
100
AcDbSymbolTableRecord
100
AcDbLinetypeTableRecord
  2
ByLayer
 70
     0
  3

 72
    65
 73
     0
 40
0.0
  0
LTYPE
  5
16
330
5
100
AcDbSymbolTableRecord
100
AcDbLinetypeTableRecord
  2
Continuous
 70
     0
  3
Solid line
 72
    65
 73
     0
 40
0.0
  0
LTYPE
  5
3F
330
5
100
AcDbSymbolTableRecord
100
AcDbLinetypeTableRecord
  2
HIDDEN
 70
     0
  3
Hidden __ __ __ __ __ __ __ __ __ __ __ __ __ __
 72
    65
 73
     2
 40
1.905
 49
1.27
 74
     0
 49
-0.635
 74
     0
  0
LTYPE
  5
40
330
5
100
AcDbSymbolTableRecord
100
AcDbLinetypeTableRecord
  2
PHANTOM
 70
     0
  3
Phantom ______  __  __  ______  __  __  ______
 72
    65
 73
     6
 40
12.7
 49
6.35
 74
     0
 49
-1.27
 74
     0
 49
1.27
 74
     0
 49
-1.27
 74
     0
 49
1.27
 74
     0
 49
-1.27
 74
     0
  0
LTYPE
  5
41
330
5
100
AcDbSymbolTableRecord
100
AcDbLinetypeTableRecord
  2
CENTER
 70
     0
  3
Center ____ _ ____ _ ____ _ ____ _ ____ _ ____
 72
    65
 73
     4
 40
10.16
 49
6.35
 74
     0
 49
-1.27
 74
     0
 49
1.27
 74
     0
 49
-1.27
 74
     0
  0
LTYPE
  5
42
330
5
100
AcDbSymbolTableRecord
100
AcDbLinetypeTableRecord
  2
CENTERX2
 70
     0
  3
Center (2x) ________  __  ________  __  _____
 72
    65
 73
     4
 40
20.32
 49
12.7
 74
     0
 49
-2.54
 74
     0
 49
2.54
 74
     0
 49
-2.54
 74
     0
  0
LTYPE
  5
43
330
5
100
AcDbSymbolTableRecord
100
AcDbLinetypeTableRecord
  2
DOT2
 70
     0
  3
Dot (.5x) ........................................
 72
    65
 73
     2
 40
0.635
 49
0.0
 74
     0
 49
-0.635
 74
     0
  0
ENDTAB
  0
TABLE
  2
LAYER
  5
2
330
0
100
AcDbSymbolTable
 70
     3
  0
LAYER
  5
10
330
2
100
AcDbSymbolTableRecord
100
AcDbLayerTableRecord
  2
0
 70
     0
 62
     7
  6
Continuous
370
    -3
390
F
  0
LAYER
  5
44
330
2
100
AcDbSymbolTableRecord
100
AcDbLayerTableRecord
  2
GÖMD
 70
     0
 62
     4
  6
HIDDEN
370
    -3
390
F
  0
LAYER
  5
45
330
2
100
AcDbSymbolTableRecord
100
AcDbLayerTableRecord
  2
CENTER
 70
     0
 62
     2
  6
CENTERX2
370
    -3
390
F
  0
ENDTAB
  0
TABLE
  2
STYLE
  5
3
330
0
100
AcDbSymbolTable
 70
     1
  0
STYLE
  5
11
330
3
100
AcDbSymbolTableRecord
100
AcDbTextStyleTableRecord
  2
Standard
 70
     0
 40
0.0
 41
1.0
 50
0.0
 71
     0
 42
3.5
  3
txt
  4

  0
ENDTAB
  0
TABLE
  2
VIEW
  5
6
330
0
100
AcDbSymbolTable
 70
     0
  0
ENDTAB
  0
TABLE
  2
UCS
  5
7
330
0
100
AcDbSymbolTable
 70
     0
  0
ENDTAB
  0
TABLE
  2
APPID
  5
9
330
0
100
AcDbSymbolTable
 70
     1
  0
APPID
  5
12
330
9
100
AcDbSymbolTableRecord
100
AcDbRegAppTableRecord
  2
ACAD
 70
     0
  0
ENDTAB
  0
TABLE
  2
DIMSTYLE
  5
A
330
0
100
AcDbSymbolTable
 70
     1
100
AcDbDimStyleTable
  0
DIMSTYLE
105
27
330
A
100
AcDbSymbolTableRecord
100
AcDbDimStyleTableRecord
  2
ISO-25
 70
     0
 41
2.5
 42
0.625
 43
3.75
 44
1.25
 73
     0
 74
     0
 77
     1
 78
     8
140
2.5
141
2.5
143
0.0393700787
147
0.625
171
     3
172
     1
178
     0
271
     2
272
     2
274
     3
278
    44
283
     0
284
     8
340
11
  0
ENDTAB
  0
TABLE
  2
BLOCK_RECORD
  5
1
330
0
100
AcDbSymbolTable
 70
    32
  0
BLOCK_RECORD
  5
1F
330
1
100
AcDbSymbolTableRecord
100
AcDbBlockTableRecord
  2
*Model_Space
340
22
  0
BLOCK_RECORD
  5
1B
330
1
100
AcDbSymbolTableRecord
100
AcDbBlockTableRecord
  2
*Paper_Space
340
1E
  0
BLOCK_RECORD
  5
23
330
1
100
AcDbSymbolTableRecord
100
AcDbBlockTableRecord
  2
*Paper_Space0
340
26
  0
BLOCK_RECORD
  5
6F
330
1
100
AcDbSymbolTableRecord
100
AcDbBlockTableRecord
  2
SW_CENTERMARKSYMBOL_0
340
0
102
{BLKREFS
331
7A
102
}
  0
BLOCK_RECORD
  5
7B
330
1
100
AcDbSymbolTableRecord
100
AcDbBlockTableRecord
  2
SW_CENTERMARKSYMBOL_1
340
0
102
{BLKREFS
331
86
102
}
  0
BLOCK_RECORD
  5
87
330
1
100
AcDbSymbolTableRecord
100
AcDbBlockTableRecord
  2
SW_CENTERMARKSYMBOL_2
340
0
102
{BLKREFS
331
92
102
}
  0
BLOCK_RECORD
  5
93
330
1
100
AcDbSymbolTableRecord
100
AcDbBlockTableRecord
  2
SW_CENTERMARKSYMBOL_3
340
0
102
{BLKREFS
331
9E
102
}
  0
BLOCK_RECORD
  5
9F
330
1
100
AcDbSymbolTableRecord
100
AcDbBlockTableRecord
  2
SW_CENTERMARKSYMBOL_4
340
0
102
{BLKREFS
331
AA
102
}
  0
BLOCK_RECORD
  5
C5
330
1
100
AcDbSymbolTableRecord
100
AcDbBlockTableRecord
  2
SW_CENTERMARKSYMBOL_5
340
0
102
{BLKREFS
331
D0
102
}
  0
BLOCK_RECORD
  5
D1
330
1
100
AcDbSymbolTableRecord
100
AcDbBlockTableRecord
  2
SW_CENTERMARKSYMBOL_6
340
0
102
{BLKREFS
331
DC
102
}
  0
BLOCK_RECORD
  5
DD
330
1
100
AcDbSymbolTableRecord
100
AcDbBlockTableRecord
  2
SW_CENTERMARKSYMBOL_7
340
0
102
{BLKREFS
331
E8
102
}
  0
BLOCK_RECORD
  5
E9
330
1
100
AcDbSymbolTableRecord
100
AcDbBlockTableRecord
  2
SW_CENTERMARKSYMBOL_8
340
0
102
{BLKREFS
331
F4
102
}
  0
BLOCK_RECORD
  5
F5
330
1
100
AcDbSymbolTableRecord
100
AcDbBlockTableRecord
  2
SW_CENTERMARKSYMBOL_9
340
0
102
{BLKREFS
331
100
102
}
  0
BLOCK_RECORD
  5
116
330
1
100
AcDbSymbolTableRecord
100
AcDbBlockTableRecord
  2
SW_CENTERMARKSYMBOL_10
340
0
102
{BLKREFS
331
121
102
}
  0
BLOCK_RECORD
  5
12B
330
1
100
AcDbSymbolTableRecord
100
AcDbBlockTableRecord
  2
SW_CENTERMARKSYMBOL_11
340
0
102
{BLKREFS
331
136
102
}
  0
BLOCK_RECORD
  5
182
330
1
100
AcDbSymbolTableRecord
100
AcDbBlockTableRecord
  2
SW_CENTERMARKSYMBOL_12
340
0
102
{BLKREFS
331
18D
102
}
  0
BLOCK_RECORD
  5
1C4
330
1
100
AcDbSymbolTableRecord
100
AcDbBlockTableRecord
  2
SW_CENTERMARKSYMBOL_13
340
0
102
{BLKREFS
331
1CF
102
}
  0
BLOCK_RECORD
  5
1D0
330
1
100
AcDbSymbolTableRecord
100
AcDbBlockTableRecord
  2
SW_CENTERMARKSYMBOL_14
340
0
102
{BLKREFS
331
1DB
102
}
  0
BLOCK_RECORD
  5
1DC
330
1
100
AcDbSymbolTableRecord
100
AcDbBlockTableRecord
  2
SW_CENTERMARKSYMBOL_15
340
0
102
{BLKREFS
331
1E7
102
}
  0
BLOCK_RECORD
  5
1E8
330
1
100
AcDbSymbolTableRecord
100
AcDbBlockTableRecord
  2
SW_CENTERMARKSYMBOL_16
340
0
102
{BLKREFS
331
1F3
102
}
  0
BLOCK_RECORD
  5
22A
330
1
100
AcDbSymbolTableRecord
100
AcDbBlockTableRecord
  2
SW_CENTERMARKSYMBOL_17
340
0
102
{BLKREFS
331
235
102
}
  0
BLOCK_RECORD
  5
236
330
1
100
AcDbSymbolTableRecord
100
AcDbBlockTableRecord
  2
SW_CENTERMARKSYMBOL_18
340
0
102
{BLKREFS
331
241
102
}
  0
BLOCK_RECORD
  5
242
330
1
100
AcDbSymbolTableRecord
100
AcDbBlockTableRecord
  2
SW_CENTERMARKSYMBOL_19
340
0
102
{BLKREFS
331
24D
102
}
  0
BLOCK_RECORD
  5
24E
330
1
100
AcDbSymbolTableRecord
100
AcDbBlockTableRecord
  2
SW_CENTERMARKSYMBOL_20
340
0
102
{BLKREFS
331
259
102
}
  0
BLOCK_RECORD
  5
25A
330
1
100
AcDbSymbolTableRecord
100
AcDbBlockTableRecord
  2
SW_CENTERMARKSYMBOL_21
340
0
102
{BLKREFS
331
265
102
}
  0
BLOCK_RECORD
  5
266
330
1
100
AcDbSymbolTableRecord
100
AcDbBlockTableRecord
  2
SW_CENTERMARKSYMBOL_22
340
0
102
{BLKREFS
331
271
102
}
  0
BLOCK_RECORD
  5
272
330
1
100
AcDbSymbolTableRecord
100
AcDbBlockTableRecord
  2
SW_CENTERMARKSYMBOL_23
340
0
102
{BLKREFS
331
27D
102
}
  0
BLOCK_RECORD
  5
27E
330
1
100
AcDbSymbolTableRecord
100
AcDbBlockTableRecord
  2
SW_CENTERMARKSYMBOL_24
340
0
102
{BLKREFS
331
289
102
}
  0
BLOCK_RECORD
  5
2A3
330
1
100
AcDbSymbolTableRecord
100
AcDbBlockTableRecord
  2
SW_CENTERMARKSYMBOL_25
340
0
102
{BLKREFS
331
2AE
102
}
  0
BLOCK_RECORD
  5
2AF
330
1
100
AcDbSymbolTableRecord
100
AcDbBlockTableRecord
  2
SW_CENTERMARKSYMBOL_26
340
0
102
{BLKREFS
331
2BA
102
}
  0
BLOCK_RECORD
  5
2BB
330
1
100
AcDbSymbolTableRecord
100
AcDbBlockTableRecord
  2
SW_CENTERMARKSYMBOL_27
340
0
102
{BLKREFS
331
2C6
102
}
  0
BLOCK_RECORD
  5
2C7
330
1
100
AcDbSymbolTableRecord
100
AcDbBlockTableRecord
  2
SW_CENTERMARKSYMBOL_28
340
0
102
{BLKREFS
331
2D2
102
}
  0
BLOCK_RECORD
  5
2D3
330
1
100
AcDbSymbolTableRecord
100
AcDbBlockTableRecord
  2
SW_CENTERMARKSYMBOL_29
340
0
102
{BLKREFS
331
2DE
102
}
  0
BLOCK_RECORD
  5
344
330
1
100
AcDbSymbolTableRecord
100
AcDbBlockTableRecord
  2
SW_CENTERMARKSYMBOL_30
340
0
102
{BLKREFS
331
34F
102
}
  0
ENDTAB
  0
ENDSEC
  0
SECTION
  2
BLOCKS
  0
BLOCK
  5
20
330
1F
100
AcDbEntity
  8
0
100
AcDbBlockBegin
  2
*Model_Space
 70
     0
 10
0.0
 20
0.0
 30
0.0
  3
*Model_Space
  1

  0
ENDBLK
  5
21
330
1F
100
AcDbEntity
  8
0
100
AcDbBlockEnd
  0
BLOCK
  5
1C
330
1B
100
AcDbEntity
 67
     1
  8
0
100
AcDbBlockBegin
  2
*Paper_Space
 70
     0
 10
0.0
 20
0.0
 30
0.0
  3
*Paper_Space
  1

  0
ENDBLK
  5
1D
330
1B
100
AcDbEntity
 67
     1
  8
0
100
AcDbBlockEnd
  0
BLOCK
  5
24
330
23
100
AcDbEntity
  8
0
100
AcDbBlockBegin
  2
*Paper_Space0
 70
     0
 10
0.0
 20
0.0
 30
0.0
  3
*Paper_Space0
  1

  0
ENDBLK
  5
25
330
23
100
AcDbEntity
  8
0
100
AcDbBlockEnd
  0
BLOCK
  5
70
330
6F
100
AcDbEntity
  8
0
100
AcDbBlockBegin
  2
SW_CENTERMARKSYMBOL_0
 70
     0
 10
0.0
 20
0.0
 30
0.0
  3
SW_CENTERMARKSYMBOL_0
  1

  0
LINE
  5
72
330
6F
100
AcDbEntity
  8
CENTER
 62
     0
100
AcDbLine
 10
0.0
 20
0.0
 30
0.0
 11
0.0
 21
2.5
 31
0.0
  0
LINE
  5
73
330
6F
100
AcDbEntity
  8
CENTER
 62
     0
100
AcDbLine
 10
0.0
 20
0.0
 30
0.0
 11
-2.5
 21
0.0
 31
0.0
  0
LINE
  5
74
330
6F
100
AcDbEntity
  8
CENTER
 62
     0
100
AcDbLine
 10
0.0
 20
0.0
 30
0.0
 11
0.0
 21
-2.5
 31
0.0
  0
LINE
  5
75
330
6F
100
AcDbEntity
  8
CENTER
 62
     0
100
AcDbLine
 10
0.0
 20
0.0
 30
0.0
 11
2.5
 21
0.0
 31
0.0
  0
LINE
  5
76
330
6F
100
AcDbEntity
  8
CENTER
 62
     0
100
AcDbLine
 10
0.0
 20
5.0
 30
0.0
 11
0.0
 21
7.5
 31
0.0
  0
LINE
  5
77
330
6F
100
AcDbEntity
  8
CENTER
 62
     0
100
AcDbLine
 10
-5.0
 20
0.0
 30
0.0
 11
-7.5
 21
0.0
 31
0.0
  0
LINE
  5
78
330
6F
100
AcDbEntity
  8
CENTER
 62
     0
100
AcDbLine
 10
0.0
 20
-5.0
 30
0.0
 11
0.0
 21
-7.5
 31
0.0
  0
LINE
  5
79
330
6F
100
AcDbEntity
  8
CENTER
 62
     0
100
AcDbLine
 10
5.0
 20
0.0
 30
0.0
 11
7.5
 21
0.0
 31
0.0
  0
ENDBLK
  5
71
330
6F
100
AcDbEntity
  8
0
100
AcDbBlockEnd
  0
BLOCK
  5
7C
330
7B
100
AcDbEntity
  8
0
100
AcDbBlockBegin
  2
SW_CENTERMARKSYMBOL_1
 70
     0
 10
0.0
 20
0.0
 30
0.0
  3
SW_CENTERMARKSYMBOL_1
  1

  0
LINE
  5
7E
330
7B
100
AcDbEntity
  8
CENTER
 62
     0
100
AcDbLine
 10
0.0
 20
0.0
 30
0.0
 11
0.0
 21
2.5
 31
0.0
  0
LINE
  5
7F
330
7B
100
AcDbEntity
  8
CENTER
 62
     0
100
AcDbLine
 10
0.0
 20
0.0
 30
0.0
 11
-2.5
 21
0.0
 31
0.0
  0
LINE
  5
80
330
7B
100
AcDbEntity
  8
CENTER
 62
     0
100
AcDbLine
 10
0.0
 20
0.0
 30
0.0
 11
0.0
 21
-2.5
 31
0.0
  0
LINE
  5
81
330
7B
100
AcDbEntity
  8
CENTER
 62
     0
100
AcDbLine
 10
0.0
 20
0.0
 30
0.0
 11
2.5
 21
0.0
 31
0.0
  0
LINE
  5
82
330
7B
100
AcDbEntity
  8
CENTER
 62
     0
100
AcDbLine
 10
0.0
 20
2.5
 30
0.0
 11
0.0
 21
3.5
 31
0.0
  0
LINE
  5
83
330
7B
100
AcDbEntity
  8
CENTER
 62
     0
100
AcDbLine
 10
-2.5
 20
0.0
 30
0.0
 11
-3.5
 21
0.0
 31
0.0
  0
LINE
  5
84
330
7B
100
AcDbEntity
  8
CENTER
 62
     0
100
AcDbLine
 10
0.0
 20
-2.5
 30
0.0
 11
0.0
 21
-3.5
 31
0.0
  0
LINE
  5
85
330
7B
100
AcDbEntity
  8
CENTER
 62
     0
100
AcDbLine
 10
2.5
 20
0.0
 30
0.0
 11
3.5
 21
0.0
 31
0.0
  0
ENDBLK
  5
7D
330
7B
100
AcDbEntity
  8
0
100
AcDbBlockEnd
  0
BLOCK
  5
88
330
87
100
AcDbEntity
  8
0
100
AcDbBlockBegin
  2
SW_CENTERMARKSYMBOL_2
 70
     0
 10
0.0
 20
0.0
 30
0.0
  3
SW_CENTERMARKSYMBOL_2
  1

  0
LINE
  5
8A
330
87
100
AcDbEntity
  8
CENTER
 62
     0
100
AcDbLine
 10
0.0
 20
0.0
 30
0.0
 11
0.0
 21
2.5
 31
0.0
  0
LINE
  5
8B
330
87
100
AcDbEntity
  8
CENTER
 62
     0
100
AcDbLine
 10
0.0
 20
0.0
 30
0.0
 11
-2.5
 21
0.0
 31
0.0
  0
LINE
  5
8C
330
87
100
AcDbEntity
  8
CENTER
 62
     0
100
AcDbLine
 10
0.0
 20
0.0
 30
0.0
 11
0.0
 21
-2.5
 31
0.0
  0
LINE
  5
8D
330
87
100
AcDbEntity
  8
CENTER
 62
     0
100
AcDbLine
 10
0.0
 20
0.0
 30
0.0
 11
2.5
 21
0.0
 31
0.0
  0
LINE
  5
8E
330
87
100
AcDbEntity
  8
CENTER
 62
     0
100
AcDbLine
 10
0.0
 20
2.5
 30
0.0
 11
0.0
 21
3.5
 31
0.0
  0
LINE
  5
8F
330
87
100
AcDbEntity
  8
CENTER
 62
     0
100
AcDbLine
 10
-2.5
 20
0.0
 30
0.0
 11
-3.5
 21
0.0
 31
0.0
  0
LINE
  5
90
330
87
100
AcDbEntity
  8
CENTER
 62
     0
100
AcDbLine
 10
0.0
 20
-2.5
 30
0.0
 11
0.0
 21
-3.5
 31
0.0
  0
LINE
  5
91
330
87
100
AcDbEntity
  8
CENTER
 62
     0
100
AcDbLine
 10
2.5
 20
0.0
 30
0.0
 11
3.5
 21
0.0
 31
0.0
  0
ENDBLK
  5
89
330
87
100
AcDbEntity
  8
0
100
AcDbBlockEnd
  0
BLOCK
  5
94
330
93
100
AcDbEntity
  8
0
100
AcDbBlockBegin
  2
SW_CENTERMARKSYMBOL_3
 70
     0
 10
0.0
 20
0.0
 30
0.0
  3
SW_CENTERMARKSYMBOL_3
  1

  0
LINE
  5
96
330
93
100
AcDbEntity
  8
CENTER
 62
     0
100
AcDbLine
 10
0.0
 20
0.0
 30
0.0
 11
0.0
 21
2.5
 31
0.0
  0
LINE
  5
97
330
93
100
AcDbEntity
  8
CENTER
 62
     0
100
AcDbLine
 10
0.0
 20
0.0
 30
0.0
 11
-2.5
 21
0.0
 31
0.0
  0
LINE
  5
98
330
93
100
AcDbEntity
  8
CENTER
 62
     0
100
AcDbLine
 10
0.0
 20
0.0
 30
0.0
 11
0.0
 21
-2.5
 31
0.0
  0
LINE
  5
99
330
93
100
AcDbEntity
  8
CENTER
 62
     0
100
AcDbLine
 10
0.0
 20
0.0
 30
0.0
 11
2.5
 21
0.0
 31
0.0
  0
LINE
  5
9A
330
93
100
AcDbEntity
  8
CENTER
 62
     0
100
AcDbLine
 10
0.0
 20
2.5
 30
0.0
 11
0.0
 21
3.5
 31
0.0
  0
LINE
  5
9B
330
93
100
AcDbEntity
  8
CENTER
 62
     0
100
AcDbLine
 10
-2.5
 20
0.0
 30
0.0
 11
-3.5
 21
0.0
 31
0.0
  0
LINE
  5
9C
330
93
100
AcDbEntity
  8
CENTER
 62
     0
100
AcDbLine
 10
0.0
 20
-2.5
 30
0.0
 11
0.0
 21
-3.5
 31
0.0
  0
LINE
  5
9D
330
93
100
AcDbEntity
  8
CENTER
 62
     0
100
AcDbLine
 10
2.5
 20
0.0
 30
0.0
 11
3.5
 21
0.0
 31
0.0
  0
ENDBLK
  5
95
330
93
100
AcDbEntity
  8
0
100
AcDbBlockEnd
  0
BLOCK
  5
A0
330
9F
100
AcDbEntity
  8
0
100
AcDbBlockBegin
  2
SW_CENTERMARKSYMBOL_4
 70
     0
 10
0.0
 20
0.0
 30
0.0
  3
SW_CENTERMARKSYMBOL_4
  1

  0
LINE
  5
A2
330
9F
100
AcDbEntity
  8
CENTER
 62
     0
100
AcDbLine
 10
0.0
 20
0.0
 30
0.0
 11
0.0
 21
2.5
 31
0.0
  0
LINE
  5
A3
330
9F
100
AcDbEntity
  8
CENTER
 62
     0
100
AcDbLine
 10
0.0
 20
0.0
 30
0.0
 11
-2.5
 21
0.0
 31
0.0
  0
LINE
  5
A4
330
9F
100
AcDbEntity
  8
CENTER
 62
     0
100
AcDbLine
 10
0.0
 20
0.0
 30
0.0
 11
0.0
 21
-2.5
 31
0.0
  0
LINE
  5
A5
330
9F
100
AcDbEntity
  8
CENTER
 62
     0
100
AcDbLine
 10
0.0
 20
0.0
 30
0.0
 11
2.5
 21
0.0
 31
0.0
  0
LINE
  5
A6
330
9F
100
AcDbEntity
  8
CENTER
 62
     0
100
AcDbLine
 10
0.0
 20
2.5
 30
0.0
 11
0.0
 21
3.5
 31
0.0
  0
LINE
  5
A7
330
9F
100
AcDbEntity
  8
CENTER
 62
     0
100
AcDbLine
 10
-2.5
 20
0.0
 30
0.0
 11
-3.5
 21
0.0
 31
0.0
  0
LINE
  5
A8
330
9F
100
AcDbEntity
  8
CENTER
 62
     0
100
AcDbLine
 10
0.0
 20
-2.5
 30
0.0
 11
0.0
 21
-3.5
 31
0.0
  0
LINE
  5
A9
330
9F
100
AcDbEntity
  8
CENTER
 62
     0
100
AcDbLine
 10
2.5
 20
0.0
 30
0.0
 11
3.5
 21
0.0
 31
0.0
  0
ENDBLK
  5
A1
330
9F
100
AcDbEntity
  8
0
100
AcDbBlockEnd
  0
BLOCK
  5
C6
330
C5
100
AcDbEntity
  8
0
100
AcDbBlockBegin
  2
SW_CENTERMARKSYMBOL_5
 70
     0
 10
0.0
 20
0.0
 30
0.0
  3
SW_CENTERMARKSYMBOL_5
  1

  0
LINE
  5
C8
330
C5
100
AcDbEntity
  8
CENTER
 62
     0
100
AcDbLine
 10
0.0
 20
0.0
 30
0.0
 11
0.0
 21
2.5
 31
0.0
  0
LINE
  5
C9
330
C5
100
AcDbEntity
  8
CENTER
 62
     0
100
AcDbLine
 10
0.0
 20
0.0
 30
0.0
 11
-2.5
 21
0.0
 31
0.0
  0
LINE
  5
CA
330
C5
100
AcDbEntity
  8
CENTER
 62
     0
100
AcDbLine
 10
0.0
 20
0.0
 30
0.0
 11
0.0
 21
-2.5
 31
0.0
  0
LINE
  5
CB
330
C5
100
AcDbEntity
  8
CENTER
 62
     0
100
AcDbLine
 10
0.0
 20
0.0
 30
0.0
 11
2.5
 21
0.0
 31
0.0
  0
LINE
  5
CC
330
C5
100
AcDbEntity
  8
CENTER
 62
     0
100
AcDbLine
 10
0.0
 20
5.0
 30
0.0
 11
0.0
 21
7.5
 31
0.0
  0
LINE
  5
CD
330
C5
100
AcDbEntity
  8
CENTER
 62
     0
100
AcDbLine
 10
-5.0
 20
0.0
 30
0.0
 11
-7.5
 21
0.0
 31
0.0
  0
LINE
  5
CE
330
C5
100
AcDbEntity
  8
CENTER
 62
     0
100
AcDbLine
 10
0.0
 20
-5.0
 30
0.0
 11
0.0
 21
-7.5
 31
0.0
  0
LINE
  5
CF
330
C5
100
AcDbEntity
  8
CENTER
 62
     0
100
AcDbLine
 10
5.0
 20
0.0
 30
0.0
 11
7.5
 21
0.0
 31
0.0
  0
ENDBLK
  5
C7
330
C5
100
AcDbEntity
  8
0
100
AcDbBlockEnd
  0
BLOCK
  5
D2
330
D1
100
AcDbEntity
  8
0
100
AcDbBlockBegin
  2
SW_CENTERMARKSYMBOL_6
 70
     0
 10
0.0
 20
0.0
 30
0.0
  3
SW_CENTERMARKSYMBOL_6
  1

  0
LINE
  5
D4
330
D1
100
AcDbEntity
  8
CENTER
 62
     0
100
AcDbLine
 10
0.0
 20
0.0
 30
0.0
 11
0.0
 21
2.5
 31
0.0
  0
LINE
  5
D5
330
D1
100
AcDbEntity
  8
CENTER
 62
     0
100
AcDbLine
 10
0.0
 20
0.0
 30
0.0
 11
-2.5
 21
0.0
 31
0.0
  0
LINE
  5
D6
330
D1
100
AcDbEntity
  8
CENTER
 62
     0
100
AcDbLine
 10
0.0
 20
0.0
 30
0.0
 11
0.0
 21
-2.5
 31
0.0
  0
LINE
  5
D7
330
D1
100
AcDbEntity
  8
CENTER
 62
     0
100
AcDbLine
 10
0.0
 20
0.0
 30
0.0
 11
2.5
 21
0.0
 31
0.0
  0
LINE
  5
D8
330
D1
100
AcDbEntity
  8
CENTER
 62
     0
100
AcDbLine
 10
0.0
 20
2.5
 30
0.0
 11
0.0
 21
3.65
 31
0.0
  0
LINE
  5
D9
330
D1
100
AcDbEntity
  8
CENTER
 62
     0
100
AcDbLine
 10
-2.5
 20
0.0
 30
0.0
 11
-3.65
 21
0.0
 31
0.0
  0
LINE
  5
DA
330
D1
100
AcDbEntity
  8
CENTER
 62
     0
100
AcDbLine
 10
0.0
 20
-2.5
 30
0.0
 11
0.0
 21
-3.65
 31
0.0
  0
LINE
  5
DB
330
D1
100
AcDbEntity
  8
CENTER
 62
     0
100
AcDbLine
 10
2.5
 20
0.0
 30
0.0
 11
3.65
 21
0.0
 31
0.0
  0
ENDBLK
  5
D3
330
D1
100
AcDbEntity
  8
0
100
AcDbBlockEnd
  0
BLOCK
  5
DE
330
DD
100
AcDbEntity
  8
0
100
AcDbBlockBegin
  2
SW_CENTERMARKSYMBOL_7
 70
     0
 10
0.0
 20
0.0
 30
0.0
  3
SW_CENTERMARKSYMBOL_7
  1

  0
LINE
  5
E0
330
DD
100
AcDbEntity
  8
CENTER
 62
     0
100
AcDbLine
 10
0.0
 20
0.0
 30
0.0
 11
0.0
 21
2.5
 31
0.0
  0
LINE
  5
E1
330
DD
100
AcDbEntity
  8
CENTER
 62
     0
100
AcDbLine
 10
0.0
 20
0.0
 30
0.0
 11
-2.5
 21
0.0
 31
0.0
  0
LINE
  5
E2
330
DD
100
AcDbEntity
  8
CENTER
 62
     0
100
AcDbLine
 10
0.0
 20
0.0
 30
0.0
 11
0.0
 21
-2.5
 31
0.0
  0
LINE
  5
E3
330
DD
100
AcDbEntity
  8
CENTER
 62
     0
100
AcDbLine
 10
0.0
 20
0.0
 30
0.0
 11
2.5
 21
0.0
 31
0.0
  0
LINE
  5
E4
330
DD
100
AcDbEntity
  8
CENTER
 62
     0
100
AcDbLine
 10
0.0
 20
2.5
 30
0.0
 11
0.0
 21
3.65
 31
0.0
  0
LINE
  5
E5
330
DD
100
AcDbEntity
  8
CENTER
 62
     0
100
AcDbLine
 10
-2.5
 20
0.0
 30
0.0
 11
-3.65
 21
0.0
 31
0.0
  0
LINE
  5
E6
330
DD
100
AcDbEntity
  8
CENTER
 62
     0
100
AcDbLine
 10
0.0
 20
-2.5
 30
0.0
 11
0.0
 21
-3.65
 31
0.0
  0
LINE
  5
E7
330
DD
100
AcDbEntity
  8
CENTER
 62
     0
100
AcDbLine
 10
2.5
 20
0.0
 30
0.0
 11
3.65
 21
0.0
 31
0.0
  0
ENDBLK
  5
DF
330
DD
100
AcDbEntity
  8
0
100
AcDbBlockEnd
  0
BLOCK
  5
EA
330
E9
100
AcDbEntity
  8
0
100
AcDbBlockBegin
  2
SW_CENTERMARKSYMBOL_8
 70
     0
 10
0.0
 20
0.0
 30
0.0
  3
SW_CENTERMARKSYMBOL_8
  1

  0
LINE
  5
EC
330
E9
100
AcDbEntity
  8
CENTER
 62
     0
100
AcDbLine
 10
0.0
 20
0.0
 30
0.0
 11
0.0
 21
2.5
 31
0.0
  0
LINE
  5
ED
330
E9
100
AcDbEntity
  8
CENTER
 62
     0
100
AcDbLine
 10
0.0
 20
0.0
 30
0.0
 11
-2.5
 21
0.0
 31
0.0
  0
LINE
  5
EE
330
E9
100
AcDbEntity
  8
CENTER
 62
     0
100
AcDbLine
 10
0.0
 20
0.0
 30
0.0
 11
0.0
 21
-2.5
 31
0.0
  0
LINE
  5
EF
330
E9
100
AcDbEntity
  8
CENTER
 62
     0
100
AcDbLine
 10
0.0
 20
0.0
 30
0.0
 11
2.5
 21
0.0
 31
0.0
  0
LINE
  5
F0
330
E9
100
AcDbEntity
  8
CENTER
 62
     0
100
AcDbLine
 10
0.0
 20
2.5
 30
0.0
 11
0.0
 21
3.65
 31
0.0
  0
LINE
  5
F1
330
E9
100
AcDbEntity
  8
CENTER
 62
     0
100
AcDbLine
 10
-2.5
 20
0.0
 30
0.0
 11
-3.65
 21
0.0
 31
0.0
  0
LINE
  5
F2
330
E9
100
AcDbEntity
  8
CENTER
 62
     0
100
AcDbLine
 10
0.0
 20
-2.5
 30
0.0
 11
0.0
 21
-3.65
 31
0.0
  0
LINE
  5
F3
330
E9
100
AcDbEntity
  8
CENTER
 62
     0
100
AcDbLine
 10
2.5
 20
0.0
 30
0.0
 11
3.65
 21
0.0
 31
0.0
  0
ENDBLK
  5
EB
330
E9
100
AcDbEntity
  8
0
100
AcDbBlockEnd
  0
BLOCK
  5
F6
330
F5
100
AcDbEntity
  8
0
100
AcDbBlockBegin
  2
SW_CENTERMARKSYMBOL_9
 70
     0
 10
0.0
 20
0.0
 30
0.0
  3
SW_CENTERMARKSYMBOL_9
  1

  0
LINE
  5
F8
330
F5
100
AcDbEntity
  8
CENTER
 62
     0
100
AcDbLine
 10
0.0
 20
0.0
 30
0.0
 11
0.0
 21
2.5
 31
0.0
  0
LINE
  5
F9
330
F5
100
AcDbEntity
  8
CENTER
 62
     0
100
AcDbLine
 10
0.0
 20
0.0
 30
0.0
 11
-2.5
 21
0.0
 31
0.0
  0
LINE
  5
FA
330
F5
100
AcDbEntity
  8
CENTER
 62
     0
100
AcDbLine
 10
0.0
 20
0.0
 30
0.0
 11
0.0
 21
-2.5
 31
0.0
  0
LINE
  5
FB
330
F5
100
AcDbEntity
  8
CENTER
 62
     0
100
AcDbLine
 10
0.0
 20
0.0
 30
0.0
 11
2.5
 21
0.0
 31
0.0
  0
LINE
  5
FC
330
F5
100
AcDbEntity
  8
CENTER
 62
     0
100
AcDbLine
 10
0.0
 20
2.5
 30
0.0
 11
0.0
 21
3.65
 31
0.0
  0
LINE
  5
FD
330
F5
100
AcDbEntity
  8
CENTER
 62
     0
100
AcDbLine
 10
-2.5
 20
0.0
 30
0.0
 11
-3.65
 21
0.0
 31
0.0
  0
LINE
  5
FE
330
F5
100
AcDbEntity
  8
CENTER
 62
     0
100
AcDbLine
 10
0.0
 20
-2.5
 30
0.0
 11
0.0
 21
-3.65
 31
0.0
  0
LINE
  5
FF
330
F5
100
AcDbEntity
  8
CENTER
 62
     0
100
AcDbLine
 10
2.5
 20
0.0
 30
0.0
 11
3.65
 21
0.0
 31
0.0
  0
ENDBLK
  5
F7
330
F5
100
AcDbEntity
  8
0
100
AcDbBlockEnd
  0
BLOCK
  5
117
330
116
100
AcDbEntity
  8
0
100
AcDbBlockBegin
  2
SW_CENTERMARKSYMBOL_10
 70
     0
 10
0.0
 20
0.0
 30
0.0
  3
SW_CENTERMARKSYMBOL_10
  1

  0
LINE
  5
119
330
116
100
AcDbEntity
  8
CENTER
 62
     0
100
AcDbLine
 10
0.0
 20
0.0
 30
0.0
 11
0.0
 21
2.5
 31
0.0
  0
LINE
  5
11A
330
116
100
AcDbEntity
  8
CENTER
 62
     0
100
AcDbLine
 10
0.0
 20
0.0
 30
0.0
 11
-2.5
 21
0.0
 31
0.0
  0
LINE
  5
11B
330
116
100
AcDbEntity
  8
CENTER
 62
     0
100
AcDbLine
 10
0.0
 20
0.0
 30
0.0
 11
0.0
 21
-2.5
 31
0.0
  0
LINE
  5
11C
330
116
100
AcDbEntity
  8
CENTER
 62
     0
100
AcDbLine
 10
0.0
 20
0.0
 30
0.0
 11
2.5
 21
0.0
 31
0.0
  0
LINE
  5
11D
330
116
100
AcDbEntity
  8
CENTER
 62
     0
100
AcDbLine
 10
0.0
 20
2.5
 30
0.0
 11
0.0
 21
4.8
 31
0.0
  0
LINE
  5
11E
330
116
100
AcDbEntity
  8
CENTER
 62
     0
100
AcDbLine
 10
-2.5
 20
0.0
 30
0.0
 11
-4.8
 21
0.0
 31
0.0
  0
LINE
  5
11F
330
116
100
AcDbEntity
  8
CENTER
 62
     0
100
AcDbLine
 10
0.0
 20
-2.5
 30
0.0
 11
0.0
 21
-4.8
 31
0.0
  0
LINE
  5
120
330
116
100
AcDbEntity
  8
CENTER
 62
     0
100
AcDbLine
 10
2.5
 20
0.0
 30
0.0
 11
4.8
 21
0.0
 31
0.0
  0
ENDBLK
  5
118
330
116
100
AcDbEntity
  8
0
100
AcDbBlockEnd
  0
BLOCK
  5
12C
330
12B
100
AcDbEntity
  8
0
100
AcDbBlockBegin
  2
SW_CENTERMARKSYMBOL_11
 70
     0
 10
0.0
 20
0.0
 30
0.0
  3
SW_CENTERMARKSYMBOL_11
  1

  0
LINE
  5
12E
330
12B
100
AcDbEntity
  8
CENTER
 62
     0
100
AcDbLine
 10
0.0
 20
0.0
 30
0.0
 11
0.0
 21
2.5
 31
0.0
  0
LINE
  5
12F
330
12B
100
AcDbEntity
  8
CENTER
 62
     0
100
AcDbLine
 10
0.0
 20
0.0
 30
0.0
 11
-2.5
 21
0.0
 31
0.0
  0
LINE
  5
130
330
12B
100
AcDbEntity
  8
CENTER
 62
     0
100
AcDbLine
 10
0.0
 20
0.0
 30
0.0
 11
0.0
 21
-2.5
 31
0.0
  0
LINE
  5
131
330
12B
100
AcDbEntity
  8
CENTER
 62
     0
100
AcDbLine
 10
0.0
 20
0.0
 30
0.0
 11
2.5
 21
0.0
 31
0.0
  0
LINE
  5
132
330
12B
100
AcDbEntity
  8
CENTER
 62
     0
100
AcDbLine
 10
0.0
 20
2.5
 30
0.0
 11
0.0
 21
4.8
 31
0.0
  0
LINE
  5
133
330
12B
100
AcDbEntity
  8
CENTER
 62
     0
100
AcDbLine
 10
-2.5
 20
0.0
 30
0.0
 11
-4.8
 21
0.0
 31
0.0
  0
LINE
  5
134
330
12B
100
AcDbEntity
  8
CENTER
 62
     0
100
AcDbLine
 10
0.0
 20
-2.5
 30
0.0
 11
0.0
 21
-4.8
 31
0.0
  0
LINE
  5
135
330
12B
100
AcDbEntity
  8
CENTER
 62
     0
100
AcDbLine
 10
2.5
 20
0.0
 30
0.0
 11
4.8
 21
0.0
 31
0.0
  0
ENDBLK
  5
12D
330
12B
100
AcDbEntity
  8
0
100
AcDbBlockEnd
  0
BLOCK
  5
183
330
182
100
AcDbEntity
  8
0
100
AcDbBlockBegin
  2
SW_CENTERMARKSYMBOL_12
 70
     0
 10
0.0
 20
0.0
 30
0.0
  3
SW_CENTERMARKSYMBOL_12
  1

  0
LINE
  5
185
330
182
100
AcDbEntity
  8
CENTER
 62
     0
100
AcDbLine
 10
0.0
 20
0.0
 30
0.0
 11
0.0
 21
2.5
 31
0.0
  0
LINE
  5
186
330
182
100
AcDbEntity
  8
CENTER
 62
     0
100
AcDbLine
 10
0.0
 20
0.0
 30
0.0
 11
-2.5
 21
0.0
 31
0.0
  0
LINE
  5
187
330
182
100
AcDbEntity
  8
CENTER
 62
     0
100
AcDbLine
 10
0.0
 20
0.0
 30
0.0
 11
0.0
 21
-2.5
 31
0.0
  0
LINE
  5
188
330
182
100
AcDbEntity
  8
CENTER
 62
     0
100
AcDbLine
 10
0.0
 20
0.0
 30
0.0
 11
2.5
 21
0.0
 31
0.0
  0
LINE
  5
189
330
182
100
AcDbEntity
  8
CENTER
 62
     0
100
AcDbLine
 10
0.0
 20
2.5
 30
0.0
 11
0.0
 21
4.8
 31
0.0
  0
LINE
  5
18A
330
182
100
AcDbEntity
  8
CENTER
 62
     0
100
AcDbLine
 10
-2.5
 20
0.0
 30
0.0
 11
-4.8
 21
0.0
 31
0.0
  0
LINE
  5
18B
330
182
100
AcDbEntity
  8
CENTER
 62
     0
100
AcDbLine
 10
0.0
 20
-2.5
 30
0.0
 11
0.0
 21
-4.8
 31
0.0
  0
LINE
  5
18C
330
182
100
AcDbEntity
  8
CENTER
 62
     0
100
AcDbLine
 10
2.5
 20
0.0
 30
0.0
 11
4.8
 21
0.0
 31
0.0
  0
ENDBLK
  5
184
330
182
100
AcDbEntity
  8
0
100
AcDbBlockEnd
  0
BLOCK
  5
1C5
330
1C4
100
AcDbEntity
  8
0
100
AcDbBlockBegin
  2
SW_CENTERMARKSYMBOL_13
 70
     0
 10
0.0
 20
0.0
 30
0.0
  3
SW_CENTERMARKSYMBOL_13
  1

  0
LINE
  5
1C7
330
1C4
100
AcDbEntity
  8
CENTER
 62
     0
100
AcDbLine
 10
0.0
 20
0.0
 30
0.0
 11
0.0
 21
2.5
 31
0.0
  0
LINE
  5
1C8
330
1C4
100
AcDbEntity
  8
CENTER
 62
     0
100
AcDbLine
 10
0.0
 20
0.0
 30
0.0
 11
-2.5
 21
0.0
 31
0.0
  0
LINE
  5
1C9
330
1C4
100
AcDbEntity
  8
CENTER
 62
     0
100
AcDbLine
 10
0.0
 20
0.0
 30
0.0
 11
0.0
 21
-2.5
 31
0.0
  0
LINE
  5
1CA
330
1C4
100
AcDbEntity
  8
CENTER
 62
     0
100
AcDbLine
 10
0.0
 20
0.0
 30
0.0
 11
2.5
 21
0.0
 31
0.0
  0
LINE
  5
1CB
330
1C4
100
AcDbEntity
  8
CENTER
 62
     0
100
AcDbLine
 10
0.0
 20
2.5
 30
0.0
 11
0.0
 21
4.8
 31
0.0
  0
LINE
  5
1CC
330
1C4
100
AcDbEntity
  8
CENTER
 62
     0
100
AcDbLine
 10
-2.5
 20
0.0
 30
0.0
 11
-4.8
 21
0.0
 31
0.0
  0
LINE
  5
1CD
330
1C4
100
AcDbEntity
  8
CENTER
 62
     0
100
AcDbLine
 10
0.0
 20
-2.5
 30
0.0
 11
0.0
 21
-4.8
 31
0.0
  0
LINE
  5
1CE
330
1C4
100
AcDbEntity
  8
CENTER
 62
     0
100
AcDbLine
 10
2.5
 20
0.0
 30
0.0
 11
4.8
 21
0.0
 31
0.0
  0
ENDBLK
  5
1C6
330
1C4
100
AcDbEntity
  8
0
100
AcDbBlockEnd
  0
BLOCK
  5
1D1
330
1D0
100
AcDbEntity
  8
0
100
AcDbBlockBegin
  2
SW_CENTERMARKSYMBOL_14
 70
     0
 10
0.0
 20
0.0
 30
0.0
  3
SW_CENTERMARKSYMBOL_14
  1

  0
LINE
  5
1D3
330
1D0
100
AcDbEntity
  8
CENTER
 62
     0
100
AcDbLine
 10
0.0
 20
0.0
 30
0.0
 11
0.0
 21
2.5
 31
0.0
  0
LINE
  5
1D4
330
1D0
100
AcDbEntity
  8
CENTER
 62
     0
100
AcDbLine
 10
0.0
 20
0.0
 30
0.0
 11
-2.5
 21
0.0
 31
0.0
  0
LINE
  5
1D5
330
1D0
100
AcDbEntity
  8
CENTER
 62
     0
100
AcDbLine
 10
0.0
 20
0.0
 30
0.0
 11
0.0
 21
-2.5
 31
0.0
  0
LINE
  5
1D6
330
1D0
100
AcDbEntity
  8
CENTER
 62
     0
100
AcDbLine
 10
0.0
 20
0.0
 30
0.0
 11
2.5
 21
0.0
 31
0.0
  0
LINE
  5
1D7
330
1D0
100
AcDbEntity
  8
CENTER
 62
     0
100
AcDbLine
 10
0.0
 20
2.5
 30
0.0
 11
0.0
 21
4.8
 31
0.0
  0
LINE
  5
1D8
330
1D0
100
AcDbEntity
  8
CENTER
 62
     0
100
AcDbLine
 10
-2.5
 20
0.0
 30
0.0
 11
-4.8
 21
0.0
 31
0.0
  0
LINE
  5
1D9
330
1D0
100
AcDbEntity
  8
CENTER
 62
     0
100
AcDbLine
 10
0.0
 20
-2.5
 30
0.0
 11
0.0
 21
-4.8
 31
0.0
  0
LINE
  5
1DA
330
1D0
100
AcDbEntity
  8
CENTER
 62
     0
100
AcDbLine
 10
2.5
 20
0.0
 30
0.0
 11
4.8
 21
0.0
 31
0.0
  0
ENDBLK
  5
1D2
330
1D0
100
AcDbEntity
  8
0
100
AcDbBlockEnd
  0
BLOCK
  5
1DD
330
1DC
100
AcDbEntity
  8
0
100
AcDbBlockBegin
  2
SW_CENTERMARKSYMBOL_15
 70
     0
 10
0.0
 20
0.0
 30
0.0
  3
SW_CENTERMARKSYMBOL_15
  1

  0
LINE
  5
1DF
330
1DC
100
AcDbEntity
  8
CENTER
 62
     0
100
AcDbLine
 10
0.0
 20
0.0
 30
0.0
 11
0.0
 21
2.5
 31
0.0
  0
LINE
  5
1E0
330
1DC
100
AcDbEntity
  8
CENTER
 62
     0
100
AcDbLine
 10
0.0
 20
0.0
 30
0.0
 11
-2.5
 21
0.0
 31
0.0
  0
LINE
  5
1E1
330
1DC
100
AcDbEntity
  8
CENTER
 62
     0
100
AcDbLine
 10
0.0
 20
0.0
 30
0.0
 11
0.0
 21
-2.5
 31
0.0
  0
LINE
  5
1E2
330
1DC
100
AcDbEntity
  8
CENTER
 62
     0
100
AcDbLine
 10
0.0
 20
0.0
 30
0.0
 11
2.5
 21
0.0
 31
0.0
  0
LINE
  5
1E3
330
1DC
100
AcDbEntity
  8
CENTER
 62
     0
100
AcDbLine
 10
0.0
 20
2.5
 30
0.0
 11
0.0
 21
4.8
 31
0.0
  0
LINE
  5
1E4
330
1DC
100
AcDbEntity
  8
CENTER
 62
     0
100
AcDbLine
 10
-2.5
 20
0.0
 30
0.0
 11
-4.8
 21
0.0
 31
0.0
  0
LINE
  5
1E5
330
1DC
100
AcDbEntity
  8
CENTER
 62
     0
100
AcDbLine
 10
0.0
 20
-2.5
 30
0.0
 11
0.0
 21
-4.8
 31
0.0
  0
LINE
  5
1E6
330
1DC
100
AcDbEntity
  8
CENTER
 62
     0
100
AcDbLine
 10
2.5
 20
0.0
 30
0.0
 11
4.8
 21
0.0
 31
0.0
  0
ENDBLK
  5
1DE
330
1DC
100
AcDbEntity
  8
0
100
AcDbBlockEnd
  0
BLOCK
  5
1E9
330
1E8
100
AcDbEntity
  8
0
100
AcDbBlockBegin
  2
SW_CENTERMARKSYMBOL_16
 70
     0
 10
0.0
 20
0.0
 30
0.0
  3
SW_CENTERMARKSYMBOL_16
  1

  0
LINE
  5
1EB
330
1E8
100
AcDbEntity
  8
CENTER
 62
     0
100
AcDbLine
 10
0.0
 20
0.0
 30
0.0
 11
0.0
 21
2.5
 31
0.0
  0
LINE
  5
1EC
330
1E8
100
AcDbEntity
  8
CENTER
 62
     0
100
AcDbLine
 10
0.0
 20
0.0
 30
0.0
 11
-2.5
 21
0.0
 31
0.0
  0
LINE
  5
1ED
330
1E8
100
AcDbEntity
  8
CENTER
 62
     0
100
AcDbLine
 10
0.0
 20
0.0
 30
0.0
 11
0.0
 21
-2.5
 31
0.0
  0
LINE
  5
1EE
330
1E8
100
AcDbEntity
  8
CENTER
 62
     0
100
AcDbLine
 10
0.0
 20
0.0
 30
0.0
 11
2.5
 21
0.0
 31
0.0
  0
LINE
  5
1EF
330
1E8
100
AcDbEntity
  8
CENTER
 62
     0
100
AcDbLine
 10
0.0
 20
2.5
 30
0.0
 11
0.0
 21
4.8
 31
0.0
  0
LINE
  5
1F0
330
1E8
100
AcDbEntity
  8
CENTER
 62
     0
100
AcDbLine
 10
-2.5
 20
0.0
 30
0.0
 11
-4.8
 21
0.0
 31
0.0
  0
LINE
  5
1F1
330
1E8
100
AcDbEntity
  8
CENTER
 62
     0
100
AcDbLine
 10
0.0
 20
-2.5
 30
0.0
 11
0.0
 21
-4.8
 31
0.0
  0
LINE
  5
1F2
330
1E8
100
AcDbEntity
  8
CENTER
 62
     0
100
AcDbLine
 10
2.5
 20
0.0
 30
0.0
 11
4.8
 21
0.0
 31
0.0
  0
ENDBLK
  5
1EA
330
1E8
100
AcDbEntity
  8
0
100
AcDbBlockEnd
  0
BLOCK
  5
22B
330
22A
100
AcDbEntity
  8
0
100
AcDbBlockBegin
  2
SW_CENTERMARKSYMBOL_17
 70
     0
 10
0.0
 20
0.0
 30
0.0
  3
SW_CENTERMARKSYMBOL_17
  1

  0
LINE
  5
22D
330
22A
100
AcDbEntity
  8
CENTER
 62
     0
100
AcDbLine
 10
0.0
 20
0.0
 30
0.0
 11
0.0
 21
2.5
 31
0.0
  0
LINE
  5
22E
330
22A
100
AcDbEntity
  8
CENTER
 62
     0
100
AcDbLine
 10
0.0
 20
0.0
 30
0.0
 11
-2.5
 21
0.0
 31
0.0
  0
LINE
  5
22F
330
22A
100
AcDbEntity
  8
CENTER
 62
     0
100
AcDbLine
 10
0.0
 20
0.0
 30
0.0
 11
0.0
 21
-2.5
 31
0.0
  0
LINE
  5
230
330
22A
100
AcDbEntity
  8
CENTER
 62
     0
100
AcDbLine
 10
0.0
 20
0.0
 30
0.0
 11
2.5
 21
0.0
 31
0.0
  0
LINE
  5
231
330
22A
100
AcDbEntity
  8
CENTER
 62
     0
100
AcDbLine
 10
0.0
 20
5.0
 30
0.0
 11
0.0
 21
35.0
 31
0.0
  0
LINE
  5
232
330
22A
100
AcDbEntity
  8
CENTER
 62
     0
100
AcDbLine
 10
-5.0
 20
0.0
 30
0.0
 11
-35.0
 21
0.0
 31
0.0
  0
LINE
  5
233
330
22A
100
AcDbEntity
  8
CENTER
 62
     0
100
AcDbLine
 10
0.0
 20
-5.0
 30
0.0
 11
0.0
 21
-35.0
 31
0.0
  0
LINE
  5
234
330
22A
100
AcDbEntity
  8
CENTER
 62
     0
100
AcDbLine
 10
5.0
 20
0.0
 30
0.0
 11
35.0
 21
0.0
 31
0.0
  0
ENDBLK
  5
22C
330
22A
100
AcDbEntity
  8
0
100
AcDbBlockEnd
  0
BLOCK
  5
237
330
236
100
AcDbEntity
  8
0
100
AcDbBlockBegin
  2
SW_CENTERMARKSYMBOL_18
 70
     0
 10
0.0
 20
0.0
 30
0.0
  3
SW_CENTERMARKSYMBOL_18
  1

  0
LINE
  5
239
330
236
100
AcDbEntity
  8
CENTER
 62
     0
100
AcDbLine
 10
0.0
 20
0.0
 30
0.0
 11
0.0
 21
2.5
 31
0.0
  0
LINE
  5
23A
330
236
100
AcDbEntity
  8
CENTER
 62
     0
100
AcDbLine
 10
0.0
 20
0.0
 30
0.0
 11
-2.5
 21
0.0
 31
0.0
  0
LINE
  5
23B
330
236
100
AcDbEntity
  8
CENTER
 62
     0
100
AcDbLine
 10
0.0
 20
0.0
 30
0.0
 11
0.0
 21
-2.5
 31
0.0
  0
LINE
  5
23C
330
236
100
AcDbEntity
  8
CENTER
 62
     0
100
AcDbLine
 10
0.0
 20
0.0
 30
0.0
 11
2.5
 21
0.0
 31
0.0
  0
LINE
  5
23D
330
236
100
AcDbEntity
  8
CENTER
 62
     0
100
AcDbLine
 10
0.0
 20
2.5
 30
0.0
 11
0.0
 21
4.5
 31
0.0
  0
LINE
  5
23E
330
236
100
AcDbEntity
  8
CENTER
 62
     0
100
AcDbLine
 10
-2.5
 20
0.0
 30
0.0
 11
-4.5
 21
0.0
 31
0.0
  0
LINE
  5
23F
330
236
100
AcDbEntity
  8
CENTER
 62
     0
100
AcDbLine
 10
0.0
 20
-2.5
 30
0.0
 11
0.0
 21
-4.5
 31
0.0
  0
LINE
  5
240
330
236
100
AcDbEntity
  8
CENTER
 62
     0
100
AcDbLine
 10
2.5
 20
0.0
 30
0.0
 11
4.5
 21
0.0
 31
0.0
  0
ENDBLK
  5
238
330
236
100
AcDbEntity
  8
0
100
AcDbBlockEnd
  0
BLOCK
  5
243
330
242
100
AcDbEntity
  8
0
100
AcDbBlockBegin
  2
SW_CENTERMARKSYMBOL_19
 70
     0
 10
0.0
 20
0.0
 30
0.0
  3
SW_CENTERMARKSYMBOL_19
  1

  0
LINE
  5
245
330
242
100
AcDbEntity
  8
CENTER
 62
     0
100
AcDbLine
 10
0.0
 20
0.0
 30
0.0
 11
0.0
 21
2.5
 31
0.0
  0
LINE
  5
246
330
242
100
AcDbEntity
  8
CENTER
 62
     0
100
AcDbLine
 10
0.0
 20
0.0
 30
0.0
 11
-2.5
 21
0.0
 31
0.0
  0
LINE
  5
247
330
242
100
AcDbEntity
  8
CENTER
 62
     0
100
AcDbLine
 10
0.0
 20
0.0
 30
0.0
 11
0.0
 21
-2.5
 31
0.0
  0
LINE
  5
248
330
242
100
AcDbEntity
  8
CENTER
 62
     0
100
AcDbLine
 10
0.0
 20
0.0
 30
0.0
 11
2.5
 21
0.0
 31
0.0
  0
LINE
  5
249
330
242
100
AcDbEntity
  8
CENTER
 62
     0
100
AcDbLine
 10
0.0
 20
2.5
 30
0.0
 11
0.0
 21
4.5
 31
0.0
  0
LINE
  5
24A
330
242
100
AcDbEntity
  8
CENTER
 62
     0
100
AcDbLine
 10
-2.5
 20
0.0
 30
0.0
 11
-4.5
 21
0.0
 31
0.0
  0
LINE
  5
24B
330
242
100
AcDbEntity
  8
CENTER
 62
     0
100
AcDbLine
 10
0.0
 20
-2.5
 30
0.0
 11
0.0
 21
-4.5
 31
0.0
  0
LINE
  5
24C
330
242
100
AcDbEntity
  8
CENTER
 62
     0
100
AcDbLine
 10
2.5
 20
0.0
 30
0.0
 11
4.5
 21
0.0
 31
0.0
  0
ENDBLK
  5
244
330
242
100
AcDbEntity
  8
0
100
AcDbBlockEnd
  0
BLOCK
  5
24F
330
24E
100
AcDbEntity
  8
0
100
AcDbBlockBegin
  2
SW_CENTERMARKSYMBOL_20
 70
     0
 10
0.0
 20
0.0
 30
0.0
  3
SW_CENTERMARKSYMBOL_20
  1

  0
LINE
  5
251
330
24E
100
AcDbEntity
  8
CENTER
 62
     0
100
AcDbLine
 10
0.0
 20
0.0
 30
0.0
 11
0.0
 21
2.5
 31
0.0
  0
LINE
  5
252
330
24E
100
AcDbEntity
  8
CENTER
 62
     0
100
AcDbLine
 10
0.0
 20
0.0
 30
0.0
 11
-2.5
 21
0.0
 31
0.0
  0
LINE
  5
253
330
24E
100
AcDbEntity
  8
CENTER
 62
     0
100
AcDbLine
 10
0.0
 20
0.0
 30
0.0
 11
0.0
 21
-2.5
 31
0.0
  0
LINE
  5
254
330
24E
100
AcDbEntity
  8
CENTER
 62
     0
100
AcDbLine
 10
0.0
 20
0.0
 30
0.0
 11
2.5
 21
0.0
 31
0.0
  0
LINE
  5
255
330
24E
100
AcDbEntity
  8
CENTER
 62
     0
100
AcDbLine
 10
0.0
 20
2.5
 30
0.0
 11
0.0
 21
4.5
 31
0.0
  0
LINE
  5
256
330
24E
100
AcDbEntity
  8
CENTER
 62
     0
100
AcDbLine
 10
-2.5
 20
0.0
 30
0.0
 11
-4.5
 21
0.0
 31
0.0
  0
LINE
  5
257
330
24E
100
AcDbEntity
  8
CENTER
 62
     0
100
AcDbLine
 10
0.0
 20
-2.5
 30
0.0
 11
0.0
 21
-4.5
 31
0.0
  0
LINE
  5
258
330
24E
100
AcDbEntity
  8
CENTER
 62
     0
100
AcDbLine
 10
2.5
 20
0.0
 30
0.0
 11
4.5
 21
0.0
 31
0.0
  0
ENDBLK
  5
250
330
24E
100
AcDbEntity
  8
0
100
AcDbBlockEnd
  0
BLOCK
  5
25B
330
25A
100
AcDbEntity
  8
0
100
AcDbBlockBegin
  2
SW_CENTERMARKSYMBOL_21
 70
     0
 10
0.0
 20
0.0
 30
0.0
  3
SW_CENTERMARKSYMBOL_21
  1

  0
LINE
  5
25D
330
25A
100
AcDbEntity
  8
CENTER
 62
     0
100
AcDbLine
 10
0.0
 20
0.0
 30
0.0
 11
0.0
 21
2.5
 31
0.0
  0
LINE
  5
25E
330
25A
100
AcDbEntity
  8
CENTER
 62
     0
100
AcDbLine
 10
0.0
 20
0.0
 30
0.0
 11
-2.5
 21
0.0
 31
0.0
  0
LINE
  5
25F
330
25A
100
AcDbEntity
  8
CENTER
 62
     0
100
AcDbLine
 10
0.0
 20
0.0
 30
0.0
 11
0.0
 21
-2.5
 31
0.0
  0
LINE
  5
260
330
25A
100
AcDbEntity
  8
CENTER
 62
     0
100
AcDbLine
 10
0.0
 20
0.0
 30
0.0
 11
2.5
 21
0.0
 31
0.0
  0
LINE
  5
261
330
25A
100
AcDbEntity
  8
CENTER
 62
     0
100
AcDbLine
 10
0.0
 20
2.5
 30
0.0
 11
0.0
 21
4.5
 31
0.0
  0
LINE
  5
262
330
25A
100
AcDbEntity
  8
CENTER
 62
     0
100
AcDbLine
 10
-2.5
 20
0.0
 30
0.0
 11
-4.5
 21
0.0
 31
0.0
  0
LINE
  5
263
330
25A
100
AcDbEntity
  8
CENTER
 62
     0
100
AcDbLine
 10
0.0
 20
-2.5
 30
0.0
 11
0.0
 21
-4.5
 31
0.0
  0
LINE
  5
264
330
25A
100
AcDbEntity
  8
CENTER
 62
     0
100
AcDbLine
 10
2.5
 20
0.0
 30
0.0
 11
4.5
 21
0.0
 31
0.0
  0
ENDBLK
  5
25C
330
25A
100
AcDbEntity
  8
0
100
AcDbBlockEnd
  0
BLOCK
  5
267
330
266
100
AcDbEntity
  8
0
100
AcDbBlockBegin
  2
SW_CENTERMARKSYMBOL_22
 70
     0
 10
0.0
 20
0.0
 30
0.0
  3
SW_CENTERMARKSYMBOL_22
  1

  0
LINE
  5
269
330
266
100
AcDbEntity
  8
CENTER
 62
     0
100
AcDbLine
 10
0.0
 20
0.0
 30
0.0
 11
0.0
 21
2.5
 31
0.0
  0
LINE
  5
26A
330
266
100
AcDbEntity
  8
CENTER
 62
     0
100
AcDbLine
 10
0.0
 20
0.0
 30
0.0
 11
-2.5
 21
0.0
 31
0.0
  0
LINE
  5
26B
330
266
100
AcDbEntity
  8
CENTER
 62
     0
100
AcDbLine
 10
0.0
 20
0.0
 30
0.0
 11
0.0
 21
-2.5
 31
0.0
  0
LINE
  5
26C
330
266
100
AcDbEntity
  8
CENTER
 62
     0
100
AcDbLine
 10
0.0
 20
0.0
 30
0.0
 11
2.5
 21
0.0
 31
0.0
  0
LINE
  5
26D
330
266
100
AcDbEntity
  8
CENTER
 62
     0
100
AcDbLine
 10
0.0
 20
2.5
 30
0.0
 11
0.0
 21
4.5
 31
0.0
  0
LINE
  5
26E
330
266
100
AcDbEntity
  8
CENTER
 62
     0
100
AcDbLine
 10
-2.5
 20
0.0
 30
0.0
 11
-4.5
 21
0.0
 31
0.0
  0
LINE
  5
26F
330
266
100
AcDbEntity
  8
CENTER
 62
     0
100
AcDbLine
 10
0.0
 20
-2.5
 30
0.0
 11
0.0
 21
-4.5
 31
0.0
  0
LINE
  5
270
330
266
100
AcDbEntity
  8
CENTER
 62
     0
100
AcDbLine
 10
2.5
 20
0.0
 30
0.0
 11
4.5
 21
0.0
 31
0.0
  0
ENDBLK
  5
268
330
266
100
AcDbEntity
  8
0
100
AcDbBlockEnd
  0
BLOCK
  5
273
330
272
100
AcDbEntity
  8
0
100
AcDbBlockBegin
  2
SW_CENTERMARKSYMBOL_23
 70
     0
 10
0.0
 20
0.0
 30
0.0
  3
SW_CENTERMARKSYMBOL_23
  1

  0
LINE
  5
275
330
272
100
AcDbEntity
  8
CENTER
 62
     0
100
AcDbLine
 10
0.0
 20
0.0
 30
0.0
 11
0.0
 21
2.5
 31
0.0
  0
LINE
  5
276
330
272
100
AcDbEntity
  8
CENTER
 62
     0
100
AcDbLine
 10
0.0
 20
0.0
 30
0.0
 11
-2.5
 21
0.0
 31
0.0
  0
LINE
  5
277
330
272
100
AcDbEntity
  8
CENTER
 62
     0
100
AcDbLine
 10
0.0
 20
0.0
 30
0.0
 11
0.0
 21
-2.5
 31
0.0
  0
LINE
  5
278
330
272
100
AcDbEntity
  8
CENTER
 62
     0
100
AcDbLine
 10
0.0
 20
0.0
 30
0.0
 11
2.5
 21
0.0
 31
0.0
  0
LINE
  5
279
330
272
100
AcDbEntity
  8
CENTER
 62
     0
100
AcDbLine
 10
0.0
 20
2.5
 30
0.0
 11
0.0
 21
4.5
 31
0.0
  0
LINE
  5
27A
330
272
100
AcDbEntity
  8
CENTER
 62
     0
100
AcDbLine
 10
-2.5
 20
0.0
 30
0.0
 11
-4.5
 21
0.0
 31
0.0
  0
LINE
  5
27B
330
272
100
AcDbEntity
  8
CENTER
 62
     0
100
AcDbLine
 10
0.0
 20
-2.5
 30
0.0
 11
0.0
 21
-4.5
 31
0.0
  0
LINE
  5
27C
330
272
100
AcDbEntity
  8
CENTER
 62
     0
100
AcDbLine
 10
2.5
 20
0.0
 30
0.0
 11
4.5
 21
0.0
 31
0.0
  0
ENDBLK
  5
274
330
272
100
AcDbEntity
  8
0
100
AcDbBlockEnd
  0
BLOCK
  5
27F
330
27E
100
AcDbEntity
  8
0
100
AcDbBlockBegin
  2
SW_CENTERMARKSYMBOL_24
 70
     0
 10
0.0
 20
0.0
 30
0.0
  3
SW_CENTERMARKSYMBOL_24
  1

  0
LINE
  5
281
330
27E
100
AcDbEntity
  8
CENTER
 62
     0
100
AcDbLine
 10
0.0
 20
0.0
 30
0.0
 11
0.0
 21
2.5
 31
0.0
  0
LINE
  5
282
330
27E
100
AcDbEntity
  8
CENTER
 62
     0
100
AcDbLine
 10
0.0
 20
0.0
 30
0.0
 11
-2.5
 21
0.0
 31
0.0
  0
LINE
  5
283
330
27E
100
AcDbEntity
  8
CENTER
 62
     0
100
AcDbLine
 10
0.0
 20
0.0
 30
0.0
 11
0.0
 21
-2.5
 31
0.0
  0
LINE
  5
284
330
27E
100
AcDbEntity
  8
CENTER
 62
     0
100
AcDbLine
 10
0.0
 20
0.0
 30
0.0
 11
2.5
 21
0.0
 31
0.0
  0
LINE
  5
285
330
27E
100
AcDbEntity
  8
CENTER
 62
     0
100
AcDbLine
 10
0.0
 20
2.5
 30
0.0
 11
0.0
 21
4.8
 31
0.0
  0
LINE
  5
286
330
27E
100
AcDbEntity
  8
CENTER
 62
     0
100
AcDbLine
 10
-2.5
 20
0.0
 30
0.0
 11
-4.8
 21
0.0
 31
0.0
  0
LINE
  5
287
330
27E
100
AcDbEntity
  8
CENTER
 62
     0
100
AcDbLine
 10
0.0
 20
-2.5
 30
0.0
 11
0.0
 21
-4.8
 31
0.0
  0
LINE
  5
288
330
27E
100
AcDbEntity
  8
CENTER
 62
     0
100
AcDbLine
 10
2.5
 20
0.0
 30
0.0
 11
4.8
 21
0.0
 31
0.0
  0
ENDBLK
  5
280
330
27E
100
AcDbEntity
  8
0
100
AcDbBlockEnd
  0
BLOCK
  5
2A4
330
2A3
100
AcDbEntity
  8
0
100
AcDbBlockBegin
  2
SW_CENTERMARKSYMBOL_25
 70
     0
 10
0.0
 20
0.0
 30
0.0
  3
SW_CENTERMARKSYMBOL_25
  1

  0
LINE
  5
2A6
330
2A3
100
AcDbEntity
  8
CENTER
 62
     0
100
AcDbLine
 10
0.0
 20
0.0
 30
0.0
 11
0.0
 21
2.5
 31
0.0
  0
LINE
  5
2A7
330
2A3
100
AcDbEntity
  8
CENTER
 62
     0
100
AcDbLine
 10
0.0
 20
0.0
 30
0.0
 11
-2.5
 21
0.0
 31
0.0
  0
LINE
  5
2A8
330
2A3
100
AcDbEntity
  8
CENTER
 62
     0
100
AcDbLine
 10
0.0
 20
0.0
 30
0.0
 11
0.0
 21
-2.5
 31
0.0
  0
LINE
  5
2A9
330
2A3
100
AcDbEntity
  8
CENTER
 62
     0
100
AcDbLine
 10
0.0
 20
0.0
 30
0.0
 11
2.5
 21
0.0
 31
0.0
  0
LINE
  5
2AA
330
2A3
100
AcDbEntity
  8
CENTER
 62
     0
100
AcDbLine
 10
0.0
 20
5.0
 30
0.0
 11
0.0
 21
10.0
 31
0.0
  0
LINE
  5
2AB
330
2A3
100
AcDbEntity
  8
CENTER
 62
     0
100
AcDbLine
 10
-5.0
 20
0.0
 30
0.0
 11
-10.0
 21
0.0
 31
0.0
  0
LINE
  5
2AC
330
2A3
100
AcDbEntity
  8
CENTER
 62
     0
100
AcDbLine
 10
0.0
 20
-5.0
 30
0.0
 11
0.0
 21
-10.0
 31
0.0
  0
LINE
  5
2AD
330
2A3
100
AcDbEntity
  8
CENTER
 62
     0
100
AcDbLine
 10
5.0
 20
0.0
 30
0.0
 11
10.0
 21
0.0
 31
0.0
  0
ENDBLK
  5
2A5
330
2A3
100
AcDbEntity
  8
0
100
AcDbBlockEnd
  0
BLOCK
  5
2B0
330
2AF
100
AcDbEntity
  8
0
100
AcDbBlockBegin
  2
SW_CENTERMARKSYMBOL_26
 70
     0
 10
0.0
 20
0.0
 30
0.0
  3
SW_CENTERMARKSYMBOL_26
  1

  0
LINE
  5
2B2
330
2AF
100
AcDbEntity
  8
CENTER
 62
     0
100
AcDbLine
 10
0.0
 20
0.0
 30
0.0
 11
0.0
 21
2.5
 31
0.0
  0
LINE
  5
2B3
330
2AF
100
AcDbEntity
  8
CENTER
 62
     0
100
AcDbLine
 10
0.0
 20
0.0
 30
0.0
 11
-2.5
 21
0.0
 31
0.0
  0
LINE
  5
2B4
330
2AF
100
AcDbEntity
  8
CENTER
 62
     0
100
AcDbLine
 10
0.0
 20
0.0
 30
0.0
 11
0.0
 21
-2.5
 31
0.0
  0
LINE
  5
2B5
330
2AF
100
AcDbEntity
  8
CENTER
 62
     0
100
AcDbLine
 10
0.0
 20
0.0
 30
0.0
 11
2.5
 21
0.0
 31
0.0
  0
LINE
  5
2B6
330
2AF
100
AcDbEntity
  8
CENTER
 62
     0
100
AcDbLine
 10
0.0
 20
2.5
 30
0.0
 11
0.0
 21
4.8
 31
0.0
  0
LINE
  5
2B7
330
2AF
100
AcDbEntity
  8
CENTER
 62
     0
100
AcDbLine
 10
-2.5
 20
0.0
 30
0.0
 11
-4.8
 21
0.0
 31
0.0
  0
LINE
  5
2B8
330
2AF
100
AcDbEntity
  8
CENTER
 62
     0
100
AcDbLine
 10
0.0
 20
-2.5
 30
0.0
 11
0.0
 21
-4.8
 31
0.0
  0
LINE
  5
2B9
330
2AF
100
AcDbEntity
  8
CENTER
 62
     0
100
AcDbLine
 10
2.5
 20
0.0
 30
0.0
 11
4.8
 21
0.0
 31
0.0
  0
ENDBLK
  5
2B1
330
2AF
100
AcDbEntity
  8
0
100
AcDbBlockEnd
  0
BLOCK
  5
2BC
330
2BB
100
AcDbEntity
  8
0
100
AcDbBlockBegin
  2
SW_CENTERMARKSYMBOL_27
 70
     0
 10
0.0
 20
0.0
 30
0.0
  3
SW_CENTERMARKSYMBOL_27
  1

  0
LINE
  5
2BE
330
2BB
100
AcDbEntity
  8
CENTER
 62
     0
100
AcDbLine
 10
0.0
 20
0.0
 30
0.0
 11
0.0
 21
2.5
 31
0.0
  0
LINE
  5
2BF
330
2BB
100
AcDbEntity
  8
CENTER
 62
     0
100
AcDbLine
 10
0.0
 20
0.0
 30
0.0
 11
-2.5
 21
0.0
 31
0.0
  0
LINE
  5
2C0
330
2BB
100
AcDbEntity
  8
CENTER
 62
     0
100
AcDbLine
 10
0.0
 20
0.0
 30
0.0
 11
0.0
 21
-2.5
 31
0.0
  0
LINE
  5
2C1
330
2BB
100
AcDbEntity
  8
CENTER
 62
     0
100
AcDbLine
 10
0.0
 20
0.0
 30
0.0
 11
2.5
 21
0.0
 31
0.0
  0
LINE
  5
2C2
330
2BB
100
AcDbEntity
  8
CENTER
 62
     0
100
AcDbLine
 10
0.0
 20
2.5
 30
0.0
 11
0.0
 21
4.8
 31
0.0
  0
LINE
  5
2C3
330
2BB
100
AcDbEntity
  8
CENTER
 62
     0
100
AcDbLine
 10
-2.5
 20
0.0
 30
0.0
 11
-4.8
 21
0.0
 31
0.0
  0
LINE
  5
2C4
330
2BB
100
AcDbEntity
  8
CENTER
 62
     0
100
AcDbLine
 10
0.0
 20
-2.5
 30
0.0
 11
0.0
 21
-4.8
 31
0.0
  0
LINE
  5
2C5
330
2BB
100
AcDbEntity
  8
CENTER
 62
     0
100
AcDbLine
 10
2.5
 20
0.0
 30
0.0
 11
4.8
 21
0.0
 31
0.0
  0
ENDBLK
  5
2BD
330
2BB
100
AcDbEntity
  8
0
100
AcDbBlockEnd
  0
BLOCK
  5
2C8
330
2C7
100
AcDbEntity
  8
0
100
AcDbBlockBegin
  2
SW_CENTERMARKSYMBOL_28
 70
     0
 10
0.0
 20
0.0
 30
0.0
  3
SW_CENTERMARKSYMBOL_28
  1

  0
LINE
  5
2CA
330
2C7
100
AcDbEntity
  8
CENTER
 62
     0
100
AcDbLine
 10
0.0
 20
0.0
 30
0.0
 11
0.0
 21
2.5
 31
0.0
  0
LINE
  5
2CB
330
2C7
100
AcDbEntity
  8
CENTER
 62
     0
100
AcDbLine
 10
0.0
 20
0.0
 30
0.0
 11
-2.5
 21
0.0
 31
0.0
  0
LINE
  5
2CC
330
2C7
100
AcDbEntity
  8
CENTER
 62
     0
100
AcDbLine
 10
0.0
 20
0.0
 30
0.0
 11
0.0
 21
-2.5
 31
0.0
  0
LINE
  5
2CD
330
2C7
100
AcDbEntity
  8
CENTER
 62
     0
100
AcDbLine
 10
0.0
 20
0.0
 30
0.0
 11
2.5
 21
0.0
 31
0.0
  0
LINE
  5
2CE
330
2C7
100
AcDbEntity
  8
CENTER
 62
     0
100
AcDbLine
 10
0.0
 20
2.5
 30
0.0
 11
0.0
 21
4.8
 31
0.0
  0
LINE
  5
2CF
330
2C7
100
AcDbEntity
  8
CENTER
 62
     0
100
AcDbLine
 10
-2.5
 20
0.0
 30
0.0
 11
-4.8
 21
0.0
 31
0.0
  0
LINE
  5
2D0
330
2C7
100
AcDbEntity
  8
CENTER
 62
     0
100
AcDbLine
 10
0.0
 20
-2.5
 30
0.0
 11
0.0
 21
-4.8
 31
0.0
  0
LINE
  5
2D1
330
2C7
100
AcDbEntity
  8
CENTER
 62
     0
100
AcDbLine
 10
2.5
 20
0.0
 30
0.0
 11
4.8
 21
0.0
 31
0.0
  0
ENDBLK
  5
2C9
330
2C7
100
AcDbEntity
  8
0
100
AcDbBlockEnd
  0
BLOCK
  5
2D4
330
2D3
100
AcDbEntity
  8
0
100
AcDbBlockBegin
  2
SW_CENTERMARKSYMBOL_29
 70
     0
 10
0.0
 20
0.0
 30
0.0
  3
SW_CENTERMARKSYMBOL_29
  1

  0
LINE
  5
2D6
330
2D3
100
AcDbEntity
  8
CENTER
 62
     0
100
AcDbLine
 10
0.0
 20
0.0
 30
0.0
 11
0.0
 21
2.5
 31
0.0
  0
LINE
  5
2D7
330
2D3
100
AcDbEntity
  8
CENTER
 62
     0
100
AcDbLine
 10
0.0
 20
0.0
 30
0.0
 11
-2.5
 21
0.0
 31
0.0
  0
LINE
  5
2D8
330
2D3
100
AcDbEntity
  8
CENTER
 62
     0
100
AcDbLine
 10
0.0
 20
0.0
 30
0.0
 11
0.0
 21
-2.5
 31
0.0
  0
LINE
  5
2D9
330
2D3
100
AcDbEntity
  8
CENTER
 62
     0
100
AcDbLine
 10
0.0
 20
0.0
 30
0.0
 11
2.5
 21
0.0
 31
0.0
  0
LINE
  5
2DA
330
2D3
100
AcDbEntity
  8
CENTER
 62
     0
100
AcDbLine
 10
0.0
 20
2.5
 30
0.0
 11
0.0
 21
4.8
 31
0.0
  0
LINE
  5
2DB
330
2D3
100
AcDbEntity
  8
CENTER
 62
     0
100
AcDbLine
 10
-2.5
 20
0.0
 30
0.0
 11
-4.8
 21
0.0
 31
0.0
  0
LINE
  5
2DC
330
2D3
100
AcDbEntity
  8
CENTER
 62
     0
100
AcDbLine
 10
0.0
 20
-2.5
 30
0.0
 11
0.0
 21
-4.8
 31
0.0
  0
LINE
  5
2DD
330
2D3
100
AcDbEntity
  8
CENTER
 62
     0
100
AcDbLine
 10
2.5
 20
0.0
 30
0.0
 11
4.8
 21
0.0
 31
0.0
  0
ENDBLK
  5
2D5
330
2D3
100
AcDbEntity
  8
0
100
AcDbBlockEnd
  0
BLOCK
  5
345
330
344
100
AcDbEntity
  8
0
100
AcDbBlockBegin
  2
SW_CENTERMARKSYMBOL_30
 70
     0
 10
0.0
 20
0.0
 30
0.0
  3
SW_CENTERMARKSYMBOL_30
  1

  0
LINE
  5
347
330
344
100
AcDbEntity
  8
CENTER
 62
     0
100
AcDbLine
 10
0.0
 20
0.0
 30
0.0
 11
0.0
 21
2.5
 31
0.0
  0
LINE
  5
348
330
344
100
AcDbEntity
  8
CENTER
 62
     0
100
AcDbLine
 10
0.0
 20
0.0
 30
0.0
 11
-2.5
 21
0.0
 31
0.0
  0
LINE
  5
349
330
344
100
AcDbEntity
  8
CENTER
 62
     0
100
AcDbLine
 10
0.0
 20
0.0
 30
0.0
 11
0.0
 21
-2.5
 31
0.0
  0
LINE
  5
34A
330
344
100
AcDbEntity
  8
CENTER
 62
     0
100
AcDbLine
 10
0.0
 20
0.0
 30
0.0
 11
2.5
 21
0.0
 31
0.0
  0
LINE
  5
34B
330
344
100
AcDbEntity
  8
CENTER
 62
     0
100
AcDbLine
 10
0.0
 20
2.5
 30
0.0
 11
0.0
 21
4.8
 31
0.0
  0
LINE
  5
34C
330
344
100
AcDbEntity
  8
CENTER
 62
     0
100
AcDbLine
 10
-2.5
 20
0.0
 30
0.0
 11
-4.8
 21
0.0
 31
0.0
  0
LINE
  5
34D
330
344
100
AcDbEntity
  8
CENTER
 62
     0
100
AcDbLine
 10
0.0
 20
-2.5
 30
0.0
 11
0.0
 21
-4.8
 31
0.0
  0
LINE
  5
34E
330
344
100
AcDbEntity
  8
CENTER
 62
     0
100
AcDbLine
 10
2.5
 20
0.0
 30
0.0
 11
4.8
 21
0.0
 31
0.0
  0
ENDBLK
  5
346
330
344
100
AcDbEntity
  8
0
100
AcDbBlockEnd
  0
ENDSEC
  0
SECTION
  2
ENTITIES
  0
LINE
  5
46
330
1F
100
AcDbEntity
  8
0
  6
Continuous
 62
     7
370
    15
100
AcDbLine
 10
36.4286390603
 20
715.6998249288
 30
0.0
 11
48.832112517
 21
737.4059034832
 31
0.0
  0
LINE
  5
47
330
1F
100
AcDbEntity
  8
0
  6
Continuous
 62
     7
370
    15
100
AcDbLine
 10
48.832112517
 20
737.4059034832
 30
0.0
 11
46.2273830941
 21
738.8943202992
 31
0.0
  0
LINE
  5
48
330
1F
100
AcDbEntity
  8
0
  6
Continuous
 62
     7
370
    15
100
AcDbLine
 10
46.2273830941
 20
738.8943202992
 30
0.0
 11
56.15016186
 21
756.2591831395
 31
0.0
  0
LINE
  5
49
330
1F
100
AcDbEntity
  8
0
  6
Continuous
 62
     7
370
    15
100
AcDbLine
 10
36.4286390603
 20
715.6998249288
 30
0.0
 11
36.4286390603
 21
710.6998249288
 31
0.0
  0
LINE
  5
4A
330
1F
100
AcDbEntity
  8
0
  6
Continuous
 62
     7
370
    15
100
AcDbLine
 10
36.4286390603
 20
690.6998249288
 30
0.0
 11
36.4286390603
 21
685.6998249288
 31
0.0
  0
LINE
  5
4B
330
1F
100
AcDbEntity
  8
0
  6
Continuous
 62
     7
370
    15
100
AcDbLine
 10
36.4286390603
 20
685.6998249288
 30
0.0
 11
76.4286390603
 21
755.6998249288
 31
0.0
  0
LINE
  5
4C
330
1F
100
AcDbEntity
  8
0
  6
Continuous
 62
     7
370
    15
100
AcDbLine
 10
76.4286390603
 20
755.6998249288
 30
0.0
 11
76.4286390603
 21
760.6998249288
 31
0.0
  0
LINE
  5
4D
330
1F
100
AcDbEntity
  8
0
  6
Continuous
 62
     7
370
    15
100
AcDbLine
 10
76.4286390603
 20
760.6998249288
 30
0.0
 11
79.4286390603
 21
760.6998249288
 31
0.0
  0
LINE
  5
4E
330
1F
100
AcDbEntity
  8
0
  6
Continuous
 62
     7
370
    15
100
AcDbLine
 10
79.4286390603
 20
760.6998249288
 30
0.0
 11
79.4286390603
 21
780.6998249288
 31
0.0
  0
LINE
  5
4F
330
1F
100
AcDbEntity
  8
0
  6
Continuous
 62
     7
370
    15
100
AcDbLine
 10
79.4286390603
 20
780.6998249288
 30
0.0
 11
76.4286390603
 21
780.6998249288
 31
0.0
  0
LINE
  5
50
330
1F
100
AcDbEntity
  8
0
  6
Continuous
 62
     7
370
    15
100
AcDbLine
 10
76.4286390603
 20
780.6998249288
 30
0.0
 11
76.4286390603
 21
785.6998249288
 31
0.0
  0
LINE
  5
51
330
1F
100
AcDbEntity
  8
0
  6
Continuous
 62
     7
370
    15
100
AcDbLine
 10
76.4286390603
 20
785.6998249288
 30
0.0
 11
58.7548912863
 21
754.7707663244
 31
0.0
  0
LINE
  5
52
330
1F
100
AcDbEntity
  8
0
  6
Continuous
 62
     7
370
    15
100
AcDbLine
 10
58.7548912863
 20
754.7707663244
 30
0.0
 11
56.15016186
 21
756.2591831395
 31
0.0
  0
LINE
  5
53
330
1F
100
AcDbEntity
  8
0
  6
Continuous
 62
     7
370
    15
100
AcDbLine
 10
36.4286390603
 20
710.6998249288
 30
0.0
 11
33.4286390603
 21
710.6998249288
 31
0.0
  0
LINE
  5
54
330
1F
100
AcDbEntity
  8
0
  6
Continuous
 62
     7
370
    15
100
AcDbLine
 10
33.4286390603
 20
710.6998249288
 30
0.0
 11
33.4286390603
 21
690.6998249288
 31
0.0
  0
LINE
  5
55
330
1F
100
AcDbEntity
  8
0
  6
Continuous
 62
     7
370
    15
100
AcDbLine
 10
33.4286390603
 20
690.6998249288
 30
0.0
 11
36.4286390603
 21
690.6998249288
 31
0.0
  0
LINE
  5
56
330
1F
100
AcDbEntity
  8
0
  6
Continuous
 62
     7
370
    15
100
AcDbLine
 10
164.0106000168
 20
782.0522170509
 30
0.0
 11
176.9336769377
 21
774.6676016675
 31
0.0
  0
LINE
  5
57
330
1F
100
AcDbEntity
  8
0
  6
Continuous
 62
     7
370
    15
100
AcDbLine
 10
164.0106000168
 20
782.0522170509
 30
0.0
 11
162.5221832017
 21
779.4474876245
 31
0.0
  0
LINE
  5
58
330
1F
100
AcDbEntity
  8
0
  6
Continuous
 62
     7
370
    15
100
AcDbLine
 10
176.9336769377
 20
774.6676016675
 30
0.0
 11
147.638015051
 21
723.4001933608
 31
0.0
  0
LINE
  5
59
330
1F
100
AcDbEntity
  8
0
  6
Continuous
 62
     7
370
    15
100
AcDbLine
 10
147.638015051
 20
728.4001933608
 30
0.0
 11
147.638015051
 21
723.4001933608
 31
0.0
  0
LINE
  5
5A
330
1F
100
AcDbEntity
  8
0
  6
Continuous
 62
     7
370
    15
100
AcDbLine
 10
144.638015051
 20
728.4001933608
 30
0.0
 11
147.638015051
 21
728.4001933608
 31
0.0
  0
LINE
  5
5B
330
1F
100
AcDbEntity
  8
0
  6
Continuous
 62
     7
370
    15
100
AcDbLine
 10
144.638015051
 20
748.4001933608
 30
0.0
 11
144.638015051
 21
728.4001933608
 31
0.0
  0
LINE
  5
5C
330
1F
100
AcDbEntity
  8
0
  6
Continuous
 62
     7
370
    15
100
AcDbLine
 10
147.638015051
 20
748.4001933608
 30
0.0
 11
144.638015051
 21
748.4001933608
 31
0.0
  0
LINE
  5
5D
330
1F
100
AcDbEntity
  8
0
  6
Continuous
 62
     7
370
    15
100
AcDbLine
 10
147.638015051
 20
753.4001933608
 30
0.0
 11
147.638015051
 21
748.4001933608
 31
0.0
  0
LINE
  5
5E
330
1F
100
AcDbEntity
  8
0
  6
Continuous
 62
     7
370
    15
100
AcDbLine
 10
152.5994044346
 20
762.082624782
 30
0.0
 11
147.638015051
 21
753.4001933608
 31
0.0
  0
LINE
  5
5F
330
1F
100
AcDbEntity
  8
0
  6
Continuous
 62
     7
370
    15
100
AcDbLine
 10
149.9946750082
 20
763.5710415971
 30
0.0
 11
152.5994044346
 21
762.082624782
 31
0.0
  0
LINE
  5
60
330
1F
100
AcDbEntity
  8
0
  6
Continuous
 62
     7
370
    15
100
AcDbLine
 10
159.9174537753
 20
780.9359044396
 30
0.0
 11
149.9946750082
 21
763.5710415971
 31
0.0
  0
LINE
  5
61
330
1F
100
AcDbEntity
  8
0
  6
Continuous
 62
     7
370
    15
100
AcDbLine
 10
162.5221832017
 20
779.4474876245
 30
0.0
 11
159.9174537753
 21
780.9359044396
 31
0.0
  0
LINE
  5
62
330
1F
100
AcDbEntity
  8
0
  6
Continuous
 62
     7
370
    15
100
AcDbLine
 10
275.6749954427
 20
783.2401724146
 30
0.0
 11
227.500584324
 21
717.0040333864
 31
0.0
  0
LINE
  5
63
330
1F
100
AcDbEntity
  8
0
  6
Continuous
 62
     7
370
    15
100
AcDbLine
 10
278.6749954427
 20
778.2401724146
 30
0.0
 11
278.6749954427
 21
758.2401724146
 31
0.0
  0
LINE
  5
64
330
1F
100
AcDbEntity
  8
0
  6
Continuous
 62
     7
370
    15
100
AcDbLine
 10
263.1300907409
 20
700.6034422158
 30
0.0
 11
275.6749954427
 21
753.2401724146
 31
0.0
  0
ARC
  5
65
330
1F
100
AcDbEntity
  8
0
  6
Continuous
 62
     7
370
    15
100
AcDbCircle
 10
243.6749954427
 20
705.2401724146
 30
0.0
 40
19.99999999999998
100
AcDbArc
 50
143.9711139719
 51
346.5947810892
  0
CIRCLE
  5
66
330
1F
100
AcDbEntity
  8
0
  6
Continuous
 62
     7
370
    15
100
AcDbCircle
 10
243.6749954427
 20
721.7401724146
 30
0.0
 40
1.0
  0
CIRCLE
  5
67
330
1F
100
AcDbEntity
  8
0
  6
Continuous
 62
     7
370
    15
100
AcDbCircle
 10
227.1749954427
 20
705.2401724146
 30
0.0
 40
1.0
  0
CIRCLE
  5
68
330
1F
100
AcDbEntity
  8
0
  6
Continuous
 62
     7
370
    15
100
AcDbCircle
 10
243.6749954427
 20
688.7401724146
 30
0.0
 40
1.0
  0
CIRCLE
  5
69
330
1F
100
AcDbEntity
  8
0
  6
Continuous
 62
     7
370
    15
100
AcDbCircle
 10
260.1749954427
 20
705.2401724146
 30
0.0
 40
1.0
  0
CIRCLE
  5
6A
330
1F
100
AcDbEntity
  8
0
  6
Continuous
 62
     7
370
    15
100
AcDbCircle
 10
243.6749954427
 20
705.2401724146
 30
0.0
 40
4.999999999999972
  0
LINE
  5
6B
330
1F
100
AcDbEntity
  8
0
  6
Continuous
 62
     7
370
    15
100
AcDbLine
 10
275.6749954427
 20
753.2401724146
 30
0.0
 11
275.6749954427
 21
758.2401724146
 31
0.0
  0
LINE
  5
6C
330
1F
100
AcDbEntity
  8
0
  6
Continuous
 62
     7
370
    15
100
AcDbLine
 10
278.6749954427
 20
758.2401724146
 30
0.0
 11
275.6749954427
 21
758.2401724146
 31
0.0
  0
LINE
  5
6D
330
1F
100
AcDbEntity
  8
0
  6
Continuous
 62
     7
370
    15
100
AcDbLine
 10
278.6749954427
 20
778.2401724146
 30
0.0
 11
275.6749954427
 21
778.2401724146
 31
0.0
  0
LINE
  5
6E
330
1F
100
AcDbEntity
  8
0
  6
Continuous
 62
     7
370
    15
100
AcDbLine
 10
275.6749954427
 20
778.2401724146
 30
0.0
 11
275.6749954427
 21
783.2401724146
 31
0.0
  0
INSERT
  5
7A
330
1F
100
AcDbEntity
  8
CENTER
100
AcDbBlockReference
  2
SW_CENTERMARKSYMBOL_0
 10
243.6749954427
 20
705.2401724146
 30
0.0
  0
INSERT
  5
86
330
1F
100
AcDbEntity
  8
CENTER
100
AcDbBlockReference
  2
SW_CENTERMARKSYMBOL_1
 10
243.6749954427
 20
721.7401724146
 30
0.0
  0
INSERT
  5
92
330
1F
100
AcDbEntity
  8
CENTER
100
AcDbBlockReference
  2
SW_CENTERMARKSYMBOL_2
 10
227.1749954427
 20
705.2401724146
 30
0.0
  0
INSERT
  5
9E
330
1F
100
AcDbEntity
  8
CENTER
100
AcDbBlockReference
  2
SW_CENTERMARKSYMBOL_3
 10
243.6749954427
 20
688.7401724146
 30
0.0
  0
INSERT
  5
AA
330
1F
100
AcDbEntity
  8
CENTER
100
AcDbBlockReference
  2
SW_CENTERMARKSYMBOL_4
 10
260.1749954427
 20
705.2401724146
 30
0.0
  0
ARC
  5
AB
330
1F
100
AcDbEntity
  8
0
  6
Continuous
 62
     7
370
    15
100
AcDbCircle
 10
360.5591296687
 20
758.0653668792
 30
0.0
 40
14.49999999999994
100
AcDbArc
 50
287.3592664007
 51
325.0
  0
LINE
  5
AC
330
1F
100
AcDbEntity
  8
0
  6
Continuous
 62
     7
370
    15
100
AcDbLine
 10
377.7053018521
 20
757.2726599698
 30
0.0
 11
372.4368343109
 21
749.7485085521
 31
0.0
  0
ARC
  5
AD
330
1F
100
AcDbEntity
  8
0
  6
Continuous
 62
     7
370
    15
100
AcDbCircle
 10
402.2798631808
 20
740.0653668792
 30
0.0
 40
29.9999999999999
100
AcDbArc
 50
20.4713822836
 51
145.0
  0
ARC
  5
AE
330
1F
100
AcDbEntity
  8
0
  6
Continuous
 62
     7
370
    15
100
AcDbCircle
 10
421.0168030141
 20
747.0601567747
 30
0.0
 40
10.00000000000002
100
AcDbArc
 50
287.1173383486
 51
20.4713822836
  0
LINE
  5
AF
330
1F
100
AcDbEntity
  8
0
  6
Continuous
 62
     7
370
    15
100
AcDbLine
 10
423.9600984692
 20
737.5031168635
 30
0.0
 11
371.9901490142
 21
721.4978560871
 31
0.0
  0
LINE
  5
B0
330
1F
100
AcDbEntity
  8
0
  6
Continuous
 62
     7
370
    15
100
AcDbLine
 10
371.9901490142
 20
721.4978560871
 30
0.0
 11
364.8853832143
 21
744.2258029316
 31
0.0
  0
ARC
  5
B1
330
1F
100
AcDbEntity
  8
0
  6
Continuous
 62
     7
370
    15
100
AcDbCircle
 10
518.2257527832
 20
722.8984380897
 30
0.0
 40
10.00000000000006
100
AcDbArc
 50
123.2601722907
 51
173.3844947687
  0
LINE
  5
B2
330
1F
100
AcDbEntity
  8
0
  6
Continuous
 62
     7
370
    15
100
AcDbLine
 10
506.2104408654
 20
706.0997473163
 30
0.0
 11
508.2923365307
 21
724.0504977915
 31
0.0
  0
ARC
  5
B3
330
1F
100
AcDbEntity
  8
0
  6
Continuous
 62
     7
370
    15
100
AcDbCircle
 10
491.3103164868
 20
707.8278368689
 30
0.0
 40
15.00000000000028
100
AcDbArc
 50
167.0322788267
 51
353.3844947687
  0
LINE
  5
B4
330
1F
100
AcDbEntity
  8
0
  6
Continuous
 62
     7
370
    15
100
AcDbLine
 10
485.5163783275
 20
749.5111691802
 30
0.0
 11
476.6928668682
 21
711.1938681597
 31
0.0
  0
ARC
  5
B5
330
1F
100
AcDbEntity
  8
0
  6
Continuous
 62
     7
370
    15
100
AcDbCircle
 10
475.7714119151
 20
751.7551900407
 30
0.0
 40
9.99999999999989
100
AcDbArc
 50
347.0322788267
 51
26.0
  0
LINE
  5
B6
330
1F
100
AcDbEntity
  8
0
  6
Continuous
 62
     7
370
    15
100
AcDbLine
 10
471.6821720485
 20
782.9510945753
 30
0.0
 11
484.7593523781
 21
756.1389015086
 31
0.0
  0
ARC
  5
B7
330
1F
100
AcDbEntity
  8
0
  6
Continuous
 62
     7
370
    15
100
AcDbCircle
 10
473.4797601411
 20
783.8278368689
 30
0.0
 40
2.000000000000088
100
AcDbArc
 50
90.0
 51
206.0
  0
LINE
  5
B8
330
1F
100
AcDbEntity
  8
0
  6
Continuous
 62
     7
370
    15
100
AcDbLine
 10
473.4797601411
 20
785.8278368689
 30
0.0
 11
475.1486630519
 21
785.8278368689
 31
0.0
  0
ARC
  5
B9
330
1F
100
AcDbEntity
  8
0
  6
Continuous
 62
     7
370
    15
100
AcDbCircle
 10
475.1486630519
 20
783.8278368689
 30
0.0
 40
1.999999999999939
100
AcDbArc
 50
26.0
 51
90.0
  0
LINE
  5
BA
330
1F
100
AcDbEntity
  8
0
  6
Continuous
 62
     7
370
    15
100
AcDbLine
 10
488.2778028154
 20
761.4714552405
 30
0.0
 11
476.9462511445
 21
784.7045791625
 31
0.0
  0
ARC
  5
BB
330
1F
100
AcDbEntity
  8
0
  6
Continuous
 62
     7
370
    15
100
AcDbCircle
 10
501.3103164868
 20
767.8278368689
 30
0.0
 40
14.50000000000001
100
AcDbArc
 50
206.0
 51
325.0
  0
LINE
  5
BC
330
1F
100
AcDbEntity
  8
0
  6
Continuous
 62
     7
370
    15
100
AcDbLine
 10
518.4564886702
 20
767.0351299594
 30
0.0
 11
513.1880211289
 21
759.5109785418
 31
0.0
  0
ARC
  5
BD
330
1F
100
AcDbEntity
  8
0
  6
Continuous
 62
     7
370
    15
100
AcDbCircle
 10
543.0310499989
 20
749.8278368689
 30
0.0
 40
30.00000000000001
100
AcDbArc
 50
20.4713822836
 51
145.0
  0
ARC
  5
BE
330
1F
100
AcDbEntity
  8
0
  6
Continuous
 62
     7
370
    15
100
AcDbCircle
 10
561.7679898322
 20
756.8226267644
 30
0.0
 40
10.00000000000007
100
AcDbArc
 50
287.1173383486
 51
20.4713822836
  0
LINE
  5
BF
330
1F
100
AcDbEntity
  8
0
  6
Continuous
 62
     7
370
    15
100
AcDbLine
 10
564.7112852872
 20
747.2655868532
 30
0.0
 11
512.7413358322
 21
731.2603260768
 31
0.0
  0
CIRCLE
  5
C0
330
1F
100
AcDbEntity
  8
0
  6
Continuous
 62
     7
370
    15
100
AcDbCircle
 10
499.9819461722
 20
701.9072930933
 30
0.0
 40
1.149999999999977
  0
CIRCLE
  5
C1
330
1F
100
AcDbEntity
  8
0
  6
Continuous
 62
     7
370
    15
100
AcDbCircle
 10
485.3897727111
 20
699.1562071835
 30
0.0
 40
1.149999999999977
  0
CIRCLE
  5
C2
330
1F
100
AcDbEntity
  8
0
  6
Continuous
 62
     7
370
    15
100
AcDbCircle
 10
497.2308602624
 20
716.4994665543
 30
0.0
 40
1.149999999999977
  0
CIRCLE
  5
C3
330
1F
100
AcDbEntity
  8
0
  6
Continuous
 62
     7
370
    15
100
AcDbCircle
 10
482.6386868013
 20
713.7483806445
 30
0.0
 40
1.149999999999977
  0
CIRCLE
  5
C4
330
1F
100
AcDbEntity
  8
0
  6
Continuous
 62
     7
370
    15
100
AcDbCircle
 10
491.3103164868
 20
707.8278368689
 30
0.0
 40
5.0
  0
INSERT
  5
D0
330
1F
100
AcDbEntity
  8
CENTER
100
AcDbBlockReference
  2
SW_CENTERMARKSYMBOL_5
 10
491.3103164868
 20
707.8278368689
 30
0.0
  0
INSERT
  5
DC
330
1F
100
AcDbEntity
  8
CENTER
100
AcDbBlockReference
  2
SW_CENTERMARKSYMBOL_6
 10
499.9819461722
 20
701.9072930933
 30
0.0
  0
INSERT
  5
E8
330
1F
100
AcDbEntity
  8
CENTER
100
AcDbBlockReference
  2
SW_CENTERMARKSYMBOL_7
 10
485.3897727111
 20
699.1562071835
 30
0.0
  0
INSERT
  5
F4
330
1F
100
AcDbEntity
  8
CENTER
100
AcDbBlockReference
  2
SW_CENTERMARKSYMBOL_8
 10
497.2308602624
 20
716.4994665543
 30
0.0
  0
INSERT
  5
100
330
1F
100
AcDbEntity
  8
CENTER
100
AcDbBlockReference
  2
SW_CENTERMARKSYMBOL_9
 10
482.6386868013
 20
713.7483806445
 30
0.0
  0
LINE
  5
101
330
1F
100
AcDbEntity
  8
0
  6
Continuous
 62
     7
370
    15
100
AcDbLine
 10
544.4893841878
 20
476.3811948344
 30
0.0
 11
544.4893841878
 21
496.3811948344
 31
0.0
  0
LINE
  5
102
330
1F
100
AcDbEntity
  8
0
  6
Continuous
 62
     7
370
    15
100
AcDbLine
 10
544.4893841878
 20
496.3811948344
 30
0.0
 11
541.6893841878
 21
496.3811948344
 31
0.0
  0
LINE
  5
103
330
1F
100
AcDbEntity
  8
0
  6
Continuous
 62
     7
370
    15
100
AcDbLine
 10
541.6893841878
 20
496.3811948344
 30
0.0
 11
541.6893841878
 21
476.3811948344
 31
0.0
  0
LINE
  5
104
330
1F
100
AcDbEntity
  8
0
  6
Continuous
 62
     7
370
    15
100
AcDbLine
 10
541.6893841878
 20
476.3811948344
 30
0.0
 11
544.4893841878
 21
476.3811948344
 31
0.0
  0
ARC
  5
105
330
1F
100
AcDbEntity
  8
0
  6
Continuous
 62
     7
370
    15
100
AcDbCircle
 10
531.5893841878
 20
476.3811948344
 30
0.0
 40
5.0
100
AcDbArc
 50
180.0
 51
270.0
  0
LINE
  5
106
330
1F
100
AcDbEntity
  8
0
  6
Continuous
 62
     7
370
    15
100
AcDbLine
 10
526.5893841878
 20
529.9984899188
 30
0.0
 11
526.5893841878
 21
476.3811948344
 31
0.0
  0
ARC
  5
107
330
1F
100
AcDbEntity
  8
0
  6
Continuous
 62
     7
370
    15
100
AcDbCircle
 10
496.5893841878
 20
529.9984899188
 30
0.0
 40
30.00000000000006
100
AcDbArc
 50
0.0
 51
34.7348595398
  0
LINE
  5
108
330
1F
100
AcDbEntity
  8
0
  6
Continuous
 62
     7
370
    15
100
AcDbLine
 10
474.5893841878
 20
614.3811948344
 30
0.0
 11
521.2433101298
 21
547.0918785719
 31
0.0
  0
LINE
  5
109
330
1F
100
AcDbEntity
  8
0
  6
Continuous
 62
     7
370
    15
100
AcDbLine
 10
502.0893841878
 20
614.3811948344
 30
0.0
 11
474.5893841878
 21
614.3811948344
 31
0.0
  0
LINE
  5
10A
330
1F
100
AcDbEntity
  8
0
  6
Continuous
 62
     7
370
    15
100
AcDbLine
 10
502.0893841878
 20
617.3811948344
 30
0.0
 11
502.0893841878
 21
614.3811948344
 31
0.0
  0
LINE
  5
10B
330
1F
100
AcDbEntity
  8
0
  6
Continuous
 62
     7
370
    15
100
AcDbLine
 10
522.0893841878
 20
617.3811948344
 30
0.0
 11
502.0893841878
 21
617.3811948344
 31
0.0
  0
LINE
  5
10C
330
1F
100
AcDbEntity
  8
0
  6
Continuous
 62
     7
370
    15
100
AcDbLine
 10
522.0893841878
 20
614.3811948344
 30
0.0
 11
522.0893841878
 21
617.3811948344
 31
0.0
  0
LINE
  5
10D
330
1F
100
AcDbEntity
  8
0
  6
Continuous
 62
     7
370
    15
100
AcDbLine
 10
549.5893841878
 20
614.3811948344
 30
0.0
 11
522.0893841878
 21
614.3811948344
 31
0.0
  0
LINE
  5
10E
330
1F
100
AcDbEntity
  8
0
  6
Continuous
 62
     7
370
    15
100
AcDbLine
 10
549.5893841878
 20
476.3811948344
 30
0.0
 11
549.5893841878
 21
614.3811948344
 31
0.0
  0
ARC
  5
10F
330
1F
100
AcDbEntity
  8
0
  6
Continuous
 62
     7
370
    15
100
AcDbCircle
 10
544.5893841878
 20
476.3811948344
 30
0.0
 40
5.0
100
AcDbArc
 50
270.0
 51
0.0
  0
LINE
  5
110
330
1F
100
AcDbEntity
  8
0
  6
Continuous
 62
     7
370
    15
100
AcDbLine
 10
531.5893841878
 20
471.3811948344
 30
0.0
 11
544.5893841878
 21
471.3811948344
 31
0.0
  0
LINE
  5
111
330
1F
100
AcDbEntity
  8
0
  6
Continuous
 62
     7
370
    15
100
AcDbLine
 10
534.4893841878
 20
476.3811948344
 30
0.0
 11
534.4893841878
 21
496.3811948344
 31
0.0
  0
LINE
  5
112
330
1F
100
AcDbEntity
  8
0
  6
Continuous
 62
     7
370
    15
100
AcDbLine
 10
534.4893841878
 20
496.3811948344
 30
0.0
 11
531.6893841878
 21
496.3811948344
 31
0.0
  0
LINE
  5
113
330
1F
100
AcDbEntity
  8
0
  6
Continuous
 62
     7
370
    15
100
AcDbLine
 10
531.6893841878
 20
496.3811948344
 30
0.0
 11
531.6893841878
 21
476.3811948344
 31
0.0
  0
LINE
  5
114
330
1F
100
AcDbEntity
  8
0
  6
Continuous
 62
     7
370
    15
100
AcDbLine
 10
531.6893841878
 20
476.3811948344
 30
0.0
 11
534.4893841878
 21
476.3811948344
 31
0.0
  0
CIRCLE
  5
115
330
1F
100
AcDbEntity
  8
0
  6
Continuous
 62
     7
370
    15
100
AcDbCircle
 10
537.5893841878
 20
552.3811948344
 30
0.0
 40
2.299999999999955
  0
INSERT
  5
121
330
1F
100
AcDbEntity
  8
CENTER
100
AcDbBlockReference
  2
SW_CENTERMARKSYMBOL_10
 10
537.5893841878
 20
552.3811948344
 30
0.0
  0
LINE
  5
122
330
1F
100
AcDbEntity
  8
0
  6
Continuous
 62
     7
370
    15
100
AcDbLine
 10
333.195570536
 20
779.8630002196
 30
0.0
 11
285.0211594173
 21
713.6268611914
 31
0.0
  0
LINE
  5
123
330
1F
100
AcDbEntity
  8
0
  6
Continuous
 62
     7
370
    15
100
AcDbLine
 10
336.195570536
 20
774.8630002196
 30
0.0
 11
333.195570536
 21
774.8630002196
 31
0.0
  0
LINE
  5
124
330
1F
100
AcDbEntity
  8
0
  6
Continuous
 62
     7
370
    15
100
AcDbLine
 10
336.195570536
 20
774.8630002196
 30
0.0
 11
336.195570536
 21
754.8630002196
 31
0.0
  0
LINE
  5
125
330
1F
100
AcDbEntity
  8
0
  6
Continuous
 62
     7
370
    15
100
AcDbLine
 10
336.195570536
 20
754.8630002196
 30
0.0
 11
333.195570536
 21
754.8630002196
 31
0.0
  0
LINE
  5
126
330
1F
100
AcDbEntity
  8
0
  6
Continuous
 62
     7
370
    15
100
AcDbLine
 10
333.195570536
 20
749.8630002196
 30
0.0
 11
333.195570536
 21
754.8630002196
 31
0.0
  0
LINE
  5
127
330
1F
100
AcDbEntity
  8
0
  6
Continuous
 62
     7
370
    15
100
AcDbLine
 10
320.6506658342
 20
697.2262700208
 30
0.0
 11
333.195570536
 21
749.8630002196
 31
0.0
  0
ARC
  5
128
330
1F
100
AcDbEntity
  8
0
  6
Continuous
 62
     7
370
    15
100
AcDbCircle
 10
301.195570536
 20
701.8630002196
 30
0.0
 40
20.00000000000005
100
AcDbArc
 50
143.9711139719
 51
346.5947810892
  0
CIRCLE
  5
129
330
1F
100
AcDbEntity
  8
0
  6
Continuous
 62
     7
370
    15
100
AcDbCircle
 10
301.195570536
 20
701.8630002196
 30
0.0
 40
2.300000000000011
  0
LINE
  5
12A
330
1F
100
AcDbEntity
  8
0
  6
Continuous
 62
     7
370
    15
100
AcDbLine
 10
333.195570536
 20
774.8630002196
 30
0.0
 11
333.195570536
 21
779.8630002196
 31
0.0
  0
INSERT
  5
136
330
1F
100
AcDbEntity
  8
CENTER
100
AcDbBlockReference
  2
SW_CENTERMARKSYMBOL_11
 10
301.195570536
 20
701.8630002196
 30
0.0
  0
LINE
  5
137
330
1F
100
AcDbEntity
  8
0
  6
Continuous
 62
     7
370
    15
100
AcDbLine
 10
499.7623177754
 20
441.3369747856
 30
0.0
 11
499.7623177754
 21
421.3369747856
 31
0.0
  0
LINE
  5
138
330
1F
100
AcDbEntity
  8
0
  6
Continuous
 62
     7
370
    15
100
AcDbLine
 10
499.7623177754
 20
421.3369747856
 30
0.0
 11
502.5623177754
 21
421.3369747856
 31
0.0
  0
LINE
  5
139
330
1F
100
AcDbEntity
  8
0
  6
Continuous
 62
     7
370
    15
100
AcDbLine
 10
502.5623177754
 20
421.3369747856
 30
0.0
 11
502.5623177754
 21
441.3369747856
 31
0.0
  0
LINE
  5
13A
330
1F
100
AcDbEntity
  8
0
  6
Continuous
 62
     7
370
    15
100
AcDbLine
 10
502.5623177754
 20
441.3369747856
 30
0.0
 11
499.7623177754
 21
441.3369747856
 31
0.0
  0
LINE
  5
13B
330
1F
100
AcDbEntity
  8
0
  6
Continuous
 62
     7
370
    15
100
AcDbLine
 10
392.5623177754
 20
421.3369747856
 30
0.0
 11
392.5623177754
 21
441.3369747856
 31
0.0
  0
LINE
  5
13C
330
1F
100
AcDbEntity
  8
0
  6
Continuous
 62
     7
370
    15
100
AcDbLine
 10
392.5623177754
 20
441.3369747856
 30
0.0
 11
389.7623177754
 21
441.3369747856
 31
0.0
  0
LINE
  5
13D
330
1F
100
AcDbEntity
  8
0
  6
Continuous
 62
     7
370
    15
100
AcDbLine
 10
389.7623177754
 20
441.3369747856
 30
0.0
 11
389.7623177754
 21
421.3369747856
 31
0.0
  0
LINE
  5
13E
330
1F
100
AcDbEntity
  8
0
  6
Continuous
 62
     7
370
    15
100
AcDbLine
 10
389.7623177754
 20
421.3369747856
 30
0.0
 11
392.5623177754
 21
421.3369747856
 31
0.0
  0
LINE
  5
13F
330
1F
100
AcDbEntity
  8
0
  6
Continuous
 62
     7
370
    15
100
AcDbLine
 10
379.7623177754
 20
441.3369747856
 30
0.0
 11
379.7623177754
 21
421.3369747856
 31
0.0
  0
LINE
  5
140
330
1F
100
AcDbEntity
  8
0
  6
Continuous
 62
     7
370
    15
100
AcDbLine
 10
379.7623177754
 20
421.3369747856
 30
0.0
 11
382.5623177754
 21
421.3369747856
 31
0.0
  0
LINE
  5
141
330
1F
100
AcDbEntity
  8
0
  6
Continuous
 62
     7
370
    15
100
AcDbLine
 10
382.5623177754
 20
421.3369747856
 30
0.0
 11
382.5623177754
 21
441.3369747856
 31
0.0
  0
LINE
  5
142
330
1F
100
AcDbEntity
  8
0
  6
Continuous
 62
     7
370
    15
100
AcDbLine
 10
382.5623177754
 20
441.3369747856
 30
0.0
 11
379.7623177754
 21
441.3369747856
 31
0.0
  0
LINE
  5
143
330
1F
100
AcDbEntity
  8
0
  6
Continuous
 62
     7
370
    15
100
AcDbLine
 10
512.5623177754
 20
421.3369747856
 30
0.0
 11
512.5623177754
 21
441.3369747856
 31
0.0
  0
LINE
  5
144
330
1F
100
AcDbEntity
  8
0
  6
Continuous
 62
     7
370
    15
100
AcDbLine
 10
512.5623177754
 20
441.3369747856
 30
0.0
 11
509.7623177754
 21
441.3369747856
 31
0.0
  0
LINE
  5
145
330
1F
100
AcDbEntity
  8
0
  6
Continuous
 62
     7
370
    15
100
AcDbLine
 10
509.7623177754
 20
441.3369747856
 30
0.0
 11
509.7623177754
 21
421.3369747856
 31
0.0
  0
LINE
  5
146
330
1F
100
AcDbEntity
  8
0
  6
Continuous
 62
     7
370
    15
100
AcDbLine
 10
509.7623177754
 20
421.3369747856
 30
0.0
 11
512.5623177754
 21
421.3369747856
 31
0.0
  0
LINE
  5
147
330
1F
100
AcDbEntity
  8
0
  6
Continuous
 62
     7
370
    15
100
AcDbLine
 10
345.5623177754
 20
439.3369747856
 30
0.0
 11
345.5623177754
 21
419.5369747856
 31
0.0
  0
LINE
  5
148
330
1F
100
AcDbEntity
  8
0
  6
Continuous
 62
     7
370
    15
100
AcDbLine
 10
342.5623177754
 20
439.3369747856
 30
0.0
 11
345.5623177754
 21
439.3369747856
 31
0.0
  0
LINE
  5
149
330
1F
100
AcDbEntity
  8
0
  6
Continuous
 62
     7
370
    15
100
AcDbLine
 10
345.5623177754
 20
559.5369747856
 30
0.0
 11
342.5623177754
 21
559.5369747856
 31
0.0
  0
LINE
  5
14A
330
1F
100
AcDbEntity
  8
0
  6
Continuous
 62
     7
370
    15
100
AcDbLine
 10
345.5623177754
 20
579.3369747856
 30
0.0
 11
345.5623177754
 21
559.5369747856
 31
0.0
  0
LINE
  5
14B
330
1F
100
AcDbEntity
  8
0
  6
Continuous
 62
     7
370
    15
100
AcDbLine
 10
342.5623177754
 20
579.3369747856
 30
0.0
 11
345.5623177754
 21
579.3369747856
 31
0.0
  0
LINE
  5
14C
330
1F
100
AcDbEntity
  8
0
  6
Continuous
 62
     7
370
    15
100
AcDbLine
 10
342.5623177754
 20
629.3369747856
 30
0.0
 11
342.5623177754
 21
579.3369747856
 31
0.0
  0
LINE
  5
14D
330
1F
100
AcDbEntity
  8
0
  6
Continuous
 62
     7
370
    15
100
AcDbLine
 10
347.5623177754
 20
629.3369747856
 30
0.0
 11
342.5623177754
 21
629.3369747856
 31
0.0
  0
LINE
  5
14E
330
1F
100
AcDbEntity
  8
0
  6
Continuous
 62
     7
370
    15
100
AcDbLine
 10
347.5623177754
 20
632.3369747856
 30
0.0
 11
347.5623177754
 21
629.3369747856
 31
0.0
  0
LINE
  5
14F
330
1F
100
AcDbEntity
  8
0
  6
Continuous
 62
     7
370
    15
100
AcDbLine
 10
367.5623177754
 20
632.3369747856
 30
0.0
 11
347.5623177754
 21
632.3369747856
 31
0.0
  0
LINE
  5
150
330
1F
100
AcDbEntity
  8
0
  6
Continuous
 62
     7
370
    15
100
AcDbLine
 10
367.5623177754
 20
629.3369747856
 30
0.0
 11
367.5623177754
 21
632.3369747856
 31
0.0
  0
LINE
  5
151
330
1F
100
AcDbEntity
  8
0
  6
Continuous
 62
     7
370
    15
100
AcDbLine
 10
372.5623177754
 20
629.3369747856
 30
0.0
 11
367.5623177754
 21
629.3369747856
 31
0.0
  0
LINE
  5
152
330
1F
100
AcDbEntity
  8
0
  6
Continuous
 62
     7
370
    15
100
AcDbLine
 10
372.5623177754
 20
463.7980933439
 30
0.0
 11
372.5623177754
 21
629.3369747856
 31
0.0
  0
ARC
  5
153
330
1F
100
AcDbEntity
  8
0
  6
Continuous
 62
     7
370
    15
100
AcDbCircle
 10
377.5623177754
 20
463.7980933439
 30
0.0
 40
4.999999999999964
100
AcDbArc
 50
180.0
 51
263.4801982483
  0
LINE
  5
154
330
1F
100
AcDbEntity
  8
0
  6
Continuous
 62
     7
370
    15
100
AcDbLine
 10
543.1300507312
 20
439.8435195907
 30
0.0
 11
376.9945848196
 21
458.8304299806
 31
0.0
  0
ARC
  5
155
330
1F
100
AcDbEntity
  8
0
  6
Continuous
 62
     7
370
    15
100
AcDbCircle
 10
542.5623177754
 20
434.8758562274
 30
0.0
 40
5.000000000000007
100
AcDbArc
 50
0.0
 51
83.4801982483
  0
LINE
  5
156
330
1F
100
AcDbEntity
  8
0
  6
Continuous
 62
     7
370
    15
100
AcDbLine
 10
547.5623177754
 20
431.4080425975
 30
0.0
 11
547.5623177754
 21
434.8758562274
 31
0.0
  0
ARC
  5
157
330
1F
100
AcDbEntity
  8
0
  6
Continuous
 62
     7
370
    15
100
AcDbCircle
 10
542.5623177754
 20
431.4080425975
 30
0.0
 40
5.0
100
AcDbArc
 50
315.0
 51
0.0
  0
LINE
  5
158
330
1F
100
AcDbEntity
  8
0
  6
Continuous
 62
     7
370
    15
100
AcDbLine
 10
534.0267838694
 20
415.8014408797
 30
0.0
 11
546.0978516813
 21
427.8725086916
 31
0.0
  0
ARC
  5
159
330
1F
100
AcDbEntity
  8
0
  6
Continuous
 62
     7
370
    15
100
AcDbCircle
 10
537.5623177754
 20
412.2659069738
 30
0.0
 40
5.0
100
AcDbArc
 50
135.0
 51
180.0
  0
LINE
  5
15A
330
1F
100
AcDbEntity
  8
0
  6
Continuous
 62
     7
370
    15
100
AcDbLine
 10
532.5623177754
 20
369.3369747856
 30
0.0
 11
532.5623177754
 21
412.2659069738
 31
0.0
  0
LINE
  5
15B
330
1F
100
AcDbEntity
  8
0
  6
Continuous
 62
     7
370
    15
100
AcDbLine
 10
527.5623177754
 20
369.3369747856
 30
0.0
 11
532.5623177754
 21
369.3369747856
 31
0.0
  0
LINE
  5
15C
330
1F
100
AcDbEntity
  8
0
  6
Continuous
 62
     7
370
    15
100
AcDbLine
 10
527.5623177754
 20
366.3369747856
 30
0.0
 11
527.5623177754
 21
369.3369747856
 31
0.0
  0
LINE
  5
15D
330
1F
100
AcDbEntity
  8
0
  6
Continuous
 62
     7
370
    15
100
AcDbLine
 10
507.5623177754
 20
366.3369747856
 30
0.0
 11
527.5623177754
 21
366.3369747856
 31
0.0
  0
LINE
  5
15E
330
1F
100
AcDbEntity
  8
0
  6
Continuous
 62
     7
370
    15
100
AcDbLine
 10
507.5623177754
 20
369.3369747856
 30
0.0
 11
507.5623177754
 21
366.3369747856
 31
0.0
  0
LINE
  5
15F
330
1F
100
AcDbEntity
  8
0
  6
Continuous
 62
     7
370
    15
100
AcDbLine
 10
502.5623177754
 20
369.3369747856
 30
0.0
 11
507.5623177754
 21
369.3369747856
 31
0.0
  0
LINE
  5
160
330
1F
100
AcDbEntity
  8
0
  6
Continuous
 62
     7
370
    15
100
AcDbLine
 10
502.5623177754
 20
407.3369747856
 30
0.0
 11
502.5623177754
 21
369.3369747856
 31
0.0
  0
ARC
  5
161
330
1F
100
AcDbEntity
  8
0
  6
Continuous
 62
     7
370
    15
100
AcDbCircle
 10
492.5623177754
 20
407.3369747856
 30
0.0
 40
10.0
100
AcDbArc
 50
0.0
 51
90.0
  0
LINE
  5
162
330
1F
100
AcDbEntity
  8
0
  6
Continuous
 62
     7
370
    15
100
AcDbLine
 10
492.5623177754
 20
417.3369747856
 30
0.0
 11
382.5623177754
 21
417.3369747856
 31
0.0
  0
ARC
  5
163
330
1F
100
AcDbEntity
  8
0
  6
Continuous
 62
     7
370
    15
100
AcDbCircle
 10
382.5623177754
 20
407.3369747856
 30
0.0
 40
10.0
100
AcDbArc
 50
90.0
 51
180.0
  0
LINE
  5
164
330
1F
100
AcDbEntity
  8
0
  6
Continuous
 62
     7
370
    15
100
AcDbLine
 10
372.5623177754
 20
369.3369747856
 30
0.0
 11
372.5623177754
 21
407.3369747856
 31
0.0
  0
LINE
  5
165
330
1F
100
AcDbEntity
  8
0
  6
Continuous
 62
     7
370
    15
100
AcDbLine
 10
367.5623177754
 20
369.3369747856
 30
0.0
 11
372.5623177754
 21
369.3369747856
 31
0.0
  0
LINE
  5
166
330
1F
100
AcDbEntity
  8
0
  6
Continuous
 62
     7
370
    15
100
AcDbLine
 10
367.5623177754
 20
366.3369747856
 30
0.0
 11
367.5623177754
 21
369.3369747856
 31
0.0
  0
LINE
  5
167
330
1F
100
AcDbEntity
  8
0
  6
Continuous
 62
     7
370
    15
100
AcDbLine
 10
347.5623177754
 20
366.3369747856
 30
0.0
 11
367.5623177754
 21
366.3369747856
 31
0.0
  0
LINE
  5
168
330
1F
100
AcDbEntity
  8
0
  6
Continuous
 62
     7
370
    15
100
AcDbLine
 10
347.5623177754
 20
369.3369747856
 30
0.0
 11
347.5623177754
 21
366.3369747856
 31
0.0
  0
LINE
  5
169
330
1F
100
AcDbEntity
  8
0
  6
Continuous
 62
     7
370
    15
100
AcDbLine
 10
342.5623177754
 20
369.3369747856
 30
0.0
 11
347.5623177754
 21
369.3369747856
 31
0.0
  0
LINE
  5
16A
330
1F
100
AcDbEntity
  8
0
  6
Continuous
 62
     7
370
    15
100
AcDbLine
 10
345.5623177754
 20
419.5369747856
 30
0.0
 11
342.5623177754
 21
419.5369747856
 31
0.0
  0
LINE
  5
16B
330
1F
100
AcDbEntity
  8
0
  6
Continuous
 62
     7
370
    15
100
AcDbLine
 10
342.5623177754
 20
559.5369747856
 30
0.0
 11
342.5623177754
 21
439.3369747856
 31
0.0
  0
LINE
  5
16C
330
1F
100
AcDbEntity
  8
0
  6
Continuous
 62
     7
370
    15
100
AcDbLine
 10
342.5623177754
 20
419.5369747856
 30
0.0
 11
342.5623177754
 21
369.3369747856
 31
0.0
  0
CIRCLE
  5
16D
330
1F
100
AcDbEntity
  8
0
  6
Continuous
 62
     7
370
    15
100
AcDbCircle
 10
714.7007319313
 20
739.5626717438
 30
0.0
 40
2.299999999999955
  0
LINE
  5
16E
330
1F
100
AcDbEntity
  8
0
  6
Continuous
 62
     7
370
    15
100
AcDbLine
 10
694.7007319313
 20
727.0626717438
 30
0.0
 11
699.8007319313
 21
727.0626717438
 31
0.0
  0
LINE
  5
16F
330
1F
100
AcDbEntity
  8
0
  6
Continuous
 62
     7
370
    15
100
AcDbLine
 10
699.8007319313
 20
727.0626717438
 30
0.0
 11
699.8007319313
 21
729.5626717438
 31
0.0
  0
LINE
  5
170
330
1F
100
AcDbEntity
  8
0
  6
Continuous
 62
     7
370
    15
100
AcDbLine
 10
699.8007319313
 20
729.5626717438
 30
0.0
 11
702.6007319313
 21
729.5626717438
 31
0.0
  0
LINE
  5
171
330
1F
100
AcDbEntity
  8
0
  6
Continuous
 62
     7
370
    15
100
AcDbLine
 10
702.6007319313
 20
729.5626717438
 30
0.0
 11
702.6007319313
 21
727.0626717438
 31
0.0
  0
LINE
  5
172
330
1F
100
AcDbEntity
  8
0
  6
Continuous
 62
     7
370
    15
100
AcDbLine
 10
702.6007319313
 20
727.0626717438
 30
0.0
 11
726.8007319313
 21
727.0626717438
 31
0.0
  0
LINE
  5
173
330
1F
100
AcDbEntity
  8
0
  6
Continuous
 62
     7
370
    15
100
AcDbLine
 10
726.8007319313
 20
727.0626717438
 30
0.0
 11
726.8007319313
 21
729.5626717438
 31
0.0
  0
LINE
  5
174
330
1F
100
AcDbEntity
  8
0
  6
Continuous
 62
     7
370
    15
100
AcDbLine
 10
726.8007319313
 20
729.5626717438
 30
0.0
 11
729.6007319313
 21
729.5626717438
 31
0.0
  0
LINE
  5
175
330
1F
100
AcDbEntity
  8
0
  6
Continuous
 62
     7
370
    15
100
AcDbLine
 10
729.6007319313
 20
729.5626717438
 30
0.0
 11
729.6007319313
 21
727.0626717438
 31
0.0
  0
LINE
  5
176
330
1F
100
AcDbEntity
  8
0
  6
Continuous
 62
     7
370
    15
100
AcDbLine
 10
729.6007319313
 20
727.0626717438
 30
0.0
 11
734.7007319313
 21
727.0626717438
 31
0.0
  0
LINE
  5
177
330
1F
100
AcDbEntity
  8
0
  6
Continuous
 62
     7
370
    15
100
AcDbLine
 10
734.7007319313
 20
727.0626717438
 30
0.0
 11
734.7007319313
 21
752.0626717438
 31
0.0
  0
LINE
  5
178
330
1F
100
AcDbEntity
  8
0
  6
Continuous
 62
     7
370
    15
100
AcDbLine
 10
734.7007319313
 20
752.0626717438
 30
0.0
 11
729.6007319313
 21
752.0626717438
 31
0.0
  0
LINE
  5
179
330
1F
100
AcDbEntity
  8
0
  6
Continuous
 62
     7
370
    15
100
AcDbLine
 10
729.6007319313
 20
752.0626717438
 30
0.0
 11
729.6007319313
 21
749.5626717438
 31
0.0
  0
LINE
  5
17A
330
1F
100
AcDbEntity
  8
0
  6
Continuous
 62
     7
370
    15
100
AcDbLine
 10
729.6007319313
 20
749.5626717438
 30
0.0
 11
726.8007319313
 21
749.5626717438
 31
0.0
  0
LINE
  5
17B
330
1F
100
AcDbEntity
  8
0
  6
Continuous
 62
     7
370
    15
100
AcDbLine
 10
726.8007319313
 20
749.5626717438
 30
0.0
 11
726.8007319313
 21
752.0626717438
 31
0.0
  0
LINE
  5
17C
330
1F
100
AcDbEntity
  8
0
  6
Continuous
 62
     7
370
    15
100
AcDbLine
 10
726.8007319313
 20
752.0626717438
 30
0.0
 11
702.6007319313
 21
752.0626717438
 31
0.0
  0
LINE
  5
17D
330
1F
100
AcDbEntity
  8
0
  6
Continuous
 62
     7
370
    15
100
AcDbLine
 10
702.6007319313
 20
752.0626717438
 30
0.0
 11
702.6007319313
 21
749.5626717438
 31
0.0
  0
LINE
  5
17E
330
1F
100
AcDbEntity
  8
0
  6
Continuous
 62
     7
370
    15
100
AcDbLine
 10
702.6007319313
 20
749.5626717438
 30
0.0
 11
699.8007319313
 21
749.5626717438
 31
0.0
  0
LINE
  5
17F
330
1F
100
AcDbEntity
  8
0
  6
Continuous
 62
     7
370
    15
100
AcDbLine
 10
699.8007319313
 20
749.5626717438
 30
0.0
 11
699.8007319313
 21
752.0626717438
 31
0.0
  0
LINE
  5
180
330
1F
100
AcDbEntity
  8
0
  6
Continuous
 62
     7
370
    15
100
AcDbLine
 10
699.8007319313
 20
752.0626717438
 30
0.0
 11
694.7007319313
 21
752.0626717438
 31
0.0
  0
LINE
  5
181
330
1F
100
AcDbEntity
  8
0
  6
Continuous
 62
     7
370
    15
100
AcDbLine
 10
694.7007319313
 20
752.0626717438
 30
0.0
 11
694.7007319313
 21
727.0626717438
 31
0.0
  0
INSERT
  5
18D
330
1F
100
AcDbEntity
  8
CENTER
100
AcDbBlockReference
  2
SW_CENTERMARKSYMBOL_12
 10
714.7007319313
 20
739.5626717438
 30
0.0
  0
LINE
  5
18E
330
1F
100
AcDbEntity
  8
0
  6
Continuous
 62
     7
370
    15
100
AcDbLine
 10
873.6058358492
 20
727.022144207
 30
0.0
 11
873.6058358492
 21
732.022144207
 31
0.0
  0
LINE
  5
18F
330
1F
100
AcDbEntity
  8
0
  6
Continuous
 62
     7
370
    15
100
AcDbLine
 10
873.6058358492
 20
727.022144207
 30
0.0
 11
863.6058358492
 21
727.022144207
 31
0.0
  0
LINE
  5
190
330
1F
100
AcDbEntity
  8
0
  6
Continuous
 62
     7
370
    15
100
AcDbLine
 10
863.6058358492
 20
727.022144207
 30
0.0
 11
863.6058358492
 21
732.022144207
 31
0.0
  0
LINE
  5
191
330
1F
100
AcDbEntity
  8
0
  6
Continuous
 62
     7
370
    15
100
AcDbLine
 10
858.6058358492
 20
732.022144207
 30
0.0
 11
863.6058358492
 21
732.022144207
 31
0.0
  0
LINE
  5
192
330
1F
100
AcDbEntity
  8
0
  6
Continuous
 62
     7
370
    15
100
AcDbLine
 10
858.6058358492
 20
732.022144207
 30
0.0
 11
858.6058358492
 21
737.022144207
 31
0.0
  0
LINE
  5
193
330
1F
100
AcDbEntity
  8
0
  6
Continuous
 62
     7
370
    15
100
AcDbLine
 10
875.6058358492
 20
754.022144207
 30
0.0
 11
858.6058358492
 21
737.022144207
 31
0.0
  0
LINE
  5
194
330
1F
100
AcDbEntity
  8
0
  6
Continuous
 62
     7
370
    15
100
AcDbLine
 10
875.6058358492
 20
754.022144207
 30
0.0
 11
878.6058358492
 21
754.022144207
 31
0.0
  0
LINE
  5
195
330
1F
100
AcDbEntity
  8
0
  6
Continuous
 62
     7
370
    15
100
AcDbLine
 10
878.6058358492
 20
749.022144207
 30
0.0
 11
878.6058358492
 21
754.022144207
 31
0.0
  0
LINE
  5
196
330
1F
100
AcDbEntity
  8
0
  6
Continuous
 62
     7
370
    15
100
AcDbLine
 10
881.6058358492
 20
749.022144207
 30
0.0
 11
881.6058358492
 21
739.022144207
 31
0.0
  0
LINE
  5
197
330
1F
100
AcDbEntity
  8
0
  6
Continuous
 62
     7
370
    15
100
AcDbLine
 10
878.6058358492
 20
734.022144207
 30
0.0
 11
878.6058358492
 21
739.022144207
 31
0.0
  0
LINE
  5
198
330
1F
100
AcDbEntity
  8
0
  6
Continuous
 62
     7
370
    15
100
AcDbLine
 10
876.6058358492
 20
732.022144207
 30
0.0
 11
878.6058358492
 21
734.022144207
 31
0.0
  0
LINE
  5
199
330
1F
100
AcDbEntity
  8
0
  6
Continuous
 62
     7
370
    15
100
AcDbLine
 10
873.6058358492
 20
732.022144207
 30
0.0
 11
876.6058358492
 21
732.022144207
 31
0.0
  0
LINE
  5
19A
330
1F
100
AcDbEntity
  8
0
  6
Continuous
 62
     7
370
    15
100
AcDbLine
 10
881.6058358492
 20
749.022144207
 30
0.0
 11
878.6058358492
 21
749.022144207
 31
0.0
  0
LINE
  5
19B
330
1F
100
AcDbEntity
  8
0
  6
Continuous
 62
     7
370
    15
100
AcDbLine
 10
881.6058358492
 20
739.022144207
 30
0.0
 11
878.6058358492
 21
739.022144207
 31
0.0
  0
LINE
  5
19C
330
1F
100
AcDbEntity
  8
0
  6
Continuous
 62
     7
370
    15
100
AcDbLine
 10
937.4061581115
 20
741.4457268679
 30
0.0
 11
937.4061581115
 21
761.4457268679
 31
0.0
  0
LINE
  5
19D
330
1F
100
AcDbEntity
  8
0
  6
Continuous
 62
     7
370
    15
100
AcDbLine
 10
937.4061581115
 20
761.4457268679
 30
0.0
 11
934.6061581115
 21
761.4457268679
 31
0.0
  0
LINE
  5
19E
330
1F
100
AcDbEntity
  8
0
  6
Continuous
 62
     7
370
    15
100
AcDbLine
 10
934.6061581115
 20
761.4457268679
 30
0.0
 11
934.6061581115
 21
741.4457268679
 31
0.0
  0
LINE
  5
19F
330
1F
100
AcDbEntity
  8
0
  6
Continuous
 62
     7
370
    15
100
AcDbLine
 10
934.6061581115
 20
741.4457268679
 30
0.0
 11
937.4061581115
 21
741.4457268679
 31
0.0
  0
LINE
  5
1A0
330
1F
100
AcDbEntity
  8
0
  6
Continuous
 62
     7
370
    15
100
AcDbLine
 10
1034.5061581115
 20
766.4457268679
 30
0.0
 11
931.5061581115
 21
766.4457268679
 31
0.0
  0
LINE
  5
1A1
330
1F
100
AcDbEntity
  8
0
  6
Continuous
 62
     7
370
    15
100
AcDbLine
 10
1034.5061581115
 20
736.4457268679
 30
0.0
 11
1034.5061581115
 21
766.4457268679
 31
0.0
  0
LINE
  5
1A2
330
1F
100
AcDbEntity
  8
0
  6
Continuous
 62
     7
370
    15
100
AcDbLine
 10
1019.5061581115
 20
736.4457268679
 30
0.0
 11
1034.5061581115
 21
736.4457268679
 31
0.0
  0
LINE
  5
1A3
330
1F
100
AcDbEntity
  8
0
  6
Continuous
 62
     7
370
    15
100
AcDbLine
 10
1006.2893516334
 20
725.3555094268
 30
0.0
 11
1019.5061581115
 21
736.4457268679
 31
0.0
  0
ARC
  5
1A4
330
1F
100
AcDbEntity
  8
0
  6
Continuous
 62
     7
370
    15
100
AcDbCircle
 10
985.5061581115
 20
703.720841252
 30
0.0
 40
30.00000000000004
100
AcDbArc
 50
46.1499719912
 51
140.0
  0
LINE
  5
1A5
330
1F
100
AcDbEntity
  8
0
  6
Continuous
 62
     7
370
    15
100
AcDbLine
 10
946.5061581115
 20
736.4457268679
 30
0.0
 11
962.524824818
 21
723.0044695426
 31
0.0
  0
LINE
  5
1A6
330
1F
100
AcDbEntity
  8
0
  6
Continuous
 62
     7
370
    15
100
AcDbLine
 10
931.5061581115
 20
736.4457268679
 30
0.0
 11
946.5061581115
 21
736.4457268679
 31
0.0
  0
LINE
  5
1A7
330
1F
100
AcDbEntity
  8
0
  6
Continuous
 62
     7
370
    15
100
AcDbLine
 10
931.5061581115
 20
766.4457268679
 30
0.0
 11
931.5061581115
 21
736.4457268679
 31
0.0
  0
LINE
  5
1A8
330
1F
100
AcDbEntity
  8
0
  6
Continuous
 62
     7
370
    15
100
AcDbLine
 10
1031.4061581115
 20
741.4457268679
 30
0.0
 11
1031.4061581115
 21
761.4457268679
 31
0.0
  0
LINE
  5
1A9
330
1F
100
AcDbEntity
  8
0
  6
Continuous
 62
     7
370
    15
100
AcDbLine
 10
1031.4061581115
 20
761.4457268679
 30
0.0
 11
1028.6061581115
 21
761.4457268679
 31
0.0
  0
LINE
  5
1AA
330
1F
100
AcDbEntity
  8
0
  6
Continuous
 62
     7
370
    15
100
AcDbLine
 10
1028.6061581115
 20
761.4457268679
 30
0.0
 11
1028.6061581115
 21
741.4457268679
 31
0.0
  0
LINE
  5
1AB
330
1F
100
AcDbEntity
  8
0
  6
Continuous
 62
     7
370
    15
100
AcDbLine
 10
1028.6061581115
 20
741.4457268679
 30
0.0
 11
1031.4061581115
 21
741.4457268679
 31
0.0
  0
LINE
  5
1AC
330
1F
100
AcDbEntity
  8
0
  6
Continuous
 62
     7
370
    15
100
AcDbLine
 10
1162.2558911123
 20
764.7369005953
 30
0.0
 11
1162.2558911123
 21
718.7369005953
 31
0.0
  0
LINE
  5
1AD
330
1F
100
AcDbEntity
  8
0
  6
Continuous
 62
     7
370
    15
100
AcDbLine
 10
1147.7558911123
 20
713.7369005953
 30
0.0
 11
1117.7558911123
 21
713.7369005953
 31
0.0
  0
LINE
  5
1AE
330
1F
100
AcDbEntity
  8
0
  6
Continuous
 62
     7
370
    15
100
AcDbLine
 10
1103.2558911123
 20
764.7369005953
 30
0.0
 11
1103.2558911123
 21
718.7369005953
 31
0.0
  0
LINE
  5
1AF
330
1F
100
AcDbEntity
  8
0
  6
Continuous
 62
     7
370
    15
100
AcDbLine
 10
1103.2558911123
 20
764.7369005953
 30
0.0
 11
1111.2558911123
 21
764.7369005953
 31
0.0
  0
LINE
  5
1B0
330
1F
100
AcDbEntity
  8
0
  6
Continuous
 62
     7
370
    15
100
AcDbLine
 10
1111.2558911123
 20
764.7369005953
 30
0.0
 11
1111.2558911123
 21
742.7369005953
 31
0.0
  0
LINE
  5
1B1
330
1F
100
AcDbEntity
  8
0
  6
Continuous
 62
     7
370
    15
100
AcDbLine
 10
1111.2558911123
 20
742.7369005953
 30
0.0
 11
1154.2558911123
 21
742.7369005953
 31
0.0
  0
LINE
  5
1B2
330
1F
100
AcDbEntity
  8
0
  6
Continuous
 62
     7
370
    15
100
AcDbLine
 10
1154.2558911123
 20
742.7369005953
 30
0.0
 11
1154.2558911123
 21
764.7369005953
 31
0.0
  0
LINE
  5
1B3
330
1F
100
AcDbEntity
  8
0
  6
Continuous
 62
     7
370
    15
100
AcDbLine
 10
1154.2558911123
 20
764.7369005953
 30
0.0
 11
1162.2558911123
 21
764.7369005953
 31
0.0
  0
CIRCLE
  5
1B4
330
1F
100
AcDbEntity
  8
0
  6
Continuous
 62
     7
370
    15
100
AcDbCircle
 10
1107.7558911123
 20
749.6869005953
 30
0.0
 40
2.299999999999955
  0
CIRCLE
  5
1B5
330
1F
100
AcDbEntity
  8
0
  6
Continuous
 62
     7
370
    15
100
AcDbCircle
 10
1107.7558911123
 20
759.7869005953
 30
0.0
 40
2.299999999999955
  0
CIRCLE
  5
1B6
330
1F
100
AcDbEntity
  8
0
  6
Continuous
 62
     7
370
    15
100
AcDbCircle
 10
1157.7558911123
 20
759.7869005953
 30
0.0
 40
2.300000000000182
  0
CIRCLE
  5
1B7
330
1F
100
AcDbEntity
  8
0
  6
Continuous
 62
     7
370
    15
100
AcDbCircle
 10
1157.7558911123
 20
749.6869005953
 30
0.0
 40
2.300000000000182
  0
LINE
  5
1B8
330
1F
100
AcDbEntity
  8
0
  6
Continuous
 62
     7
370
    15
100
AcDbLine
 10
1108.2558911123
 20
725.7369005953
 30
0.0
 11
1111.0558911123
 21
725.7369005953
 31
0.0
  0
LINE
  5
1B9
330
1F
100
AcDbEntity
  8
0
  6
Continuous
 62
     7
370
    15
100
AcDbLine
 10
1111.0558911123
 20
725.7369005953
 30
0.0
 11
1111.0558911123
 21
735.7369005953
 31
0.0
  0
LINE
  5
1BA
330
1F
100
AcDbEntity
  8
0
  6
Continuous
 62
     7
370
    15
100
AcDbLine
 10
1111.0558911123
 20
735.7369005953
 30
0.0
 11
1108.2558911123
 21
735.7369005953
 31
0.0
  0
LINE
  5
1BB
330
1F
100
AcDbEntity
  8
0
  6
Continuous
 62
     7
370
    15
100
AcDbLine
 10
1108.2558911123
 20
735.7369005953
 30
0.0
 11
1108.2558911123
 21
725.7369005953
 31
0.0
  0
LINE
  5
1BC
330
1F
100
AcDbEntity
  8
0
  6
Continuous
 62
     7
370
    15
100
AcDbLine
 10
1154.4558911123
 20
725.7369005953
 30
0.0
 11
1157.2558911123
 21
725.7369005953
 31
0.0
  0
LINE
  5
1BD
330
1F
100
AcDbEntity
  8
0
  6
Continuous
 62
     7
370
    15
100
AcDbLine
 10
1157.2558911123
 20
725.7369005953
 30
0.0
 11
1157.2558911123
 21
735.7369005953
 31
0.0
  0
LINE
  5
1BE
330
1F
100
AcDbEntity
  8
0
  6
Continuous
 62
     7
370
    15
100
AcDbLine
 10
1157.2558911123
 20
735.7369005953
 30
0.0
 11
1154.4558911123
 21
735.7369005953
 31
0.0
  0
LINE
  5
1BF
330
1F
100
AcDbEntity
  8
0
  6
Continuous
 62
     7
370
    15
100
AcDbLine
 10
1154.4558911123
 20
735.7369005953
 30
0.0
 11
1154.4558911123
 21
725.7369005953
 31
0.0
  0
LINE
  5
1C0
330
1F
100
AcDbEntity
  8
0
  6
Continuous
 62
     7
370
    15
100
AcDbLine
 10
1117.7558911123
 20
713.7369005953
 30
0.0
 11
1117.7558911123
 21
718.7369005953
 31
0.0
  0
LINE
  5
1C1
330
1F
100
AcDbEntity
  8
0
  6
Continuous
 62
     7
370
    15
100
AcDbLine
 10
1147.7558911123
 20
713.7369005953
 30
0.0
 11
1147.7558911123
 21
718.7369005953
 31
0.0
  0
LINE
  5
1C2
330
1F
100
AcDbEntity
  8
0
  6
Continuous
 62
     7
370
    15
100
AcDbLine
 10
1147.7558911123
 20
718.7369005953
 30
0.0
 11
1162.2558911123
 21
718.7369005953
 31
0.0
  0
LINE
  5
1C3
330
1F
100
AcDbEntity
  8
0
  6
Continuous
 62
     7
370
    15
100
AcDbLine
 10
1103.2558911123
 20
718.7369005953
 30
0.0
 11
1117.7558911123
 21
718.7369005953
 31
0.0
  0
INSERT
  5
1CF
330
1F
100
AcDbEntity
  8
CENTER
100
AcDbBlockReference
  2
SW_CENTERMARKSYMBOL_13
 10
1107.7558911123
 20
749.6869005953
 30
0.0
  0
INSERT
  5
1DB
330
1F
100
AcDbEntity
  8
CENTER
100
AcDbBlockReference
  2
SW_CENTERMARKSYMBOL_14
 10
1107.7558911123
 20
759.7869005953
 30
0.0
  0
INSERT
  5
1E7
330
1F
100
AcDbEntity
  8
CENTER
100
AcDbBlockReference
  2
SW_CENTERMARKSYMBOL_15
 10
1157.7558911123
 20
759.7869005953
 30
0.0
  0
INSERT
  5
1F3
330
1F
100
AcDbEntity
  8
CENTER
100
AcDbBlockReference
  2
SW_CENTERMARKSYMBOL_16
 10
1157.7558911123
 20
749.6869005953
 30
0.0
  0
LINE
  5
1F4
330
1F
100
AcDbEntity
  8
0
  6
Continuous
 62
     7
370
    15
100
AcDbLine
 10
917.3915807157
 20
597.9704630119
 30
0.0
 11
917.3915807157
 21
617.9704630119
 31
0.0
  0
LINE
  5
1F5
330
1F
100
AcDbEntity
  8
0
  6
Continuous
 62
     7
370
    15
100
AcDbLine
 10
917.3915807157
 20
617.9704630119
 30
0.0
 11
914.5915807157
 21
617.9704630119
 31
0.0
  0
LINE
  5
1F6
330
1F
100
AcDbEntity
  8
0
  6
Continuous
 62
     7
370
    15
100
AcDbLine
 10
914.5915807157
 20
617.9704630119
 30
0.0
 11
914.5915807157
 21
597.9704630119
 31
0.0
  0
LINE
  5
1F7
330
1F
100
AcDbEntity
  8
0
  6
Continuous
 62
     7
370
    15
100
AcDbLine
 10
914.5915807157
 20
597.9704630119
 30
0.0
 11
917.3915807157
 21
597.9704630119
 31
0.0
  0
LINE
  5
1F8
330
1F
100
AcDbEntity
  8
0
  6
Continuous
 62
     7
370
    15
100
AcDbLine
 10
784.5915807157
 20
632.9704630119
 30
0.0
 11
784.5915807157
 21
612.9704630094
 31
0.0
  0
LINE
  5
1F9
330
1F
100
AcDbEntity
  8
0
  6
Continuous
 62
     7
370
    15
100
AcDbLine
 10
784.5915807157
 20
612.9704630094
 30
0.0
 11
787.3915807157
 21
612.9704630094
 31
0.0
  0
LINE
  5
1FA
330
1F
100
AcDbEntity
  8
0
  6
Continuous
 62
     7
370
    15
100
AcDbLine
 10
787.3915807157
 20
612.9704630094
 30
0.0
 11
787.3915807157
 21
632.9704630119
 31
0.0
  0
LINE
  5
1FB
330
1F
100
AcDbEntity
  8
0
  6
Continuous
 62
     7
370
    15
100
AcDbLine
 10
787.3915807157
 20
632.9704630119
 30
0.0
 11
784.5915807157
 21
632.9704630119
 31
0.0
  0
LINE
  5
1FC
330
1F
100
AcDbEntity
  8
0
  6
Continuous
 62
     7
370
    15
100
AcDbLine
 10
907.3915807157
 20
597.9704630119
 30
0.0
 11
907.3915807157
 21
617.9704630119
 31
0.0
  0
LINE
  5
1FD
330
1F
100
AcDbEntity
  8
0
  6
Continuous
 62
     7
370
    15
100
AcDbLine
 10
907.3915807157
 20
617.9704630119
 30
0.0
 11
904.5915807157
 21
617.9704630119
 31
0.0
  0
LINE
  5
1FE
330
1F
100
AcDbEntity
  8
0
  6
Continuous
 62
     7
370
    15
100
AcDbLine
 10
904.5915807157
 20
617.9704630119
 30
0.0
 11
904.5915807157
 21
597.9704630119
 31
0.0
  0
LINE
  5
1FF
330
1F
100
AcDbEntity
  8
0
  6
Continuous
 62
     7
370
    15
100
AcDbLine
 10
904.5915807157
 20
597.9704630119
 30
0.0
 11
907.3915807157
 21
597.9704630119
 31
0.0
  0
LINE
  5
200
330
1F
100
AcDbEntity
  8
0
  6
Continuous
 62
     7
370
    15
100
AcDbLine
 10
794.5915807157
 20
632.9704630119
 30
0.0
 11
794.5915807157
 21
614.0177572756
 31
0.0
  0
LINE
  5
201
330
1F
100
AcDbEntity
  8
0
  6
Continuous
 62
     7
370
    15
100
AcDbLine
 10
794.5915807157
 20
614.0177572756
 30
0.0
 11
797.3915807157
 21
614.0177572756
 31
0.0
  0
LINE
  5
202
330
1F
100
AcDbEntity
  8
0
  6
Continuous
 62
     7
370
    15
100
AcDbLine
 10
797.3915807157
 20
614.0177572756
 30
0.0
 11
797.3915807157
 21
632.9704630119
 31
0.0
  0
LINE
  5
203
330
1F
100
AcDbEntity
  8
0
  6
Continuous
 62
     7
370
    15
100
AcDbLine
 10
797.3915807157
 20
632.9704630119
 30
0.0
 11
794.5915807157
 21
632.9704630119
 31
0.0
  0
ARC
  5
204
330
1F
100
AcDbEntity
  8
0
  6
Continuous
 62
     7
370
    15
100
AcDbCircle
 10
942.3915807157
 20
600.1162805827
 30
0.0
 40
10.0
100
AcDbArc
 50
0.0
 51
68.014758599
  0
LINE
  5
205
330
1F
100
AcDbEntity
  8
0
  6
Continuous
 62
     7
370
    15
100
AcDbLine
 10
952.3915807157
 20
594.9439711082
 30
0.0
 11
952.3915807157
 21
600.1162805827
 31
0.0
  0
ARC
  5
206
330
1F
100
AcDbEntity
  8
0
  6
Continuous
 62
     7
370
    15
100
AcDbCircle
 10
942.3915807157
 20
594.9439711082
 30
0.0
 40
10.00000000000005
100
AcDbArc
 50
264.3332166464
 51
0.0
  0
LINE
  5
207
330
1F
100
AcDbEntity
  8
0
  6
Continuous
 62
     7
370
    15
100
AcDbLine
 10
783.5041521184
 20
600.6609089579
 30
0.0
 11
941.4041521184
 21
584.9928412846
 31
0.0
  0
ARC
  5
208
330
1F
100
AcDbEntity
  8
0
  6
Continuous
 62
     7
370
    15
100
AcDbCircle
 10
784.4915807157
 20
610.6120387815
 30
0.0
 40
10.0
100
AcDbArc
 50
180.0
 51
264.3332166464
  0
LINE
  5
209
330
1F
100
AcDbEntity
  8
0
  6
Continuous
 62
     7
370
    15
100
AcDbLine
 10
774.4915807157
 20
654.5930404948
 30
0.0
 11
774.4915807157
 21
610.6120387815
 31
0.0
  0
ARC
  5
20A
330
1F
100
AcDbEntity
  8
0
  6
Continuous
 62
     7
370
    15
100
AcDbCircle
 10
784.4915807157
 20
654.5930404948
 30
0.0
 40
10.0
100
AcDbArc
 50
90.0
 51
180.0
  0
LINE
  5
20B
330
1F
100
AcDbEntity
  8
0
  6
Continuous
 62
     7
370
    15
100
AcDbLine
 10
784.4915807157
 20
664.5930404948
 30
0.0
 11
807.4568085743
 21
664.5930404948
 31
0.0
  0
ARC
  5
20C
330
1F
100
AcDbEntity
  8
0
  6
Continuous
 62
     7
370
    15
100
AcDbCircle
 10
807.4568085743
 20
654.5930404948
 30
0.0
 40
10.00000000000008
100
AcDbArc
 50
68.014758599
 51
90.0
  0
LINE
  5
20D
330
1F
100
AcDbEntity
  8
0
  6
Continuous
 62
     7
370
    15
100
AcDbLine
 10
946.1352582284
 20
609.3890837555
 30
0.0
 11
811.2004860871
 21
663.8658436676
 31
0.0
  0
LINE
  5
20E
330
1F
100
AcDbEntity
  8
0
  6
Continuous
 62
     7
370
    15
100
AcDbLine
 10
884.6669792245
 20
437.9609965783
 30
0.0
 11
884.6669792245
 21
457.9609965783
 31
0.0
  0
LINE
  5
20F
330
1F
100
AcDbEntity
  8
0
  6
Continuous
 62
     7
370
    15
100
AcDbLine
 10
887.3859706136
 20
437.9609965783
 30
0.0
 11
884.6669792245
 21
437.9609965783
 31
0.0
  0
LINE
  5
210
330
1F
100
AcDbEntity
  8
0
  6
Continuous
 62
     7
370
    15
100
AcDbLine
 10
887.3859706136
 20
457.9609965783
 30
0.0
 11
887.3859706136
 21
437.9609965783
 31
0.0
  0
LINE
  5
211
330
1F
100
AcDbEntity
  8
0
  6
Continuous
 62
     7
370
    15
100
AcDbLine
 10
884.6669792245
 20
457.9609965783
 30
0.0
 11
887.3859706136
 21
457.9609965783
 31
0.0
  0
LINE
  5
212
330
1F
100
AcDbEntity
  8
0
  6
Continuous
 62
     7
370
    15
100
AcDbLine
 10
771.7479878354
 20
437.9609965783
 30
0.0
 11
774.4669792245
 21
437.9609965783
 31
0.0
  0
LINE
  5
213
330
1F
100
AcDbEntity
  8
0
  6
Continuous
 62
     7
370
    15
100
AcDbLine
 10
774.4669792245
 20
437.9609965783
 30
0.0
 11
774.4669792245
 21
457.9609965783
 31
0.0
  0
LINE
  5
214
330
1F
100
AcDbEntity
  8
0
  6
Continuous
 62
     7
370
    15
100
AcDbLine
 10
774.4669792245
 20
457.9609965783
 30
0.0
 11
771.7479878354
 21
457.9609965783
 31
0.0
  0
LINE
  5
215
330
1F
100
AcDbEntity
  8
0
  6
Continuous
 62
     7
370
    15
100
AcDbLine
 10
771.7479878354
 20
457.9609965783
 30
0.0
 11
771.7479878354
 21
437.9609965783
 31
0.0
  0
LINE
  5
216
330
1F
100
AcDbEntity
  8
0
  6
Continuous
 62
     7
370
    15
100
AcDbLine
 10
817.4669792245
 20
383.3609965783
 30
0.0
 11
817.4669792245
 21
403.3609965783
 31
0.0
  0
LINE
  5
217
330
1F
100
AcDbEntity
  8
0
  6
Continuous
 62
     7
370
    15
100
AcDbLine
 10
817.4669792245
 20
403.3609965783
 30
0.0
 11
814.6669792245
 21
403.3609965783
 31
0.0
  0
LINE
  5
218
330
1F
100
AcDbEntity
  8
0
  6
Continuous
 62
     7
370
    15
100
AcDbLine
 10
814.6669792245
 20
403.3609965783
 30
0.0
 11
814.6669792245
 21
383.3609965783
 31
0.0
  0
LINE
  5
219
330
1F
100
AcDbEntity
  8
0
  6
Continuous
 62
     7
370
    15
100
AcDbLine
 10
814.6669792245
 20
383.3609965783
 30
0.0
 11
817.4669792245
 21
383.3609965783
 31
0.0
  0
LINE
  5
21A
330
1F
100
AcDbEntity
  8
0
  6
Continuous
 62
     7
370
    15
100
AcDbLine
 10
892.5669792245
 20
508.3609965783
 30
0.0
 11
766.5669792245
 21
508.3609965783
 31
0.0
  0
LINE
  5
21B
330
1F
100
AcDbEntity
  8
0
  6
Continuous
 62
     7
370
    15
100
AcDbLine
 10
892.5669792245
 20
378.3609965783
 30
0.0
 11
892.5669792245
 21
508.3609965783
 31
0.0
  0
LINE
  5
21C
330
1F
100
AcDbEntity
  8
0
  6
Continuous
 62
     7
370
    15
100
AcDbLine
 10
766.5669792245
 20
378.3609965783
 30
0.0
 11
892.5669792245
 21
378.3609965783
 31
0.0
  0
LINE
  5
21D
330
1F
100
AcDbEntity
  8
0
  6
Continuous
 62
     7
370
    15
100
AcDbLine
 10
766.5669792245
 20
508.3609965783
 30
0.0
 11
766.5669792245
 21
378.3609965783
 31
0.0
  0
CIRCLE
  5
21E
330
1F
100
AcDbEntity
  8
0
  6
Continuous
 62
     7
370
    15
100
AcDbCircle
 10
829.5669792245
 20
448.3609965783
 30
0.0
 40
32.5
  0
LINE
  5
21F
330
1F
100
AcDbEntity
  8
0
  6
Continuous
 62
     7
370
    15
100
AcDbLine
 10
841.6669792245
 20
383.3609965783
 30
0.0
 11
844.4669792245
 21
383.3609965783
 31
0.0
  0
LINE
  5
220
330
1F
100
AcDbEntity
  8
0
  6
Continuous
 62
     7
370
    15
100
AcDbLine
 10
844.4669792245
 20
383.3609965783
 30
0.0
 11
844.4669792245
 21
403.3609965783
 31
0.0
  0
LINE
  5
221
330
1F
100
AcDbEntity
  8
0
  6
Continuous
 62
     7
370
    15
100
AcDbLine
 10
844.4669792245
 20
403.3609965783
 30
0.0
 11
841.6669792245
 21
403.3609965783
 31
0.0
  0
LINE
  5
222
330
1F
100
AcDbEntity
  8
0
  6
Continuous
 62
     7
370
    15
100
AcDbLine
 10
841.6669792245
 20
403.3609965783
 30
0.0
 11
841.6669792245
 21
383.3609965783
 31
0.0
  0
CIRCLE
  5
223
330
1F
100
AcDbEntity
  8
0
  6
Continuous
 62
     7
370
    15
100
AcDbCircle
 10
781.5669792245
 20
448.3609965783
 30
0.0
 40
2.0
  0
CIRCLE
  5
224
330
1F
100
AcDbEntity
  8
0
  6
Continuous
 62
     7
370
    15
100
AcDbCircle
 10
805.5669792245
 20
406.7917771966
 30
0.0
 40
2.0
  0
CIRCLE
  5
225
330
1F
100
AcDbEntity
  8
0
  6
Continuous
 62
     7
370
    15
100
AcDbCircle
 10
853.5669792245
 20
406.7917771966
 30
0.0
 40
2.0
  0
CIRCLE
  5
226
330
1F
100
AcDbEntity
  8
0
  6
Continuous
 62
     7
370
    15
100
AcDbCircle
 10
853.5669792245
 20
489.93021596
 30
0.0
 40
2.0
  0
CIRCLE
  5
227
330
1F
100
AcDbEntity
  8
0
  6
Continuous
 62
     7
370
    15
100
AcDbCircle
 10
877.5669792245
 20
448.3609965783
 30
0.0
 40
2.0
  0
CIRCLE
  5
228
330
1F
100
AcDbEntity
  8
0
  6
Continuous
 62
     7
370
    15
100
AcDbCircle
 10
805.5669792245
 20
489.93021596
 30
0.0
 40
2.0
  0
CIRCLE
  5
229
330
1F
100
AcDbEntity
  8
0
  6
Continuous
 62
     7
370
    15
100
AcDbCircle
 10
829.5669792245
 20
384.3609965783
 30
0.0
 40
2.299999999999955
  0
INSERT
  5
235
330
1F
100
AcDbEntity
  8
CENTER
100
AcDbBlockReference
  2
SW_CENTERMARKSYMBOL_17
 10
829.5669792245
 20
448.3609965783
 30
0.0
  0
INSERT
  5
241
330
1F
100
AcDbEntity
  8
CENTER
100
AcDbBlockReference
  2
SW_CENTERMARKSYMBOL_18
 10
781.5669792245
 20
448.3609965783
 30
0.0
  0
INSERT
  5
24D
330
1F
100
AcDbEntity
  8
CENTER
100
AcDbBlockReference
  2
SW_CENTERMARKSYMBOL_19
 10
805.5669792245
 20
406.7917771966
 30
0.0
  0
INSERT
  5
259
330
1F
100
AcDbEntity
  8
CENTER
100
AcDbBlockReference
  2
SW_CENTERMARKSYMBOL_20
 10
853.5669792245
 20
406.7917771966
 30
0.0
  0
INSERT
  5
265
330
1F
100
AcDbEntity
  8
CENTER
100
AcDbBlockReference
  2
SW_CENTERMARKSYMBOL_21
 10
853.5669792245
 20
489.93021596
 30
0.0
  0
INSERT
  5
271
330
1F
100
AcDbEntity
  8
CENTER
100
AcDbBlockReference
  2
SW_CENTERMARKSYMBOL_22
 10
877.5669792245
 20
448.3609965783
 30
0.0
  0
INSERT
  5
27D
330
1F
100
AcDbEntity
  8
CENTER
100
AcDbBlockReference
  2
SW_CENTERMARKSYMBOL_23
 10
805.5669792245
 20
489.93021596
 30
0.0
  0
INSERT
  5
289
330
1F
100
AcDbEntity
  8
CENTER
100
AcDbBlockReference
  2
SW_CENTERMARKSYMBOL_24
 10
829.5669792245
 20
384.3609965783
 30
0.0
  0
LINE
  5
28A
330
1F
100
AcDbEntity
  8
0
  6
Continuous
 62
     7
370
    15
100
AcDbLine
 10
648.6458366998
 20
481.6434223439
 30
0.0
 11
648.6458366998
 21
501.6434223439
 31
0.0
  0
LINE
  5
28B
330
1F
100
AcDbEntity
  8
0
  6
Continuous
 62
     7
370
    15
100
AcDbLine
 10
648.6458366998
 20
501.6434223439
 30
0.0
 11
645.8458366998
 21
501.6434223439
 31
0.0
  0
LINE
  5
28C
330
1F
100
AcDbEntity
  8
0
  6
Continuous
 62
     7
370
    15
100
AcDbLine
 10
645.8458366998
 20
501.6434223439
 30
0.0
 11
645.8458366998
 21
481.6434223439
 31
0.0
  0
LINE
  5
28D
330
1F
100
AcDbEntity
  8
0
  6
Continuous
 62
     7
370
    15
100
AcDbLine
 10
645.8458366998
 20
481.6434223439
 30
0.0
 11
648.6458366998
 21
481.6434223439
 31
0.0
  0
ARC
  5
28E
330
1F
100
AcDbEntity
  8
0
  6
Continuous
 62
     7
370
    15
100
AcDbCircle
 10
635.7458366998
 20
481.6434223439
 30
0.0
 40
5.0
100
AcDbArc
 50
180.0
 51
270.0
  0
LINE
  5
28F
330
1F
100
AcDbEntity
  8
0
  6
Continuous
 62
     7
370
    15
100
AcDbLine
 10
630.7458366998
 20
535.2607174283
 30
0.0
 11
630.7458366998
 21
481.6434223439
 31
0.0
  0
ARC
  5
290
330
1F
100
AcDbEntity
  8
0
  6
Continuous
 62
     7
370
    15
100
AcDbCircle
 10
600.7458366998
 20
535.2607174283
 30
0.0
 40
30.00000000000001
100
AcDbArc
 50
0.0
 51
34.7348595398
  0
LINE
  5
291
330
1F
100
AcDbEntity
  8
0
  6
Continuous
 62
     7
370
    15
100
AcDbLine
 10
578.7458366998
 20
619.6434223439
 30
0.0
 11
625.3997626418
 21
552.3541060814
 31
0.0
  0
LINE
  5
292
330
1F
100
AcDbEntity
  8
0
  6
Continuous
 62
     7
370
    15
100
AcDbLine
 10
606.2458366998
 20
619.6434223439
 30
0.0
 11
578.7458366998
 21
619.6434223439
 31
0.0
  0
LINE
  5
293
330
1F
100
AcDbEntity
  8
0
  6
Continuous
 62
     7
370
    15
100
AcDbLine
 10
606.2458366998
 20
622.6434223439
 30
0.0
 11
606.2458366998
 21
619.6434223439
 31
0.0
  0
LINE
  5
294
330
1F
100
AcDbEntity
  8
0
  6
Continuous
 62
     7
370
    15
100
AcDbLine
 10
626.2458366998
 20
622.6434223439
 30
0.0
 11
606.2458366998
 21
622.6434223439
 31
0.0
  0
LINE
  5
295
330
1F
100
AcDbEntity
  8
0
  6
Continuous
 62
     7
370
    15
100
AcDbLine
 10
626.2458366998
 20
619.6434223439
 30
0.0
 11
626.2458366998
 21
622.6434223439
 31
0.0
  0
LINE
  5
296
330
1F
100
AcDbEntity
  8
0
  6
Continuous
 62
     7
370
    15
100
AcDbLine
 10
653.7458366998
 20
619.6434223439
 30
0.0
 11
626.2458366998
 21
619.6434223439
 31
0.0
  0
LINE
  5
297
330
1F
100
AcDbEntity
  8
0
  6
Continuous
 62
     7
370
    15
100
AcDbLine
 10
653.7458366998
 20
481.6434223439
 30
0.0
 11
653.7458366998
 21
619.6434223439
 31
0.0
  0
ARC
  5
298
330
1F
100
AcDbEntity
  8
0
  6
Continuous
 62
     7
370
    15
100
AcDbCircle
 10
648.7458366998
 20
481.6434223439
 30
0.0
 40
5.0
100
AcDbArc
 50
270.0
 51
0.0
  0
LINE
  5
299
330
1F
100
AcDbEntity
  8
0
  6
Continuous
 62
     7
370
    15
100
AcDbLine
 10
635.7458366998
 20
476.6434223439
 30
0.0
 11
648.7458366998
 21
476.6434223439
 31
0.0
  0
LINE
  5
29A
330
1F
100
AcDbEntity
  8
0
  6
Continuous
 62
     7
370
    15
100
AcDbLine
 10
638.6458366998
 20
481.6434223439
 30
0.0
 11
638.6458366998
 21
501.6434223439
 31
0.0
  0
LINE
  5
29B
330
1F
100
AcDbEntity
  8
0
  6
Continuous
 62
     7
370
    15
100
AcDbLine
 10
638.6458366998
 20
501.6434223439
 30
0.0
 11
635.8458366998
 21
501.6434223439
 31
0.0
  0
LINE
  5
29C
330
1F
100
AcDbEntity
  8
0
  6
Continuous
 62
     7
370
    15
100
AcDbLine
 10
635.8458366998
 20
501.6434223439
 30
0.0
 11
635.8458366998
 21
481.6434223439
 31
0.0
  0
LINE
  5
29D
330
1F
100
AcDbEntity
  8
0
  6
Continuous
 62
     7
370
    15
100
AcDbLine
 10
635.8458366998
 20
481.6434223439
 30
0.0
 11
638.6458366998
 21
481.6434223439
 31
0.0
  0
CIRCLE
  5
29E
330
1F
100
AcDbEntity
  8
0
  6
Continuous
 62
     7
370
    15
100
AcDbCircle
 10
641.7458366998
 20
557.6434223439
 30
0.0
 40
7.5
  0
CIRCLE
  5
29F
330
1F
100
AcDbEntity
  8
0
  6
Continuous
 62
     7
370
    15
100
AcDbCircle
 10
636.6958366998
 20
544.1434223439
 30
0.0
 40
2.299999999999955
  0
CIRCLE
  5
2A0
330
1F
100
AcDbEntity
  8
0
  6
Continuous
 62
     7
370
    15
100
AcDbCircle
 10
646.7958366998
 20
544.1434223439
 30
0.0
 40
2.300000000000068
  0
CIRCLE
  5
2A1
330
1F
100
AcDbEntity
  8
0
  6
Continuous
 62
     7
370
    15
100
AcDbCircle
 10
636.6958366998
 20
594.1434223439
 30
0.0
 40
2.299999999999955
  0
CIRCLE
  5
2A2
330
1F
100
AcDbEntity
  8
0
  6
Continuous
 62
     7
370
    15
100
AcDbCircle
 10
646.7958366998
 20
594.1434223439
 30
0.0
 40
2.300000000000068
  0
INSERT
  5
2AE
330
1F
100
AcDbEntity
  8
CENTER
100
AcDbBlockReference
  2
SW_CENTERMARKSYMBOL_25
 10
641.7458366998
 20
557.6434223439
 30
0.0
  0
INSERT
  5
2BA
330
1F
100
AcDbEntity
  8
CENTER
100
AcDbBlockReference
  2
SW_CENTERMARKSYMBOL_26
 10
636.6958366998
 20
544.1434223439
 30
0.0
  0
INSERT
  5
2C6
330
1F
100
AcDbEntity
  8
CENTER
100
AcDbBlockReference
  2
SW_CENTERMARKSYMBOL_27
 10
646.7958366998
 20
544.1434223439
 30
0.0
  0
INSERT
  5
2D2
330
1F
100
AcDbEntity
  8
CENTER
100
AcDbBlockReference
  2
SW_CENTERMARKSYMBOL_28
 10
636.6958366998
 20
594.1434223439
 30
0.0
  0
INSERT
  5
2DE
330
1F
100
AcDbEntity
  8
CENTER
100
AcDbBlockReference
  2
SW_CENTERMARKSYMBOL_29
 10
646.7958366998
 20
594.1434223439
 30
0.0
  0
LINE
  5
2DF
330
1F
100
AcDbEntity
  8
0
  6
Continuous
 62
     7
370
    15
100
AcDbLine
 10
558.7963406797
 20
201.2974795814
 30
0.0
 11
558.7963406797
 21
181.2974795814
 31
0.0
  0
LINE
  5
2E0
330
1F
100
AcDbEntity
  8
0
  6
Continuous
 62
     7
370
    15
100
AcDbLine
 10
558.7963406797
 20
181.2974795814
 30
0.0
 11
561.5963406797
 21
181.2974795814
 31
0.0
  0
LINE
  5
2E1
330
1F
100
AcDbEntity
  8
0
  6
Continuous
 62
     7
370
    15
100
AcDbLine
 10
561.5963406797
 20
181.2974795814
 30
0.0
 11
561.5963406797
 21
201.2974795814
 31
0.0
  0
LINE
  5
2E2
330
1F
100
AcDbEntity
  8
0
  6
Continuous
 62
     7
370
    15
100
AcDbLine
 10
561.5963406797
 20
201.2974795814
 30
0.0
 11
558.7963406797
 21
201.2974795814
 31
0.0
  0
LINE
  5
2E3
330
1F
100
AcDbEntity
  8
0
  6
Continuous
 62
     7
370
    15
100
AcDbLine
 10
451.5963406797
 20
181.2974795814
 30
0.0
 11
451.5963406797
 21
201.2974795814
 31
0.0
  0
LINE
  5
2E4
330
1F
100
AcDbEntity
  8
0
  6
Continuous
 62
     7
370
    15
100
AcDbLine
 10
451.5963406797
 20
201.2974795814
 30
0.0
 11
448.7963406797
 21
201.2974795814
 31
0.0
  0
LINE
  5
2E5
330
1F
100
AcDbEntity
  8
0
  6
Continuous
 62
     7
370
    15
100
AcDbLine
 10
448.7963406797
 20
201.2974795814
 30
0.0
 11
448.7963406797
 21
181.2974795814
 31
0.0
  0
LINE
  5
2E6
330
1F
100
AcDbEntity
  8
0
  6
Continuous
 62
     7
370
    15
100
AcDbLine
 10
448.7963406797
 20
181.2974795814
 30
0.0
 11
451.5963406797
 21
181.2974795814
 31
0.0
  0
LINE
  5
2E7
330
1F
100
AcDbEntity
  8
0
  6
Continuous
 62
     7
370
    15
100
AcDbLine
 10
438.7963406797
 20
201.2974795814
 30
0.0
 11
438.7963406797
 21
181.2974795814
 31
0.0
  0
LINE
  5
2E8
330
1F
100
AcDbEntity
  8
0
  6
Continuous
 62
     7
370
    15
100
AcDbLine
 10
438.7963406797
 20
181.2974795814
 30
0.0
 11
441.5963406797
 21
181.2974795814
 31
0.0
  0
LINE
  5
2E9
330
1F
100
AcDbEntity
  8
0
  6
Continuous
 62
     7
370
    15
100
AcDbLine
 10
441.5963406797
 20
181.2974795814
 30
0.0
 11
441.5963406797
 21
201.2974795814
 31
0.0
  0
LINE
  5
2EA
330
1F
100
AcDbEntity
  8
0
  6
Continuous
 62
     7
370
    15
100
AcDbLine
 10
441.5963406797
 20
201.2974795814
 30
0.0
 11
438.7963406797
 21
201.2974795814
 31
0.0
  0
LINE
  5
2EB
330
1F
100
AcDbEntity
  8
0
  6
Continuous
 62
     7
370
    15
100
AcDbLine
 10
571.5963406797
 20
181.2974795814
 30
0.0
 11
571.5963406797
 21
201.2974795814
 31
0.0
  0
LINE
  5
2EC
330
1F
100
AcDbEntity
  8
0
  6
Continuous
 62
     7
370
    15
100
AcDbLine
 10
571.5963406797
 20
201.2974795814
 30
0.0
 11
568.7963406797
 21
201.2974795814
 31
0.0
  0
LINE
  5
2ED
330
1F
100
AcDbEntity
  8
0
  6
Continuous
 62
     7
370
    15
100
AcDbLine
 10
568.7963406797
 20
201.2974795814
 30
0.0
 11
568.7963406797
 21
181.2974795814
 31
0.0
  0
LINE
  5
2EE
330
1F
100
AcDbEntity
  8
0
  6
Continuous
 62
     7
370
    15
100
AcDbLine
 10
568.7963406797
 20
181.2974795814
 30
0.0
 11
571.5963406797
 21
181.2974795814
 31
0.0
  0
LINE
  5
2EF
330
1F
100
AcDbEntity
  8
0
  6
Continuous
 62
     7
370
    15
100
AcDbLine
 10
404.5963406797
 20
199.2974795814
 30
0.0
 11
404.5963406797
 21
179.4974795814
 31
0.0
  0
LINE
  5
2F0
330
1F
100
AcDbEntity
  8
0
  6
Continuous
 62
     7
370
    15
100
AcDbLine
 10
401.5963406797
 20
199.2974795814
 30
0.0
 11
404.5963406797
 21
199.2974795814
 31
0.0
  0
LINE
  5
2F1
330
1F
100
AcDbEntity
  8
0
  6
Continuous
 62
     7
370
    15
100
AcDbLine
 10
404.5963406797
 20
319.4974795814
 30
0.0
 11
401.5963406797
 21
319.4974795814
 31
0.0
  0
LINE
  5
2F2
330
1F
100
AcDbEntity
  8
0
  6
Continuous
 62
     7
370
    15
100
AcDbLine
 10
404.5963406797
 20
339.2974795814
 30
0.0
 11
404.5963406797
 21
319.4974795814
 31
0.0
  0
LINE
  5
2F3
330
1F
100
AcDbEntity
  8
0
  6
Continuous
 62
     7
370
    15
100
AcDbLine
 10
401.5963406797
 20
339.2974795814
 30
0.0
 11
404.5963406797
 21
339.2974795814
 31
0.0
  0
LINE
  5
2F4
330
1F
100
AcDbEntity
  8
0
  6
Continuous
 62
     7
370
    15
100
AcDbLine
 10
401.5963406797
 20
389.2974795814
 30
0.0
 11
401.5963406797
 21
339.2974795814
 31
0.0
  0
LINE
  5
2F5
330
1F
100
AcDbEntity
  8
0
  6
Continuous
 62
     7
370
    15
100
AcDbLine
 10
406.5963406797
 20
389.2974795814
 30
0.0
 11
401.5963406797
 21
389.2974795814
 31
0.0
  0
LINE
  5
2F6
330
1F
100
AcDbEntity
  8
0
  6
Continuous
 62
     7
370
    15
100
AcDbLine
 10
406.5963406797
 20
392.2974795814
 30
0.0
 11
406.5963406797
 21
389.2974795814
 31
0.0
  0
LINE
  5
2F7
330
1F
100
AcDbEntity
  8
0
  6
Continuous
 62
     7
370
    15
100
AcDbLine
 10
426.5963406797
 20
392.2974795814
 30
0.0
 11
406.5963406797
 21
392.2974795814
 31
0.0
  0
LINE
  5
2F8
330
1F
100
AcDbEntity
  8
0
  6
Continuous
 62
     7
370
    15
100
AcDbLine
 10
426.5963406797
 20
389.2974795814
 30
0.0
 11
426.5963406797
 21
392.2974795814
 31
0.0
  0
LINE
  5
2F9
330
1F
100
AcDbEntity
  8
0
  6
Continuous
 62
     7
370
    15
100
AcDbLine
 10
431.5963406797
 20
389.2974795814
 30
0.0
 11
426.5963406797
 21
389.2974795814
 31
0.0
  0
LINE
  5
2FA
330
1F
100
AcDbEntity
  8
0
  6
Continuous
 62
     7
370
    15
100
AcDbLine
 10
431.5963406797
 20
223.7585981396
 30
0.0
 11
431.5963406797
 21
389.2974795814
 31
0.0
  0
ARC
  5
2FB
330
1F
100
AcDbEntity
  8
0
  6
Continuous
 62
     7
370
    15
100
AcDbCircle
 10
436.5963406797
 20
223.7585981396
 30
0.0
 40
4.999999999999964
100
AcDbArc
 50
180.0
 51
263.4801982483
  0
LINE
  5
2FC
330
1F
100
AcDbEntity
  8
0
  6
Continuous
 62
     7
370
    15
100
AcDbLine
 10
602.1640736355
 20
199.8040243864
 30
0.0
 11
436.0286077239
 21
218.7909347763
 31
0.0
  0
ARC
  5
2FD
330
1F
100
AcDbEntity
  8
0
  6
Continuous
 62
     7
370
    15
100
AcDbCircle
 10
601.5963406797
 20
194.8363610231
 30
0.0
 40
5.000000000000114
100
AcDbArc
 50
0.0
 51
83.4801982483
  0
LINE
  5
2FE
330
1F
100
AcDbEntity
  8
0
  6
Continuous
 62
     7
370
    15
100
AcDbLine
 10
606.5963406797
 20
191.3685473932
 30
0.0
 11
606.5963406797
 21
194.8363610231
 31
0.0
  0
ARC
  5
2FF
330
1F
100
AcDbEntity
  8
0
  6
Continuous
 62
     7
370
    15
100
AcDbCircle
 10
601.5963406797
 20
191.3685473932
 30
0.0
 40
5.0
100
AcDbArc
 50
315.0
 51
0.0
  0
LINE
  5
300
330
1F
100
AcDbEntity
  8
0
  6
Continuous
 62
     7
370
    15
100
AcDbLine
 10
593.0608067737
 20
175.7619456754
 30
0.0
 11
605.1318745856
 21
187.8330134873
 31
0.0
  0
ARC
  5
301
330
1F
100
AcDbEntity
  8
0
  6
Continuous
 62
     7
370
    15
100
AcDbCircle
 10
596.5963406797
 20
172.2264117695
 30
0.0
 40
5.0
100
AcDbArc
 50
135.0
 51
180.0
  0
LINE
  5
302
330
1F
100
AcDbEntity
  8
0
  6
Continuous
 62
     7
370
    15
100
AcDbLine
 10
591.5963406797
 20
129.2974795814
 30
0.0
 11
591.5963406797
 21
172.2264117695
 31
0.0
  0
LINE
  5
303
330
1F
100
AcDbEntity
  8
0
  6
Continuous
 62
     7
370
    15
100
AcDbLine
 10
586.5963406797
 20
129.2974795814
 30
0.0
 11
591.5963406797
 21
129.2974795814
 31
0.0
  0
LINE
  5
304
330
1F
100
AcDbEntity
  8
0
  6
Continuous
 62
     7
370
    15
100
AcDbLine
 10
586.5963406797
 20
126.2974795814
 30
0.0
 11
586.5963406797
 21
129.2974795814
 31
0.0
  0
LINE
  5
305
330
1F
100
AcDbEntity
  8
0
  6
Continuous
 62
     7
370
    15
100
AcDbLine
 10
566.5963406797
 20
126.2974795814
 30
0.0
 11
586.5963406797
 21
126.2974795814
 31
0.0
  0
LINE
  5
306
330
1F
100
AcDbEntity
  8
0
  6
Continuous
 62
     7
370
    15
100
AcDbLine
 10
566.5963406797
 20
129.2974795814
 30
0.0
 11
566.5963406797
 21
126.2974795814
 31
0.0
  0
LINE
  5
307
330
1F
100
AcDbEntity
  8
0
  6
Continuous
 62
     7
370
    15
100
AcDbLine
 10
561.5963406797
 20
129.2974795814
 30
0.0
 11
566.5963406797
 21
129.2974795814
 31
0.0
  0
LINE
  5
308
330
1F
100
AcDbEntity
  8
0
  6
Continuous
 62
     7
370
    15
100
AcDbLine
 10
561.5963406797
 20
167.2974795814
 30
0.0
 11
561.5963406797
 21
129.2974795814
 31
0.0
  0
ARC
  5
309
330
1F
100
AcDbEntity
  8
0
  6
Continuous
 62
     7
370
    15
100
AcDbCircle
 10
551.5963406797
 20
167.2974795814
 30
0.0
 40
10.0
100
AcDbArc
 50
0.0
 51
90.0
  0
LINE
  5
30A
330
1F
100
AcDbEntity
  8
0
  6
Continuous
 62
     7
370
    15
100
AcDbLine
 10
551.5963406797
 20
177.2974795814
 30
0.0
 11
441.5963406797
 21
177.2974795814
 31
0.0
  0
ARC
  5
30B
330
1F
100
AcDbEntity
  8
0
  6
Continuous
 62
     7
370
    15
100
AcDbCircle
 10
441.5963406797
 20
167.2974795814
 30
0.0
 40
10.0
100
AcDbArc
 50
90.0
 51
180.0
  0
LINE
  5
30C
330
1F
100
AcDbEntity
  8
0
  6
Continuous
 62
     7
370
    15
100
AcDbLine
 10
431.5963406797
 20
129.2974795814
 30
0.0
 11
431.5963406797
 21
167.2974795814
 31
0.0
  0
LINE
  5
30D
330
1F
100
AcDbEntity
  8
0
  6
Continuous
 62
     7
370
    15
100
AcDbLine
 10
426.5963406797
 20
129.2974795814
 30
0.0
 11
431.5963406797
 21
129.2974795814
 31
0.0
  0
LINE
  5
30E
330
1F
100
AcDbEntity
  8
0
  6
Continuous
 62
     7
370
    15
100
AcDbLine
 10
426.5963406797
 20
126.2974795814
 30
0.0
 11
426.5963406797
 21
129.2974795814
 31
0.0
  0
LINE
  5
30F
330
1F
100
AcDbEntity
  8
0
  6
Continuous
 62
     7
370
    15
100
AcDbLine
 10
406.5963406797
 20
126.2974795814
 30
0.0
 11
426.5963406797
 21
126.2974795814
 31
0.0
  0
LINE
  5
310
330
1F
100
AcDbEntity
  8
0
  6
Continuous
 62
     7
370
    15
100
AcDbLine
 10
406.5963406797
 20
129.2974795814
 30
0.0
 11
406.5963406797
 21
126.2974795814
 31
0.0
  0
LINE
  5
311
330
1F
100
AcDbEntity
  8
0
  6
Continuous
 62
     7
370
    15
100
AcDbLine
 10
401.5963406797
 20
129.2974795814
 30
0.0
 11
406.5963406797
 21
129.2974795814
 31
0.0
  0
LINE
  5
312
330
1F
100
AcDbEntity
  8
0
  6
Continuous
 62
     7
370
    15
100
AcDbLine
 10
404.5963406797
 20
179.4974795814
 30
0.0
 11
401.5963406797
 21
179.4974795814
 31
0.0
  0
LINE
  5
313
330
1F
100
AcDbEntity
  8
0
  6
Continuous
 62
     7
370
    15
100
AcDbLine
 10
401.5963406797
 20
319.4974795814
 30
0.0
 11
401.5963406797
 21
199.2974795814
 31
0.0
  0
LINE
  5
314
330
1F
100
AcDbEntity
  8
0
  6
Continuous
 62
     7
370
    15
100
AcDbLine
 10
401.5963406797
 20
179.4974795814
 30
0.0
 11
401.5963406797
 21
129.2974795814
 31
0.0
  0
LINE
  5
315
330
1F
100
AcDbEntity
  8
0
  6
Continuous
 62
     7
370
    15
100
AcDbLine
 10
1138.405472579
 20
590.206726364
 30
0.0
 11
1138.405472579
 21
610.206726364
 31
0.0
  0
LINE
  5
316
330
1F
100
AcDbEntity
  8
0
  6
Continuous
 62
     7
370
    15
100
AcDbLine
 10
1138.405472579
 20
610.206726364
 30
0.0
 11
1135.605472579
 21
610.206726364
 31
0.0
  0
LINE
  5
317
330
1F
100
AcDbEntity
  8
0
  6
Continuous
 62
     7
370
    15
100
AcDbLine
 10
1135.605472579
 20
610.206726364
 30
0.0
 11
1135.605472579
 21
590.206726364
 31
0.0
  0
LINE
  5
318
330
1F
100
AcDbEntity
  8
0
  6
Continuous
 62
     7
370
    15
100
AcDbLine
 10
1135.605472579
 20
590.206726364
 30
0.0
 11
1138.405472579
 21
590.206726364
 31
0.0
  0
LINE
  5
319
330
1F
100
AcDbEntity
  8
0
  6
Continuous
 62
     7
370
    15
100
AcDbLine
 10
1005.605472579
 20
625.206726364
 30
0.0
 11
1005.605472579
 21
605.2067263615
 31
0.0
  0
LINE
  5
31A
330
1F
100
AcDbEntity
  8
0
  6
Continuous
 62
     7
370
    15
100
AcDbLine
 10
1005.605472579
 20
605.2067263615
 30
0.0
 11
1008.405472579
 21
605.2067263615
 31
0.0
  0
LINE
  5
31B
330
1F
100
AcDbEntity
  8
0
  6
Continuous
 62
     7
370
    15
100
AcDbLine
 10
1008.405472579
 20
605.2067263615
 30
0.0
 11
1008.405472579
 21
625.206726364
 31
0.0
  0
LINE
  5
31C
330
1F
100
AcDbEntity
  8
0
  6
Continuous
 62
     7
370
    15
100
AcDbLine
 10
1008.405472579
 20
625.206726364
 30
0.0
 11
1005.605472579
 21
625.206726364
 31
0.0
  0
LINE
  5
31D
330
1F
100
AcDbEntity
  8
0
  6
Continuous
 62
     7
370
    15
100
AcDbLine
 10
1128.405472579
 20
590.206726364
 30
0.0
 11
1128.405472579
 21
610.206726364
 31
0.0
  0
LINE
  5
31E
330
1F
100
AcDbEntity
  8
0
  6
Continuous
 62
     7
370
    15
100
AcDbLine
 10
1128.405472579
 20
610.206726364
 30
0.0
 11
1125.605472579
 21
610.206726364
 31
0.0
  0
LINE
  5
31F
330
1F
100
AcDbEntity
  8
0
  6
Continuous
 62
     7
370
    15
100
AcDbLine
 10
1125.605472579
 20
610.206726364
 30
0.0
 11
1125.605472579
 21
590.206726364
 31
0.0
  0
LINE
  5
320
330
1F
100
AcDbEntity
  8
0
  6
Continuous
 62
     7
370
    15
100
AcDbLine
 10
1125.605472579
 20
590.206726364
 30
0.0
 11
1128.405472579
 21
590.206726364
 31
0.0
  0
LINE
  5
321
330
1F
100
AcDbEntity
  8
0
  6
Continuous
 62
     7
370
    15
100
AcDbLine
 10
1015.605472579
 20
625.206726364
 30
0.0
 11
1015.605472579
 21
606.2540206277
 31
0.0
  0
LINE
  5
322
330
1F
100
AcDbEntity
  8
0
  6
Continuous
 62
     7
370
    15
100
AcDbLine
 10
1015.605472579
 20
606.2540206277
 30
0.0
 11
1018.405472579
 21
606.2540206277
 31
0.0
  0
LINE
  5
323
330
1F
100
AcDbEntity
  8
0
  6
Continuous
 62
     7
370
    15
100
AcDbLine
 10
1018.405472579
 20
606.2540206277
 30
0.0
 11
1018.405472579
 21
625.206726364
 31
0.0
  0
LINE
  5
324
330
1F
100
AcDbEntity
  8
0
  6
Continuous
 62
     7
370
    15
100
AcDbLine
 10
1018.405472579
 20
625.206726364
 30
0.0
 11
1015.605472579
 21
625.206726364
 31
0.0
  0
ARC
  5
325
330
1F
100
AcDbEntity
  8
0
  6
Continuous
 62
     7
370
    15
100
AcDbCircle
 10
1163.405472579
 20
592.3525439348
 30
0.0
 40
10.0
100
AcDbArc
 50
0.0
 51
68.014758599
  0
LINE
  5
326
330
1F
100
AcDbEntity
  8
0
  6
Continuous
 62
     7
370
    15
100
AcDbLine
 10
1173.405472579
 20
587.1802344603
 30
0.0
 11
1173.405472579
 21
592.3525439348
 31
0.0
  0
ARC
  5
327
330
1F
100
AcDbEntity
  8
0
  6
Continuous
 62
     7
370
    15
100
AcDbCircle
 10
1163.405472579
 20
587.1802344603
 30
0.0
 40
10.00000000000008
100
AcDbArc
 50
264.3332166464
 51
0.0
  0
LINE
  5
328
330
1F
100
AcDbEntity
  8
0
  6
Continuous
 62
     7
370
    15
100
AcDbLine
 10
1004.5180439818
 20
592.8971723101
 30
0.0
 11
1162.4180439818
 21
577.2291046368
 31
0.0
  0
ARC
  5
329
330
1F
100
AcDbEntity
  8
0
  6
Continuous
 62
     7
370
    15
100
AcDbCircle
 10
1005.505472579
 20
602.8483021336
 30
0.0
 40
9.999999999999929
100
AcDbArc
 50
180.0
 51
264.3332166464
  0
LINE
  5
32A
330
1F
100
AcDbEntity
  8
0
  6
Continuous
 62
     7
370
    15
100
AcDbLine
 10
995.505472579
 20
646.829303847
 30
0.0
 11
995.505472579
 21
602.8483021336
 31
0.0
  0
ARC
  5
32B
330
1F
100
AcDbEntity
  8
0
  6
Continuous
 62
     7
370
    15
100
AcDbCircle
 10
1005.505472579
 20
646.829303847
 30
0.0
 40
10.0
100
AcDbArc
 50
90.0
 51
180.0
  0
LINE
  5
32C
330
1F
100
AcDbEntity
  8
0
  6
Continuous
 62
     7
370
    15
100
AcDbLine
 10
1005.505472579
 20
656.829303847
 30
0.0
 11
1028.4707004377
 21
656.829303847
 31
0.0
  0
ARC
  5
32D
330
1F
100
AcDbEntity
  8
0
  6
Continuous
 62
     7
370
    15
100
AcDbCircle
 10
1028.4707004377
 20
646.829303847
 30
0.0
 40
10.00000000000004
100
AcDbArc
 50
68.014758599
 51
90.0
  0
LINE
  5
32E
330
1F
100
AcDbEntity
  8
0
  6
Continuous
 62
     7
370
    15
100
AcDbLine
 10
1167.1491500918
 20
601.6253471076
 30
0.0
 11
1032.2143779505
 21
656.1021070197
 31
0.0
  0
CIRCLE
  5
32F
330
1F
100
AcDbEntity
  8
0
  6
Continuous
 62
     7
370
    15
100
AcDbCircle
 10
714.1444128552
 20
682.090814941
 30
0.0
 40
2.299999999999955
  0
LINE
  5
330
330
1F
100
AcDbEntity
  8
0
  6
Continuous
 62
     7
370
    15
100
AcDbLine
 10
694.1444128552
 20
669.590814941
 30
0.0
 11
699.2444128552
 21
669.590814941
 31
0.0
  0
LINE
  5
331
330
1F
100
AcDbEntity
  8
0
  6
Continuous
 62
     7
370
    15
100
AcDbLine
 10
699.2444128552
 20
669.590814941
 30
0.0
 11
699.2444128552
 21
672.090814941
 31
0.0
  0
LINE
  5
332
330
1F
100
AcDbEntity
  8
0
  6
Continuous
 62
     7
370
    15
100
AcDbLine
 10
699.2444128552
 20
672.090814941
 30
0.0
 11
702.0444128552
 21
672.090814941
 31
0.0
  0
LINE
  5
333
330
1F
100
AcDbEntity
  8
0
  6
Continuous
 62
     7
370
    15
100
AcDbLine
 10
702.0444128552
 20
672.090814941
 30
0.0
 11
702.0444128552
 21
669.590814941
 31
0.0
  0
LINE
  5
334
330
1F
100
AcDbEntity
  8
0
  6
Continuous
 62
     7
370
    15
100
AcDbLine
 10
702.0444128552
 20
669.590814941
 30
0.0
 11
726.2444128552
 21
669.590814941
 31
0.0
  0
LINE
  5
335
330
1F
100
AcDbEntity
  8
0
  6
Continuous
 62
     7
370
    15
100
AcDbLine
 10
726.2444128552
 20
669.590814941
 30
0.0
 11
726.2444128552
 21
672.090814941
 31
0.0
  0
LINE
  5
336
330
1F
100
AcDbEntity
  8
0
  6
Continuous
 62
     7
370
    15
100
AcDbLine
 10
726.2444128552
 20
672.090814941
 30
0.0
 11
729.0444128552
 21
672.090814941
 31
0.0
  0
LINE
  5
337
330
1F
100
AcDbEntity
  8
0
  6
Continuous
 62
     7
370
    15
100
AcDbLine
 10
729.0444128552
 20
672.090814941
 30
0.0
 11
729.0444128552
 21
669.590814941
 31
0.0
  0
LINE
  5
338
330
1F
100
AcDbEntity
  8
0
  6
Continuous
 62
     7
370
    15
100
AcDbLine
 10
729.0444128552
 20
669.590814941
 30
0.0
 11
734.1444128552
 21
669.590814941
 31
0.0
  0
LINE
  5
339
330
1F
100
AcDbEntity
  8
0
  6
Continuous
 62
     7
370
    15
100
AcDbLine
 10
734.1444128552
 20
669.590814941
 30
0.0
 11
734.1444128552
 21
694.590814941
 31
0.0
  0
LINE
  5
33A
330
1F
100
AcDbEntity
  8
0
  6
Continuous
 62
     7
370
    15
100
AcDbLine
 10
734.1444128552
 20
694.590814941
 30
0.0
 11
729.0444128552
 21
694.590814941
 31
0.0
  0
LINE
  5
33B
330
1F
100
AcDbEntity
  8
0
  6
Continuous
 62
     7
370
    15
100
AcDbLine
 10
729.0444128552
 20
694.590814941
 30
0.0
 11
729.0444128552
 21
692.090814941
 31
0.0
  0
LINE
  5
33C
330
1F
100
AcDbEntity
  8
0
  6
Continuous
 62
     7
370
    15
100
AcDbLine
 10
729.0444128552
 20
692.090814941
 30
0.0
 11
726.2444128552
 21
692.090814941
 31
0.0
  0
LINE
  5
33D
330
1F
100
AcDbEntity
  8
0
  6
Continuous
 62
     7
370
    15
100
AcDbLine
 10
726.2444128552
 20
692.090814941
 30
0.0
 11
726.2444128552
 21
694.590814941
 31
0.0
  0
LINE
  5
33E
330
1F
100
AcDbEntity
  8
0
  6
Continuous
 62
     7
370
    15
100
AcDbLine
 10
726.2444128552
 20
694.590814941
 30
0.0
 11
702.0444128552
 21
694.590814941
 31
0.0
  0
LINE
  5
33F
330
1F
100
AcDbEntity
  8
0
  6
Continuous
 62
     7
370
    15
100
AcDbLine
 10
702.0444128552
 20
694.590814941
 30
0.0
 11
702.0444128552
 21
692.090814941
 31
0.0
  0
LINE
  5
340
330
1F
100
AcDbEntity
  8
0
  6
Continuous
 62
     7
370
    15
100
AcDbLine
 10
702.0444128552
 20
692.090814941
 30
0.0
 11
699.2444128552
 21
692.090814941
 31
0.0
  0
LINE
  5
341
330
1F
100
AcDbEntity
  8
0
  6
Continuous
 62
     7
370
    15
100
AcDbLine
 10
699.2444128552
 20
692.090814941
 30
0.0
 11
699.2444128552
 21
694.590814941
 31
0.0
  0
LINE
  5
342
330
1F
100
AcDbEntity
  8
0
  6
Continuous
 62
     7
370
    15
100
AcDbLine
 10
699.2444128552
 20
694.590814941
 30
0.0
 11
694.1444128552
 21
694.590814941
 31
0.0
  0
LINE
  5
343
330
1F
100
AcDbEntity
  8
0
  6
Continuous
 62
     7
370
    15
100
AcDbLine
 10
694.1444128552
 20
694.590814941
 30
0.0
 11
694.1444128552
 21
669.590814941
 31
0.0
  0
INSERT
  5
34F
330
1F
100
AcDbEntity
  8
CENTER
100
AcDbBlockReference
  2
SW_CENTERMARKSYMBOL_30
 10
714.1444128552
 20
682.090814941
 30
0.0
  0
LINE
  5
350
330
1F
100
AcDbEntity
  8
0
  6
Continuous
 62
     7
370
    15
100
AcDbLine
 10
819.1767610936
 20
726.0619554533
 30
0.0
 11
819.1767610936
 21
731.0619554533
 31
0.0
  0
LINE
  5
351
330
1F
100
AcDbEntity
  8
0
  6
Continuous
 62
     7
370
    15
100
AcDbLine
 10
819.1767610936
 20
726.0619554533
 30
0.0
 11
809.1767610936
 21
726.0619554533
 31
0.0
  0
LINE
  5
352
330
1F
100
AcDbEntity
  8
0
  6
Continuous
 62
     7
370
    15
100
AcDbLine
 10
809.1767610936
 20
726.0619554533
 30
0.0
 11
809.1767610936
 21
731.0619554533
 31
0.0
  0
LINE
  5
353
330
1F
100
AcDbEntity
  8
0
  6
Continuous
 62
     7
370
    15
100
AcDbLine
 10
804.1767610936
 20
731.0619554533
 30
0.0
 11
809.1767610936
 21
731.0619554533
 31
0.0
  0
LINE
  5
354
330
1F
100
AcDbEntity
  8
0
  6
Continuous
 62
     7
370
    15
100
AcDbLine
 10
804.1767610936
 20
731.0619554533
 30
0.0
 11
804.1767610936
 21
736.0619554533
 31
0.0
  0
LINE
  5
355
330
1F
100
AcDbEntity
  8
0
  6
Continuous
 62
     7
370
    15
100
AcDbLine
 10
821.1767610936
 20
753.0619554533
 30
0.0
 11
804.1767610936
 21
736.0619554533
 31
0.0
  0
LINE
  5
356
330
1F
100
AcDbEntity
  8
0
  6
Continuous
 62
     7
370
    15
100
AcDbLine
 10
821.1767610936
 20
753.0619554533
 30
0.0
 11
824.1767610936
 21
753.0619554533
 31
0.0
  0
LINE
  5
357
330
1F
100
AcDbEntity
  8
0
  6
Continuous
 62
     7
370
    15
100
AcDbLine
 10
824.1767610936
 20
748.0619554533
 30
0.0
 11
824.1767610936
 21
753.0619554533
 31
0.0
  0
LINE
  5
358
330
1F
100
AcDbEntity
  8
0
  6
Continuous
 62
     7
370
    15
100
AcDbLine
 10
827.1767610936
 20
748.0619554533
 30
0.0
 11
827.1767610936
 21
738.0619554533
 31
0.0
  0
LINE
  5
359
330
1F
100
AcDbEntity
  8
0
  6
Continuous
 62
     7
370
    15
100
AcDbLine
 10
824.1767610936
 20
733.0619554533
 30
0.0
 11
824.1767610936
 21
738.0619554533
 31
0.0
  0
LINE
  5
35A
330
1F
100
AcDbEntity
  8
0
  6
Continuous
 62
     7
370
    15
100
AcDbLine
 10
822.1767610936
 20
731.0619554533
 30
0.0
 11
824.1767610936
 21
733.0619554533
 31
0.0
  0
LINE
  5
35B
330
1F
100
AcDbEntity
  8
0
  6
Continuous
 62
     7
370
    15
100
AcDbLine
 10
819.1767610936
 20
731.0619554533
 30
0.0
 11
822.1767610936
 21
731.0619554533
 31
0.0
  0
LINE
  5
35C
330
1F
100
AcDbEntity
  8
0
  6
Continuous
 62
     7
370
    15
100
AcDbLine
 10
827.1767610936
 20
748.0619554533
 30
0.0
 11
824.1767610936
 21
748.0619554533
 31
0.0
  0
LINE
  5
35D
330
1F
100
AcDbEntity
  8
0
  6
Continuous
 62
     7
370
    15
100
AcDbLine
 10
827.1767610936
 20
738.0619554533
 30
0.0
 11
824.1767610936
 21
738.0619554533
 31
0.0
  0
ARC
  5
35E
330
1F
100
AcDbEntity
  8
0
  6
Continuous
 62
     7
370
    15
100
AcDbCircle
 10
361.6471536398
 20
697.7585844617
 30
0.0
 40
14.49999999999992
100
AcDbArc
 50
287.3592664007
 51
325.0
  0
LINE
  5
35F
330
1F
100
AcDbEntity
  8
0
  6
Continuous
 62
     7
370
    15
100
AcDbLine
 10
378.7933258232
 20
696.9658775522
 30
0.0
 11
373.524858282
 21
689.4417261346
 31
0.0
  0
ARC
  5
360
330
1F
100
AcDbEntity
  8
0
  6
Continuous
 62
     7
370
    15
100
AcDbCircle
 10
403.3678871519
 20
679.7585844617
 30
0.0
 40
29.99999999999986
100
AcDbArc
 50
20.4713822836
 51
145.0
  0
ARC
  5
361
330
1F
100
AcDbEntity
  8
0
  6
Continuous
 62
     7
370
    15
100
AcDbCircle
 10
422.1048269852
 20
686.7533743572
 30
0.0
 40
10.00000000000011
100
AcDbArc
 50
287.1173383486
 51
20.4713822836
  0
LINE
  5
362
330
1F
100
AcDbEntity
  8
0
  6
Continuous
 62
     7
370
    15
100
AcDbLine
 10
425.0481224402
 20
677.196334446
 30
0.0
 11
373.0781729852
 21
661.1910736696
 31
0.0
  0
LINE
  5
363
330
1F
100
AcDbEntity
  8
0
  6
Continuous
 62
     7
370
    15
100
AcDbLine
 10
373.0781729852
 20
661.1910736696
 30
0.0
 11
365.9734071854
 21
683.9190205141
 31
0.0
  0
LINE
  5
364
330
1F
100
AcDbEntity
  8
0
  6
Continuous
 62
     7
370
    15
100
AcDbLine
 10
54.3000453969
 20
689.1027397972
 30
0.0
 11
66.7035188537
 21
710.8088183516
 31
0.0
  0
LINE
  5
365
330
1F
100
AcDbEntity
  8
0
  6
Continuous
 62
     7
370
    15
100
AcDbLine
 10
66.7035188537
 20
710.8088183516
 30
0.0
 11
64.0987894307
 21
712.2972351676
 31
0.0
  0
LINE
  5
366
330
1F
100
AcDbEntity
  8
0
  6
Continuous
 62
     7
370
    15
100
AcDbLine
 10
64.0987894307
 20
712.2972351676
 30
0.0
 11
74.0215681966
 21
729.6620980079
 31
0.0
  0
LINE
  5
367
330
1F
100
AcDbEntity
  8
0
  6
Continuous
 62
     7
370
    15
100
AcDbLine
 10
54.3000453969
 20
689.1027397972
 30
0.0
 11
54.3000453969
 21
684.1027397972
 31
0.0
  0
LINE
  5
368
330
1F
100
AcDbEntity
  8
0
  6
Continuous
 62
     7
370
    15
100
AcDbLine
 10
54.3000453969
 20
664.1027397972
 30
0.0
 11
54.3000453969
 21
659.1027397972
 31
0.0
  0
LINE
  5
369
330
1F
100
AcDbEntity
  8
0
  6
Continuous
 62
     7
370
    15
100
AcDbLine
 10
54.3000453969
 20
659.1027397972
 30
0.0
 11
94.3000453969
 21
729.1027397972
 31
0.0
  0
LINE
  5
36A
330
1F
100
AcDbEntity
  8
0
  6
Continuous
 62
     7
370
    15
100
AcDbLine
 10
94.3000453969
 20
729.1027397972
 30
0.0
 11
94.3000453969
 21
734.1027397972
 31
0.0
  0
LINE
  5
36B
330
1F
100
AcDbEntity
  8
0
  6
Continuous
 62
     7
370
    15
100
AcDbLine
 10
94.3000453969
 20
734.1027397972
 30
0.0
 11
97.3000453969
 21
734.1027397972
 31
0.0
  0
LINE
  5
36C
330
1F
100
AcDbEntity
  8
0
  6
Continuous
 62
     7
370
    15
100
AcDbLine
 10
97.3000453969
 20
734.1027397972
 30
0.0
 11
97.3000453969
 21
754.1027397972
 31
0.0
  0
LINE
  5
36D
330
1F
100
AcDbEntity
  8
0
  6
Continuous
 62
     7
370
    15
100
AcDbLine
 10
97.3000453969
 20
754.1027397972
 30
0.0
 11
94.3000453969
 21
754.1027397972
 31
0.0
  0
LINE
  5
36E
330
1F
100
AcDbEntity
  8
0
  6
Continuous
 62
     7
370
    15
100
AcDbLine
 10
94.3000453969
 20
754.1027397972
 30
0.0
 11
94.3000453969
 21
759.1027397972
 31
0.0
  0
LINE
  5
36F
330
1F
100
AcDbEntity
  8
0
  6
Continuous
 62
     7
370
    15
100
AcDbLine
 10
94.3000453969
 20
759.1027397972
 30
0.0
 11
76.626297623
 21
728.1736811928
 31
0.0
  0
LINE
  5
370
330
1F
100
AcDbEntity
  8
0
  6
Continuous
 62
     7
370
    15
100
AcDbLine
 10
76.626297623
 20
728.1736811928
 30
0.0
 11
74.0215681966
 21
729.6620980079
 31
0.0
  0
LINE
  5
371
330
1F
100
AcDbEntity
  8
0
  6
Continuous
 62
     7
370
    15
100
AcDbLine
 10
54.3000453969
 20
684.1027397972
 30
0.0
 11
51.3000453969
 21
684.1027397972
 31
0.0
  0
LINE
  5
372
330
1F
100
AcDbEntity
  8
0
  6
Continuous
 62
     7
370
    15
100
AcDbLine
 10
51.3000453969
 20
684.1027397972
 30
0.0
 11
51.3000453969
 21
664.1027397972
 31
0.0
  0
LINE
  5
373
330
1F
100
AcDbEntity
  8
0
  6
Continuous
 62
     7
370
    15
100
AcDbLine
 10
51.3000453969
 20
664.1027397972
 30
0.0
 11
54.3000453969
 21
664.1027397972
 31
0.0
  0
LINE
  5
374
330
1F
100
AcDbEntity
  8
0
  6
Continuous
 62
     7
370
    15
100
AcDbLine
 10
48.7096450731
 20
604.6876949079
 30
0.0
 11
61.1131185299
 21
626.3937734623
 31
0.0
  0
LINE
  5
375
330
1F
100
AcDbEntity
  8
0
  6
Continuous
 62
     7
370
    15
100
AcDbLine
 10
61.1131185299
 20
626.3937734623
 30
0.0
 11
58.5083891069
 21
627.8821902783
 31
0.0
  0
LINE
  5
376
330
1F
100
AcDbEntity
  8
0
  6
Continuous
 62
     7
370
    15
100
AcDbLine
 10
58.5083891069
 20
627.8821902783
 30
0.0
 11
68.4311678728
 21
645.2470531186
 31
0.0
  0
LINE
  5
377
330
1F
100
AcDbEntity
  8
0
  6
Continuous
 62
     7
370
    15
100
AcDbLine
 10
48.7096450731
 20
604.6876949079
 30
0.0
 11
48.7096450731
 21
599.6876949079
 31
0.0
  0
LINE
  5
378
330
1F
100
AcDbEntity
  8
0
  6
Continuous
 62
     7
370
    15
100
AcDbLine
 10
48.7096450731
 20
579.6876949079
 30
0.0
 11
48.7096450731
 21
574.6876949079
 31
0.0
  0
LINE
  5
379
330
1F
100
AcDbEntity
  8
0
  6
Continuous
 62
     7
370
    15
100
AcDbLine
 10
48.7096450731
 20
574.6876949079
 30
0.0
 11
88.7096450731
 21
644.6876949079
 31
0.0
  0
LINE
  5
37A
330
1F
100
AcDbEntity
  8
0
  6
Continuous
 62
     7
370
    15
100
AcDbLine
 10
88.7096450731
 20
644.6876949079
 30
0.0
 11
88.7096450731
 21
649.6876949079
 31
0.0
  0
LINE
  5
37B
330
1F
100
AcDbEntity
  8
0
  6
Continuous
 62
     7
370
    15
100
AcDbLine
 10
88.7096450731
 20
649.6876949079
 30
0.0
 11
91.7096450731
 21
649.6876949079
 31
0.0
  0
LINE
  5
37C
330
1F
100
AcDbEntity
  8
0
  6
Continuous
 62
     7
370
    15
100
AcDbLine
 10
91.7096450731
 20
649.6876949079
 30
0.0
 11
91.7096450731
 21
669.6876949079
 31
0.0
  0
LINE
  5
37D
330
1F
100
AcDbEntity
  8
0
  6
Continuous
 62
     7
370
    15
100
AcDbLine
 10
91.7096450731
 20
669.6876949079
 30
0.0
 11
88.7096450731
 21
669.6876949079
 31
0.0
  0
LINE
  5
37E
330
1F
100
AcDbEntity
  8
0
  6
Continuous
 62
     7
370
    15
100
AcDbLine
 10
88.7096450731
 20
669.6876949079
 30
0.0
 11
88.7096450731
 21
674.6876949079
 31
0.0
  0
LINE
  5
37F
330
1F
100
AcDbEntity
  8
0
  6
Continuous
 62
     7
370
    15
100
AcDbLine
 10
88.7096450731
 20
674.6876949079
 30
0.0
 11
71.0358972992
 21
643.7586363035
 31
0.0
  0
LINE
  5
380
330
1F
100
AcDbEntity
  8
0
  6
Continuous
 62
     7
370
    15
100
AcDbLine
 10
71.0358972992
 20
643.7586363035
 30
0.0
 11
68.4311678728
 21
645.2470531186
 31
0.0
  0
LINE
  5
381
330
1F
100
AcDbEntity
  8
0
  6
Continuous
 62
     7
370
    15
100
AcDbLine
 10
48.7096450731
 20
599.6876949079
 30
0.0
 11
45.7096450731
 21
599.6876949079
 31
0.0
  0
LINE
  5
382
330
1F
100
AcDbEntity
  8
0
  6
Continuous
 62
     7
370
    15
100
AcDbLine
 10
45.7096450731
 20
599.6876949079
 30
0.0
 11
45.7096450731
 21
579.6876949079
 31
0.0
  0
LINE
  5
383
330
1F
100
AcDbEntity
  8
0
  6
Continuous
 62
     7
370
    15
100
AcDbLine
 10
45.7096450731
 20
579.6876949079
 30
0.0
 11
48.7096450731
 21
579.6876949079
 31
0.0
  0
LINE
  5
384
330
1F
100
AcDbEntity
  8
0
  6
Continuous
 62
     7
370
    15
100
AcDbLine
 10
60.4494857531
 20
559.4054522852
 30
0.0
 11
72.8529592098
 21
581.1115308396
 31
0.0
  0
LINE
  5
385
330
1F
100
AcDbEntity
  8
0
  6
Continuous
 62
     7
370
    15
100
AcDbLine
 10
72.8529592098
 20
581.1115308396
 30
0.0
 11
70.2482297869
 21
582.5999476556
 31
0.0
  0
LINE
  5
386
330
1F
100
AcDbEntity
  8
0
  6
Continuous
 62
     7
370
    15
100
AcDbLine
 10
70.2482297869
 20
582.5999476556
 30
0.0
 11
80.1710085528
 21
599.9648104959
 31
0.0
  0
LINE
  5
387
330
1F
100
AcDbEntity
  8
0
  6
Continuous
 62
     7
370
    15
100
AcDbLine
 10
60.4494857531
 20
559.4054522852
 30
0.0
 11
60.4494857531
 21
554.4054522852
 31
0.0
  0
LINE
  5
388
330
1F
100
AcDbEntity
  8
0
  6
Continuous
 62
     7
370
    15
100
AcDbLine
 10
60.4494857531
 20
534.4054522852
 30
0.0
 11
60.4494857531
 21
529.4054522852
 31
0.0
  0
LINE
  5
389
330
1F
100
AcDbEntity
  8
0
  6
Continuous
 62
     7
370
    15
100
AcDbLine
 10
60.4494857531
 20
529.4054522852
 30
0.0
 11
100.4494857531
 21
599.4054522852
 31
0.0
  0
LINE
  5
38A
330
1F
100
AcDbEntity
  8
0
  6
Continuous
 62
     7
370
    15
100
AcDbLine
 10
100.4494857531
 20
599.4054522852
 30
0.0
 11
100.4494857531
 21
604.4054522852
 31
0.0
  0
LINE
  5
38B
330
1F
100
AcDbEntity
  8
0
  6
Continuous
 62
     7
370
    15
100
AcDbLine
 10
100.4494857531
 20
604.4054522852
 30
0.0
 11
103.4494857531
 21
604.4054522852
 31
0.0
  0
LINE
  5
38C
330
1F
100
AcDbEntity
  8
0
  6
Continuous
 62
     7
370
    15
100
AcDbLine
 10
103.4494857531
 20
604.4054522852
 30
0.0
 11
103.4494857531
 21
624.4054522852
 31
0.0
  0
LINE
  5
38D
330
1F
100
AcDbEntity
  8
0
  6
Continuous
 62
     7
370
    15
100
AcDbLine
 10
103.4494857531
 20
624.4054522852
 30
0.0
 11
100.4494857531
 21
624.4054522852
 31
0.0
  0
LINE
  5
38E
330
1F
100
AcDbEntity
  8
0
  6
Continuous
 62
     7
370
    15
100
AcDbLine
 10
100.4494857531
 20
624.4054522852
 30
0.0
 11
100.4494857531
 21
629.4054522852
 31
0.0
  0
LINE
  5
38F
330
1F
100
AcDbEntity
  8
0
  6
Continuous
 62
     7
370
    15
100
AcDbLine
 10
100.4494857531
 20
629.4054522852
 30
0.0
 11
82.7757379791
 21
598.4763936808
 31
0.0
  0
LINE
  5
390
330
1F
100
AcDbEntity
  8
0
  6
Continuous
 62
     7
370
    15
100
AcDbLine
 10
82.7757379791
 20
598.4763936808
 30
0.0
 11
80.1710085528
 21
599.9648104959
 31
0.0
  0
LINE
  5
391
330
1F
100
AcDbEntity
  8
0
  6
Continuous
 62
     7
370
    15
100
AcDbLine
 10
60.4494857531
 20
554.4054522852
 30
0.0
 11
57.4494857531
 21
554.4054522852
 31
0.0
  0
LINE
  5
392
330
1F
100
AcDbEntity
  8
0
  6
Continuous
 62
     7
370
    15
100
AcDbLine
 10
57.4494857531
 20
554.4054522852
 30
0.0
 11
57.4494857531
 21
534.4054522852
 31
0.0
  0
LINE
  5
393
330
1F
100
AcDbEntity
  8
0
  6
Continuous
 62
     7
370
    15
100
AcDbLine
 10
57.4494857531
 20
534.4054522852
 30
0.0
 11
60.4494857531
 21
534.4054522852
 31
0.0
  0
LINE
  5
394
330
1F
100
AcDbEntity
  8
0
  6
Continuous
 62
     7
370
    15
100
AcDbLine
 10
170.3254447943
 20
719.9804305737
 30
0.0
 11
183.2485217152
 21
712.5958151904
 31
0.0
  0
LINE
  5
395
330
1F
100
AcDbEntity
  8
0
  6
Continuous
 62
     7
370
    15
100
AcDbLine
 10
170.3254447943
 20
719.9804305737
 30
0.0
 11
168.8370279792
 21
717.3757011474
 31
0.0
  0
LINE
  5
396
330
1F
100
AcDbEntity
  8
0
  6
Continuous
 62
     7
370
    15
100
AcDbLine
 10
183.2485217152
 20
712.5958151904
 30
0.0
 11
153.9528598285
 21
661.3284068836
 31
0.0
  0
LINE
  5
397
330
1F
100
AcDbEntity
  8
0
  6
Continuous
 62
     7
370
    15
100
AcDbLine
 10
153.9528598285
 20
666.3284068836
 30
0.0
 11
153.9528598285
 21
661.3284068836
 31
0.0
  0
LINE
  5
398
330
1F
100
AcDbEntity
  8
0
  6
Continuous
 62
     7
370
    15
100
AcDbLine
 10
150.9528598285
 20
666.3284068836
 30
0.0
 11
153.9528598285
 21
666.3284068836
 31
0.0
  0
LINE
  5
399
330
1F
100
AcDbEntity
  8
0
  6
Continuous
 62
     7
370
    15
100
AcDbLine
 10
150.9528598285
 20
686.3284068836
 30
0.0
 11
150.9528598285
 21
666.3284068836
 31
0.0
  0
LINE
  5
39A
330
1F
100
AcDbEntity
  8
0
  6
Continuous
 62
     7
370
    15
100
AcDbLine
 10
153.9528598285
 20
686.3284068836
 30
0.0
 11
150.9528598285
 21
686.3284068836
 31
0.0
  0
LINE
  5
39B
330
1F
100
AcDbEntity
  8
0
  6
Continuous
 62
     7
370
    15
100
AcDbLine
 10
153.9528598285
 20
691.3284068836
 30
0.0
 11
153.9528598285
 21
686.3284068836
 31
0.0
  0
LINE
  5
39C
330
1F
100
AcDbEntity
  8
0
  6
Continuous
 62
     7
370
    15
100
AcDbLine
 10
158.9142492121
 20
700.0108383049
 30
0.0
 11
153.9528598285
 21
691.3284068836
 31
0.0
  0
LINE
  5
39D
330
1F
100
AcDbEntity
  8
0
  6
Continuous
 62
     7
370
    15
100
AcDbLine
 10
156.3095197857
 20
701.4992551199
 30
0.0
 11
158.9142492121
 21
700.0108383049
 31
0.0
  0
LINE
  5
39E
330
1F
100
AcDbEntity
  8
0
  6
Continuous
 62
     7
370
    15
100
AcDbLine
 10
166.2322985529
 20
718.8641179624
 30
0.0
 11
156.3095197857
 21
701.4992551199
 31
0.0
  0
LINE
  5
39F
330
1F
100
AcDbEntity
  8
0
  6
Continuous
 62
     7
370
    15
100
AcDbLine
 10
168.8370279792
 20
717.3757011474
 30
0.0
 11
166.2322985529
 21
718.8641179624
 31
0.0
  0
LINE
  5
3A0
330
1F
100
AcDbEntity
  8
0
  6
Continuous
 62
     7
370
    15
100
AcDbLine
 10
172.5616049238
 20
640.0377059435
 30
0.0
 11
185.4846818447
 21
632.6530905601
 31
0.0
  0
LINE
  5
3A1
330
1F
100
AcDbEntity
  8
0
  6
Continuous
 62
     7
370
    15
100
AcDbLine
 10
172.5616049238
 20
640.0377059435
 30
0.0
 11
171.0731881088
 21
637.4329765171
 31
0.0
  0
LINE
  5
3A2
330
1F
100
AcDbEntity
  8
0
  6
Continuous
 62
     7
370
    15
100
AcDbLine
 10
185.4846818447
 20
632.6530905601
 30
0.0
 11
156.189019958
 21
581.3856822534
 31
0.0
  0
LINE
  5
3A3
330
1F
100
AcDbEntity
  8
0
  6
Continuous
 62
     7
370
    15
100
AcDbLine
 10
156.189019958
 20
586.3856822534
 30
0.0
 11
156.189019958
 21
581.3856822534
 31
0.0
  0
LINE
  5
3A4
330
1F
100
AcDbEntity
  8
0
  6
Continuous
 62
     7
370
    15
100
AcDbLine
 10
153.189019958
 20
586.3856822534
 30
0.0
 11
156.189019958
 21
586.3856822534
 31
0.0
  0
LINE
  5
3A5
330
1F
100
AcDbEntity
  8
0
  6
Continuous
 62
     7
370
    15
100
AcDbLine
 10
153.189019958
 20
606.3856822534
 30
0.0
 11
153.189019958
 21
586.3856822534
 31
0.0
  0
LINE
  5
3A6
330
1F
100
AcDbEntity
  8
0
  6
Continuous
 62
     7
370
    15
100
AcDbLine
 10
156.189019958
 20
606.3856822534
 30
0.0
 11
153.189019958
 21
606.3856822534
 31
0.0
  0
LINE
  5
3A7
330
1F
100
AcDbEntity
  8
0
  6
Continuous
 62
     7
370
    15
100
AcDbLine
 10
156.189019958
 20
611.3856822534
 30
0.0
 11
156.189019958
 21
606.3856822534
 31
0.0
  0
LINE
  5
3A8
330
1F
100
AcDbEntity
  8
0
  6
Continuous
 62
     7
370
    15
100
AcDbLine
 10
161.1504093416
 20
620.0681136746
 30
0.0
 11
156.189019958
 21
611.3856822534
 31
0.0
  0
LINE
  5
3A9
330
1F
100
AcDbEntity
  8
0
  6
Continuous
 62
     7
370
    15
100
AcDbLine
 10
158.5456799152
 20
621.5565304897
 30
0.0
 11
161.1504093416
 21
620.0681136746
 31
0.0
  0
LINE
  5
3AA
330
1F
100
AcDbEntity
  8
0
  6
Continuous
 62
     7
370
    15
100
AcDbLine
 10
168.4684586824
 20
638.9213933322
 30
0.0
 11
158.5456799152
 21
621.5565304897
 31
0.0
  0
LINE
  5
3AB
330
1F
100
AcDbEntity
  8
0
  6
Continuous
 62
     7
370
    15
100
AcDbLine
 10
171.0731881088
 20
637.4329765171
 30
0.0
 11
168.4684586824
 21
638.9213933322
 31
0.0
  0
LINE
  5
3AC
330
1F
100
AcDbEntity
  8
0
  6
Continuous
 62
     7
370
    15
100
AcDbLine
 10
169.2073647295
 20
556.1817010866
 30
0.0
 11
182.1304416505
 21
548.7970857032
 31
0.0
  0
LINE
  5
3AD
330
1F
100
AcDbEntity
  8
0
  6
Continuous
 62
     7
370
    15
100
AcDbLine
 10
169.2073647295
 20
556.1817010866
 30
0.0
 11
167.7189479145
 21
553.5769716602
 31
0.0
  0
LINE
  5
3AE
330
1F
100
AcDbEntity
  8
0
  6
Continuous
 62
     7
370
    15
100
AcDbLine
 10
182.1304416505
 20
548.7970857032
 30
0.0
 11
152.8347797638
 21
497.5296773965
 31
0.0
  0
LINE
  5
3AF
330
1F
100
AcDbEntity
  8
0
  6
Continuous
 62
     7
370
    15
100
AcDbLine
 10
152.8347797638
 20
502.5296773965
 30
0.0
 11
152.8347797638
 21
497.5296773965
 31
0.0
  0
LINE
  5
3B0
330
1F
100
AcDbEntity
  8
0
  6
Continuous
 62
     7
370
    15
100
AcDbLine
 10
149.8347797638
 20
502.5296773965
 30
0.0
 11
152.8347797638
 21
502.5296773965
 31
0.0
  0
LINE
  5
3B1
330
1F
100
AcDbEntity
  8
0
  6
Continuous
 62
     7
370
    15
100
AcDbLine
 10
149.8347797638
 20
522.5296773965
 30
0.0
 11
149.8347797638
 21
502.5296773965
 31
0.0
  0
LINE
  5
3B2
330
1F
100
AcDbEntity
  8
0
  6
Continuous
 62
     7
370
    15
100
AcDbLine
 10
152.8347797638
 20
522.5296773965
 30
0.0
 11
149.8347797638
 21
522.5296773965
 31
0.0
  0
LINE
  5
3B3
330
1F
100
AcDbEntity
  8
0
  6
Continuous
 62
     7
370
    15
100
AcDbLine
 10
152.8347797638
 20
527.5296773965
 30
0.0
 11
152.8347797638
 21
522.5296773965
 31
0.0
  0
LINE
  5
3B4
330
1F
100
AcDbEntity
  8
0
  6
Continuous
 62
     7
370
    15
100
AcDbLine
 10
157.7961691473
 20
536.2121088178
 30
0.0
 11
152.8347797638
 21
527.5296773965
 31
0.0
  0
LINE
  5
3B5
330
1F
100
AcDbEntity
  8
0
  6
Continuous
 62
     7
370
    15
100
AcDbLine
 10
155.191439721
 20
537.7005256328
 30
0.0
 11
157.7961691473
 21
536.2121088178
 31
0.0
  0
LINE
  5
3B6
330
1F
100
AcDbEntity
  8
0
  6
Continuous
 62
     7
370
    15
100
AcDbLine
 10
165.1142184881
 20
555.0653884753
 30
0.0
 11
155.191439721
 21
537.7005256328
 31
0.0
  0
LINE
  5
3B7
330
1F
100
AcDbEntity
  8
0
  6
Continuous
 62
     7
370
    15
100
AcDbLine
 10
167.7189479145
 20
553.5769716602
 30
0.0
 11
165.1142184881
 21
555.0653884753
 31
0.0
  0
ENDSEC
  0
SECTION
  2
OBJECTS
  0
DICTIONARY
  5
C
330
0
100
AcDbDictionary
281
     1
  3
ACAD_GROUP
350
D
  3
ACAD_LAYOUT
350
1A
  3
ACAD_MLINESTYLE
350
17
  3
ACAD_PLOTSETTINGS
350
19
  3
ACAD_PLOTSTYLENAME
350
E
  0
DICTIONARY
  5
D
102
{ACAD_REACTORS
330
C
102
}
330
C
100
AcDbDictionary
281
     1
  0
DICTIONARY
  5
1A
102
{ACAD_REACTORS
330
C
102
}
330
C
100
AcDbDictionary
281
     1
  3
Layout1
350
1E
  3
Layout2
350
26
  3
Model
350
22
  0
DICTIONARY
  5
17
102
{ACAD_REACTORS
330
C
102
}
330
C
100
AcDbDictionary
281
     1
  3
Standard
350
18
  0
DICTIONARY
  5
19
102
{ACAD_REACTORS
330
C
102
}
330
C
100
AcDbDictionary
281
     1
  0
ACDBDICTIONARYWDFLT
  5
E
102
{ACAD_REACTORS
330
C
102
}
330
C
100
AcDbDictionary
281
     1
  3
Normal
350
F
100
AcDbDictionaryWithDefault
340
F
  0
LAYOUT
  5
1E
102
{ACAD_REACTORS
330
1A
102
}
330
1A
100
AcDbPlotSettings
  1

  2
none_device
  4

  6

 40
0.0
 41
0.0
 42
0.0
 43
0.0
 44
0.0
 45
0.0
 46
0.0
 47
0.0
 48
0.0
 49
0.0
140
0.0
141
0.0
142
1.0
143
1.0
 70
   688
 72
     0
 73
     0
 74
     5
  7

 75
    16
147
1.0
148
0.0
149
0.0
100
AcDbLayout
  1
Layout1
 70
     1
 71
     1
 10
0.0
 20
0.0
 11
420.0
 21
297.0
 12
0.0
 22
0.0
 32
0.0
 14
1.0000000000E+20
 24
1.0000000000E+20
 34
1.0000000000E+20
 15
-1.0000000000E+20
 25
-1.0000000000E+20
 35
-1.0000000000E+20
146
0.0
 13
0.0
 23
0.0
 33
0.0
 16
1.0
 26
0.0
 36
0.0
 17
0.0
 27
1.0
 37
0.0
 76
     0
330
1B
  0
LAYOUT
  5
26
102
{ACAD_REACTORS
330
1A
102
}
330
1A
100
AcDbPlotSettings
  1

  2
none_device
  4

  6

 40
0.0
 41
0.0
 42
0.0
 43
0.0
 44
0.0
 45
0.0
 46
0.0
 47
0.0
 48
0.0
 49
0.0
140
0.0
141
0.0
142
1.0
143
1.0
 70
   688
 72
     0
 73
     0
 74
     5
  7

 75
    16
147
1.0
148
0.0
149
0.0
100
AcDbLayout
  1
Layout2
 70
     1
 71
     2
 10
0.0
 20
0.0
 11
0.0
 21
0.0
 12
0.0
 22
0.0
 32
0.0
 14
0.0
 24
0.0
 34
0.0
 15
0.0
 25
0.0
 35
0.0
146
0.0
 13
0.0
 23
0.0
 33
0.0
 16
1.0
 26
0.0
 36
0.0
 17
0.0
 27
1.0
 37
0.0
 76
     0
330
23
  0
LAYOUT
  5
22
102
{ACAD_REACTORS
330
1A
102
}
330
1A
100
AcDbPlotSettings
  1

  2
none_device
  4

  6

 40
0.0
 41
0.0
 42
0.0
 43
0.0
 44
0.0
 45
0.0
 46
0.0
 47
0.0
 48
0.0
 49
0.0
140
0.0
141
0.0
142
1.0
143
1.0
 70
  1712
 72
     0
 73
     0
 74
     0
  7

 75
     0
147
1.0
148
0.0
149
0.0
100
AcDbLayout
  1
Model
 70
     1
 71
     0
 10
0.0
 20
0.0
 11
1189.0
 21
841.0
 12
0.0
 22
0.0
 32
0.0
 14
0.0
 24
0.0
 34
0.0
 15
1189.0
 25
841.0
 35
0.0
146
0.0
 13
0.0
 23
0.0
 33
0.0
 16
1.0
 26
0.0
 36
0.0
 17
0.0
 27
1.0
 37
0.0
 76
     0
330
1F
331
29
  0
MLINESTYLE
  5
18
102
{ACAD_REACTORS
330
17
102
}
330
17
100
AcDbMlineStyle
  2
Standard
 70
     0
  3

 62
   256
 51
90.0
 52
90.0
 71
     2
 49
0.5
 62
   256
  6
BYLAYER
 49
-0.5
 62
   256
  6
BYLAYER
  0
ACDBPLACEHOLDER
  5
F
102
{ACAD_REACTORS
330
E
102
}
330
E
  0
ENDSEC
  0
EOF
